G04 Layer: TopSolderMaskLayer*
G04 EasyEDA v6.4.25, 2022-01-12T17:41:50+11:00*
G04 b283f75f143d4e94901ecfe3ecf6c149,bd1e99ad82f14e1cb325c08acf502db4,10*
G04 Gerber Generator version 0.2*
G04 Scale: 100 percent, Rotated: No, Reflected: No *
G04 Dimensions in millimeters *
G04 leading zeros omitted , absolute positions ,4 integer and 5 decimal *
%FSLAX45Y45*%
%MOMM*%

%ADD49C,1.3016*%
%ADD51C,3.3032*%
%ADD52C,1.8288*%
%ADD54C,10.1016*%
%ADD55C,7.1016*%

%LPD*%
D49*
X4807508Y-88521D02*
G01*
X4807508Y-28521D01*
X3692499Y-88521D02*
G01*
X3692499Y-28521D01*
X3692499Y-516529D02*
G01*
X3692499Y-436529D01*
X4807508Y-516529D02*
G01*
X4807508Y-436529D01*
G36*
X4564888Y-611631D02*
G01*
X4564888Y-471423D01*
X4605020Y-471423D01*
X4605020Y-611631D01*
G37*
G36*
X4534915Y-611631D02*
G01*
X4534915Y-471423D01*
X4575047Y-471423D01*
X4575047Y-611631D01*
G37*
G36*
X4484877Y-611631D02*
G01*
X4484877Y-471423D01*
X4525009Y-471423D01*
X4525009Y-611631D01*
G37*
G36*
X4454906Y-611631D02*
G01*
X4454906Y-471423D01*
X4495038Y-471423D01*
X4495038Y-611631D01*
G37*
G36*
X4404868Y-611631D02*
G01*
X4404868Y-471423D01*
X4445000Y-471423D01*
X4445000Y-611631D01*
G37*
G36*
X4354829Y-611631D02*
G01*
X4354829Y-471423D01*
X4394961Y-471423D01*
X4394961Y-611631D01*
G37*
G36*
X4305045Y-611631D02*
G01*
X4305045Y-471423D01*
X4345177Y-471423D01*
X4345177Y-611631D01*
G37*
G36*
X4255008Y-611631D02*
G01*
X4255008Y-471423D01*
X4295140Y-471423D01*
X4295140Y-611631D01*
G37*
G36*
X4204970Y-611631D02*
G01*
X4204970Y-471423D01*
X4245102Y-471423D01*
X4245102Y-611631D01*
G37*
G36*
X4154931Y-611631D02*
G01*
X4154931Y-471423D01*
X4195063Y-471423D01*
X4195063Y-611631D01*
G37*
G36*
X4054856Y-611631D02*
G01*
X4054856Y-471423D01*
X4094988Y-471423D01*
X4094988Y-611631D01*
G37*
G36*
X4004818Y-611631D02*
G01*
X4004818Y-471423D01*
X4045204Y-471423D01*
X4045204Y-611631D01*
G37*
G36*
X3974845Y-611631D02*
G01*
X3974845Y-471423D01*
X4014977Y-471423D01*
X4014977Y-611631D01*
G37*
G36*
X3924808Y-611631D02*
G01*
X3924808Y-471423D01*
X3965193Y-471423D01*
X3965193Y-611631D01*
G37*
G36*
X3894836Y-611631D02*
G01*
X3894836Y-471423D01*
X3934968Y-471423D01*
X3934968Y-611631D01*
G37*
G36*
X4104893Y-611631D02*
G01*
X4104893Y-471423D01*
X4145025Y-471423D01*
X4145025Y-611631D01*
G37*
D51*
G01*
X3045968Y-2057907D03*
G01*
X3680968Y-1803907D03*
G01*
X4945888Y-2057907D03*
G01*
X5580888Y-1803907D03*
G01*
X6846061Y-2057907D03*
G01*
X7481061Y-1803907D03*
G01*
X1146047Y-4908042D03*
G01*
X1781047Y-4654042D03*
G01*
X3045968Y-4908042D03*
G01*
X3680968Y-4654042D03*
G01*
X4945989Y-4907991D03*
G01*
X5580989Y-4653991D03*
G01*
X6846061Y-4908042D03*
G01*
X7481061Y-4654042D03*
G01*
X1145997Y-6808012D03*
G01*
X1780997Y-6554012D03*
G01*
X3045968Y-6807962D03*
G01*
X3680968Y-6553962D03*
G01*
X4945888Y-6807962D03*
G01*
X5580888Y-6553962D03*
G01*
X7608061Y-7503921D03*
G01*
X7354061Y-6868921D03*
G01*
X1146047Y-8707881D03*
G01*
X1781047Y-8453881D03*
G01*
X3045968Y-8707881D03*
G01*
X3680968Y-8453881D03*
G01*
X4945888Y-8707881D03*
G01*
X5580888Y-8453881D03*
G01*
X1146047Y-10608055D03*
G01*
X1781047Y-10354055D03*
G01*
X3045968Y-10608055D03*
G01*
X3680968Y-10354055D03*
G01*
X4945888Y-10608055D03*
G01*
X5580888Y-10354055D03*
G01*
X7608061Y-11304015D03*
G01*
X7354061Y-10669015D03*
G01*
X2096008Y-12507976D03*
G01*
X2731008Y-12253976D03*
G01*
X4945888Y-12507976D03*
G01*
X5580888Y-12253976D03*
G01*
X1145997Y-2058009D03*
G01*
X1780997Y-1804009D03*
D52*
G01*
X6552006Y-3025012D03*
G01*
X6298006Y-3025012D03*
G01*
X6298006Y-2771012D03*
G36*
X6460490Y-2862326D02*
G01*
X6460490Y-2679445D01*
X6643370Y-2679445D01*
X6643370Y-2862326D01*
G37*
G01*
X6552006Y-3279012D03*
G01*
X6298006Y-3279012D03*
D54*
G01*
X1250010Y-2999994D03*
G01*
X7249998Y-2999994D03*
D55*
G01*
X4250004Y-11049990D03*
M02*
