G04 Layer: BoardOutline*
G04 EasyEDA v6.4.25, 2022-01-12T17:41:50+11:00*
G04 b283f75f143d4e94901ecfe3ecf6c149,bd1e99ad82f14e1cb325c08acf502db4,10*
G04 Gerber Generator version 0.2*
G04 Scale: 100 percent, Rotated: No, Reflected: No *
G04 Dimensions in millimeters *
G04 leading zeros omitted , absolute positions ,4 integer and 5 decimal *
%FSLAX45Y45*%
%MOMM*%

%ADD10C,0.2540*%
D10*
X3774947Y0D02*
G01*
X3774947Y-474979D01*
X4724908Y-474979D01*
X4724908Y0D01*
X4724999Y0D02*
G01*
X5024991Y0D01*
X0Y-800000D02*
G01*
X0Y-12700000D01*
X7849999Y-13350001D02*
G01*
X650001Y-13350001D01*
X8500000Y-800000D02*
G01*
X8500000Y-12700000D01*
X3324999Y-149999D02*
G01*
X650001Y-149999D01*
X7849999Y-149999D02*
G01*
X5175001Y-149999D01*
X3325004Y-150002D02*
G01*
X3474864Y111D01*
X3474994Y0D02*
G01*
X3774998Y0D01*
X5024998Y0D02*
G01*
X5175112Y-150113D01*
G75*
G01*
X8500001Y-800001D02*
G03*
X7850000Y-150000I-650001J0D01*
G75*
G01*
X650001Y-150000D02*
G03*
X0Y-800001I0J-650001D01*
G75*
G01*
X7850002Y-13349999D02*
G03*
X8500003Y-12700000I0J650002D01*
G75*
G01*
X0Y-12700000D02*
G03*
X650001Y-13350001I650001J0D01*
X3459967Y-1219908D02*
G01*
X3459967Y-939909D01*
X3459967Y-939909D02*
G01*
X3139968Y-939909D01*
X3139968Y-939909D02*
G01*
X3139968Y-1219908D01*
X3139968Y-1219908D02*
G01*
X3459967Y-1219908D01*
X3471539Y-927547D02*
G01*
X3471534Y-1237551D01*
X3471534Y-1237551D02*
G01*
X3122033Y-1237551D01*
X3122033Y-1237551D02*
G01*
X3122033Y-927552D01*
X3122033Y-927552D02*
G01*
X3471539Y-927547D01*
X5359887Y-1219908D02*
G01*
X5359887Y-939909D01*
X5359887Y-939909D02*
G01*
X5039888Y-939909D01*
X5039888Y-939909D02*
G01*
X5039888Y-1219908D01*
X5039888Y-1219908D02*
G01*
X5359887Y-1219908D01*
X5371459Y-927547D02*
G01*
X5371454Y-1237551D01*
X5371454Y-1237551D02*
G01*
X5021953Y-1237551D01*
X5021953Y-1237551D02*
G01*
X5021953Y-927552D01*
X5021953Y-927552D02*
G01*
X5371459Y-927547D01*
X7260061Y-1219908D02*
G01*
X7260061Y-939909D01*
X7260061Y-939909D02*
G01*
X6940062Y-939909D01*
X6940062Y-939909D02*
G01*
X6940062Y-1219908D01*
X6940062Y-1219908D02*
G01*
X7260061Y-1219908D01*
X7271633Y-927547D02*
G01*
X7271628Y-1237551D01*
X7271628Y-1237551D02*
G01*
X6922127Y-1237551D01*
X6922127Y-1237551D02*
G01*
X6922127Y-927552D01*
X6922127Y-927552D02*
G01*
X7271633Y-927547D01*
X1560047Y-4070042D02*
G01*
X1560047Y-3790043D01*
X1560047Y-3790043D02*
G01*
X1240048Y-3790043D01*
X1240048Y-3790043D02*
G01*
X1240048Y-4070042D01*
X1240048Y-4070042D02*
G01*
X1560047Y-4070042D01*
X1571619Y-3777681D02*
G01*
X1571614Y-4087685D01*
X1571614Y-4087685D02*
G01*
X1222113Y-4087685D01*
X1222113Y-4087685D02*
G01*
X1222113Y-3777686D01*
X1222113Y-3777686D02*
G01*
X1571619Y-3777681D01*
X3459967Y-4070042D02*
G01*
X3459967Y-3790043D01*
X3459967Y-3790043D02*
G01*
X3139968Y-3790043D01*
X3139968Y-3790043D02*
G01*
X3139968Y-4070042D01*
X3139968Y-4070042D02*
G01*
X3459967Y-4070042D01*
X3471539Y-3777681D02*
G01*
X3471534Y-4087685D01*
X3471534Y-4087685D02*
G01*
X3122033Y-4087685D01*
X3122033Y-4087685D02*
G01*
X3122033Y-3777686D01*
X3122033Y-3777686D02*
G01*
X3471539Y-3777681D01*
X5359999Y-4070002D02*
G01*
X5359999Y-3790002D01*
X5359999Y-3790002D02*
G01*
X5040000Y-3790002D01*
X5040000Y-3790002D02*
G01*
X5040000Y-4070002D01*
X5040000Y-4070002D02*
G01*
X5359999Y-4070002D01*
X5371571Y-3777640D02*
G01*
X5371566Y-4087644D01*
X5371566Y-4087644D02*
G01*
X5022065Y-4087644D01*
X5022065Y-4087644D02*
G01*
X5022065Y-3777645D01*
X5022065Y-3777645D02*
G01*
X5371571Y-3777640D01*
X7260061Y-4070042D02*
G01*
X7260061Y-3790043D01*
X7260061Y-3790043D02*
G01*
X6940062Y-3790043D01*
X6940062Y-3790043D02*
G01*
X6940062Y-4070042D01*
X6940062Y-4070042D02*
G01*
X7260061Y-4070042D01*
X7271633Y-3777681D02*
G01*
X7271628Y-4087685D01*
X7271628Y-4087685D02*
G01*
X6922127Y-4087685D01*
X6922127Y-4087685D02*
G01*
X6922127Y-3777686D01*
X6922127Y-3777686D02*
G01*
X7271633Y-3777681D01*
X1559999Y-5970000D02*
G01*
X1559999Y-5690001D01*
X1559999Y-5690001D02*
G01*
X1240000Y-5690001D01*
X1240000Y-5690001D02*
G01*
X1240000Y-5970000D01*
X1240000Y-5970000D02*
G01*
X1559999Y-5970000D01*
X1571571Y-5677639D02*
G01*
X1571566Y-5987643D01*
X1571566Y-5987643D02*
G01*
X1222065Y-5987643D01*
X1222065Y-5987643D02*
G01*
X1222065Y-5677644D01*
X1222065Y-5677644D02*
G01*
X1571571Y-5677639D01*
X3459967Y-5969962D02*
G01*
X3459967Y-5689963D01*
X3459967Y-5689963D02*
G01*
X3139968Y-5689963D01*
X3139968Y-5689963D02*
G01*
X3139968Y-5969962D01*
X3139968Y-5969962D02*
G01*
X3459967Y-5969962D01*
X3471539Y-5677601D02*
G01*
X3471534Y-5987605D01*
X3471534Y-5987605D02*
G01*
X3122033Y-5987605D01*
X3122033Y-5987605D02*
G01*
X3122033Y-5677606D01*
X3122033Y-5677606D02*
G01*
X3471539Y-5677601D01*
X5359887Y-5969962D02*
G01*
X5359887Y-5689963D01*
X5359887Y-5689963D02*
G01*
X5039888Y-5689963D01*
X5039888Y-5689963D02*
G01*
X5039888Y-5969962D01*
X5039888Y-5969962D02*
G01*
X5359887Y-5969962D01*
X5371459Y-5677601D02*
G01*
X5371454Y-5987605D01*
X5371454Y-5987605D02*
G01*
X5021953Y-5987605D01*
X5021953Y-5987605D02*
G01*
X5021953Y-5677606D01*
X5021953Y-5677606D02*
G01*
X5371459Y-5677601D01*
X6770062Y-7089922D02*
G01*
X6490063Y-7089922D01*
X6490063Y-7089922D02*
G01*
X6490063Y-7409921D01*
X6490063Y-7409921D02*
G01*
X6770062Y-7409921D01*
X6770062Y-7409921D02*
G01*
X6770062Y-7089922D01*
X6477701Y-7078350D02*
G01*
X6787705Y-7078355D01*
X6787705Y-7078355D02*
G01*
X6787705Y-7427856D01*
X6787705Y-7427856D02*
G01*
X6477706Y-7427856D01*
X6477706Y-7427856D02*
G01*
X6477701Y-7078350D01*
X1560047Y-7869882D02*
G01*
X1560047Y-7589883D01*
X1560047Y-7589883D02*
G01*
X1240048Y-7589883D01*
X1240048Y-7589883D02*
G01*
X1240048Y-7869882D01*
X1240048Y-7869882D02*
G01*
X1560047Y-7869882D01*
X1571619Y-7577521D02*
G01*
X1571614Y-7887525D01*
X1571614Y-7887525D02*
G01*
X1222113Y-7887525D01*
X1222113Y-7887525D02*
G01*
X1222113Y-7577526D01*
X1222113Y-7577526D02*
G01*
X1571619Y-7577521D01*
X3459967Y-7869882D02*
G01*
X3459967Y-7589883D01*
X3459967Y-7589883D02*
G01*
X3139968Y-7589883D01*
X3139968Y-7589883D02*
G01*
X3139968Y-7869882D01*
X3139968Y-7869882D02*
G01*
X3459967Y-7869882D01*
X3471539Y-7577521D02*
G01*
X3471534Y-7887525D01*
X3471534Y-7887525D02*
G01*
X3122033Y-7887525D01*
X3122033Y-7887525D02*
G01*
X3122033Y-7577526D01*
X3122033Y-7577526D02*
G01*
X3471539Y-7577521D01*
X5359887Y-7869882D02*
G01*
X5359887Y-7589883D01*
X5359887Y-7589883D02*
G01*
X5039888Y-7589883D01*
X5039888Y-7589883D02*
G01*
X5039888Y-7869882D01*
X5039888Y-7869882D02*
G01*
X5359887Y-7869882D01*
X5371459Y-7577521D02*
G01*
X5371454Y-7887525D01*
X5371454Y-7887525D02*
G01*
X5021953Y-7887525D01*
X5021953Y-7887525D02*
G01*
X5021953Y-7577526D01*
X5021953Y-7577526D02*
G01*
X5371459Y-7577521D01*
X1560047Y-9770056D02*
G01*
X1560047Y-9490057D01*
X1560047Y-9490057D02*
G01*
X1240048Y-9490057D01*
X1240048Y-9490057D02*
G01*
X1240048Y-9770056D01*
X1240048Y-9770056D02*
G01*
X1560047Y-9770056D01*
X1571619Y-9477695D02*
G01*
X1571614Y-9787699D01*
X1571614Y-9787699D02*
G01*
X1222113Y-9787699D01*
X1222113Y-9787699D02*
G01*
X1222113Y-9477700D01*
X1222113Y-9477700D02*
G01*
X1571619Y-9477695D01*
X3459967Y-9770056D02*
G01*
X3459967Y-9490057D01*
X3459967Y-9490057D02*
G01*
X3139968Y-9490057D01*
X3139968Y-9490057D02*
G01*
X3139968Y-9770056D01*
X3139968Y-9770056D02*
G01*
X3459967Y-9770056D01*
X3471539Y-9477695D02*
G01*
X3471534Y-9787699D01*
X3471534Y-9787699D02*
G01*
X3122033Y-9787699D01*
X3122033Y-9787699D02*
G01*
X3122033Y-9477700D01*
X3122033Y-9477700D02*
G01*
X3471539Y-9477695D01*
X5359887Y-9770056D02*
G01*
X5359887Y-9490057D01*
X5359887Y-9490057D02*
G01*
X5039888Y-9490057D01*
X5039888Y-9490057D02*
G01*
X5039888Y-9770056D01*
X5039888Y-9770056D02*
G01*
X5359887Y-9770056D01*
X5371459Y-9477695D02*
G01*
X5371454Y-9787699D01*
X5371454Y-9787699D02*
G01*
X5021953Y-9787699D01*
X5021953Y-9787699D02*
G01*
X5021953Y-9477700D01*
X5021953Y-9477700D02*
G01*
X5371459Y-9477695D01*
X6770062Y-10890016D02*
G01*
X6490063Y-10890016D01*
X6490063Y-10890016D02*
G01*
X6490063Y-11210015D01*
X6490063Y-11210015D02*
G01*
X6770062Y-11210015D01*
X6770062Y-11210015D02*
G01*
X6770062Y-10890016D01*
X6477701Y-10878444D02*
G01*
X6787705Y-10878449D01*
X6787705Y-10878449D02*
G01*
X6787705Y-11227950D01*
X6787705Y-11227950D02*
G01*
X6477706Y-11227950D01*
X6477706Y-11227950D02*
G01*
X6477701Y-10878444D01*
X2510007Y-11669976D02*
G01*
X2510007Y-11389977D01*
X2510007Y-11389977D02*
G01*
X2190008Y-11389977D01*
X2190008Y-11389977D02*
G01*
X2190008Y-11669976D01*
X2190008Y-11669976D02*
G01*
X2510007Y-11669976D01*
X2521579Y-11377615D02*
G01*
X2521574Y-11687619D01*
X2521574Y-11687619D02*
G01*
X2172073Y-11687619D01*
X2172073Y-11687619D02*
G01*
X2172073Y-11377620D01*
X2172073Y-11377620D02*
G01*
X2521579Y-11377615D01*
X5359887Y-11669976D02*
G01*
X5359887Y-11389977D01*
X5359887Y-11389977D02*
G01*
X5039888Y-11389977D01*
X5039888Y-11389977D02*
G01*
X5039888Y-11669976D01*
X5039888Y-11669976D02*
G01*
X5359887Y-11669976D01*
X5371459Y-11377615D02*
G01*
X5371454Y-11687619D01*
X5371454Y-11687619D02*
G01*
X5021953Y-11687619D01*
X5021953Y-11687619D02*
G01*
X5021953Y-11377620D01*
X5021953Y-11377620D02*
G01*
X5371459Y-11377615D01*
X1559999Y-1220000D02*
G01*
X1559999Y-940000D01*
X1559999Y-940000D02*
G01*
X1240000Y-940000D01*
X1240000Y-940000D02*
G01*
X1240000Y-1220000D01*
X1240000Y-1220000D02*
G01*
X1559999Y-1220000D01*
X1571571Y-927638D02*
G01*
X1571566Y-1237642D01*
X1571566Y-1237642D02*
G01*
X1222065Y-1237642D01*
X1222065Y-1237642D02*
G01*
X1222065Y-927643D01*
X1222065Y-927643D02*
G01*
X1571571Y-927638D01*

%LPD*%
M02*
