G04 Layer: BottomSolderMaskLayer*
G04 EasyEDA v6.4.25, 2022-01-12T17:41:50+11:00*
G04 b283f75f143d4e94901ecfe3ecf6c149,bd1e99ad82f14e1cb325c08acf502db4,10*
G04 Gerber Generator version 0.2*
G04 Scale: 100 percent, Rotated: No, Reflected: No *
G04 Dimensions in millimeters *
G04 leading zeros omitted , absolute positions ,4 integer and 5 decimal *
%FSLAX45Y45*%
%MOMM*%

%ADD49C,1.3016*%
%ADD51C,3.3032*%
%ADD52C,1.8288*%
%ADD54C,10.1016*%
%ADD55C,7.1016*%
%ADD56C,0.4016*%
%ADD57C,0.5496*%
%ADD73R,1.0016X0.9016*%
%ADD77R,0.9016X1.6816*%

%LPD*%
D49*
X4807508Y-88521D02*
G01*
X4807508Y-28521D01*
X3692499Y-88521D02*
G01*
X3692499Y-28521D01*
X3692499Y-516529D02*
G01*
X3692499Y-436529D01*
X4807508Y-516529D02*
G01*
X4807508Y-436529D01*
D56*
X4639007Y-3035226D02*
G01*
X4709716Y-3105934D01*
X4603650Y-3070583D02*
G01*
X4674359Y-3141291D01*
X4568294Y-3105939D02*
G01*
X4639002Y-3176648D01*
X4532937Y-3141296D02*
G01*
X4603645Y-3212005D01*
X4497580Y-3176653D02*
G01*
X4568289Y-3247362D01*
X4462223Y-3212010D02*
G01*
X4532932Y-3282718D01*
X4426866Y-3247367D02*
G01*
X4497575Y-3318075D01*
X4391535Y-3282723D02*
G01*
X4462244Y-3353432D01*
X4356153Y-3318080D02*
G01*
X4426861Y-3388789D01*
X4320821Y-3353437D02*
G01*
X4391530Y-3424146D01*
X4285439Y-3388794D02*
G01*
X4356148Y-3459502D01*
X4214746Y-3388794D02*
G01*
X4144037Y-3459502D01*
X4179389Y-3353437D02*
G01*
X4108681Y-3424146D01*
X4144032Y-3318080D02*
G01*
X4073324Y-3388789D01*
X4108676Y-3282723D02*
G01*
X4037967Y-3353432D01*
X4073319Y-3247367D02*
G01*
X4002610Y-3318075D01*
X4037962Y-3212010D02*
G01*
X3967253Y-3282718D01*
X4002605Y-3176653D02*
G01*
X3931897Y-3247362D01*
X3967248Y-3141322D02*
G01*
X3896540Y-3212030D01*
X3931892Y-3105939D02*
G01*
X3861183Y-3176648D01*
X3896560Y-3070608D02*
G01*
X3825852Y-3141317D01*
X3861178Y-3035226D02*
G01*
X3790469Y-3105934D01*
X3790469Y-2893824D02*
G01*
X3861178Y-2964533D01*
X3825852Y-2858442D02*
G01*
X3896560Y-2929150D01*
X3861183Y-2823110D02*
G01*
X3931892Y-2893819D01*
X3896540Y-2787728D02*
G01*
X3967248Y-2858437D01*
X3931897Y-2752397D02*
G01*
X4002605Y-2823105D01*
X3967253Y-2717040D02*
G01*
X4037962Y-2787749D01*
X4002610Y-2681683D02*
G01*
X4073319Y-2752392D01*
X4037967Y-2646326D02*
G01*
X4108676Y-2717035D01*
X4073324Y-2610970D02*
G01*
X4144032Y-2681678D01*
X4108681Y-2575613D02*
G01*
X4179389Y-2646321D01*
X4144037Y-2540256D02*
G01*
X4214746Y-2610965D01*
X4356148Y-2540256D02*
G01*
X4285439Y-2610965D01*
X4391530Y-2575638D02*
G01*
X4320821Y-2646347D01*
X4426861Y-2610970D02*
G01*
X4356153Y-2681678D01*
X4462244Y-2646326D02*
G01*
X4391535Y-2717035D01*
X4497575Y-2681683D02*
G01*
X4426866Y-2752392D01*
X4532932Y-2717040D02*
G01*
X4462223Y-2787749D01*
X4568289Y-2752397D02*
G01*
X4497580Y-2823105D01*
X4603645Y-2787754D02*
G01*
X4532937Y-2858462D01*
X4639002Y-2823110D02*
G01*
X4568294Y-2893819D01*
X4674359Y-2858467D02*
G01*
X4603650Y-2929176D01*
X4709716Y-2893824D02*
G01*
X4639007Y-2964533D01*
D57*
X4895154Y-3079485D02*
G01*
X4982550Y-3166882D01*
X4838588Y-3136051D02*
G01*
X4925984Y-3223447D01*
X4782022Y-3192617D02*
G01*
X4869418Y-3280013D01*
X4725456Y-3249183D02*
G01*
X4812852Y-3336579D01*
X4668890Y-3305749D02*
G01*
X4756287Y-3393145D01*
X4612325Y-3362314D02*
G01*
X4699721Y-3449711D01*
X4555733Y-3418880D02*
G01*
X4643130Y-3506276D01*
X4499193Y-3475446D02*
G01*
X4586589Y-3562842D01*
X4442602Y-3532037D02*
G01*
X4529998Y-3619433D01*
X4386061Y-3588578D02*
G01*
X4473458Y-3675974D01*
X4329470Y-3645169D02*
G01*
X4416866Y-3732565D01*
X4083141Y-3732565D02*
G01*
X4170537Y-3645169D01*
X4026550Y-3675974D02*
G01*
X4113946Y-3588578D01*
X3969984Y-3619433D02*
G01*
X4057380Y-3532037D01*
X3913418Y-3562842D02*
G01*
X4000814Y-3475446D01*
X3856852Y-3506276D02*
G01*
X3944249Y-3418880D01*
X3800287Y-3449711D02*
G01*
X3887683Y-3362314D01*
X3743721Y-3393145D02*
G01*
X3831117Y-3305749D01*
X3687155Y-3336579D02*
G01*
X3774551Y-3249183D01*
X3630589Y-3280013D02*
G01*
X3717985Y-3192617D01*
X3574023Y-3223447D02*
G01*
X3661420Y-3136051D01*
X3517432Y-3166882D02*
G01*
X3604828Y-3079485D01*
X3517432Y-2833131D02*
G01*
X3604828Y-2920527D01*
X3574023Y-2776565D02*
G01*
X3661420Y-2863961D01*
X3630589Y-2719999D02*
G01*
X3717985Y-2807395D01*
X3687155Y-2663408D02*
G01*
X3774551Y-2750804D01*
X3743721Y-2606868D02*
G01*
X3831117Y-2694264D01*
X3800287Y-2550276D02*
G01*
X3887683Y-2637673D01*
X3856852Y-2493711D02*
G01*
X3944249Y-2581107D01*
X3913418Y-2437145D02*
G01*
X4000814Y-2524541D01*
X3969984Y-2380579D02*
G01*
X4057380Y-2467975D01*
X4026550Y-2324013D02*
G01*
X4113946Y-2411409D01*
X4083141Y-2267447D02*
G01*
X4170537Y-2354844D01*
X4329470Y-2354844D02*
G01*
X4416866Y-2267447D01*
X4386061Y-2411409D02*
G01*
X4473458Y-2324013D01*
X4442602Y-2467975D02*
G01*
X4529998Y-2380579D01*
X4499193Y-2524541D02*
G01*
X4586589Y-2437145D01*
X4555733Y-2581107D02*
G01*
X4643130Y-2493711D01*
X4612325Y-2637673D02*
G01*
X4699721Y-2550276D01*
X4668890Y-2694264D02*
G01*
X4756287Y-2606868D01*
X4725456Y-2750804D02*
G01*
X4812852Y-2663408D01*
X4782022Y-2807395D02*
G01*
X4869418Y-2719999D01*
X4838588Y-2863961D02*
G01*
X4925984Y-2776565D01*
X4895154Y-2920527D02*
G01*
X4982550Y-2833131D01*
G36*
X2914395Y-1208786D02*
G01*
X2914395Y-1106423D01*
X3114802Y-1106423D01*
X3114802Y-1208786D01*
G37*
G36*
X2914395Y-1058671D02*
G01*
X2914395Y-956310D01*
X3114802Y-956310D01*
X3114802Y-1058671D01*
G37*
G36*
X3479291Y-1058671D02*
G01*
X3479291Y-956310D01*
X3679697Y-956310D01*
X3679697Y-1058671D01*
G37*
G36*
X3479291Y-1208786D02*
G01*
X3479291Y-1106423D01*
X3679697Y-1106423D01*
X3679697Y-1208786D01*
G37*
G36*
X3898391Y-1939036D02*
G01*
X3898391Y-1668779D01*
X4173727Y-1668779D01*
X4173727Y-1939036D01*
G37*
G36*
X2553208Y-2193036D02*
G01*
X2553208Y-1922779D01*
X2828543Y-1922779D01*
X2828543Y-2193036D01*
G37*
D51*
G01*
X3045968Y-2057907D03*
G01*
X3680968Y-1803907D03*
G36*
X4814315Y-1208786D02*
G01*
X4814315Y-1106423D01*
X5014722Y-1106423D01*
X5014722Y-1208786D01*
G37*
G36*
X4814315Y-1058671D02*
G01*
X4814315Y-956310D01*
X5014722Y-956310D01*
X5014722Y-1058671D01*
G37*
G36*
X5379211Y-1058671D02*
G01*
X5379211Y-956310D01*
X5579618Y-956310D01*
X5579618Y-1058671D01*
G37*
G36*
X5379211Y-1208786D02*
G01*
X5379211Y-1106423D01*
X5579618Y-1106423D01*
X5579618Y-1208786D01*
G37*
G36*
X5798311Y-1939036D02*
G01*
X5798311Y-1668779D01*
X6073647Y-1668779D01*
X6073647Y-1939036D01*
G37*
G36*
X4453127Y-2193036D02*
G01*
X4453127Y-1922779D01*
X4728463Y-1922779D01*
X4728463Y-2193036D01*
G37*
G01*
X4945888Y-2057907D03*
G01*
X5580888Y-1803907D03*
G36*
X6714490Y-1208786D02*
G01*
X6714490Y-1106423D01*
X6914895Y-1106423D01*
X6914895Y-1208786D01*
G37*
G36*
X6714490Y-1058671D02*
G01*
X6714490Y-956310D01*
X6914895Y-956310D01*
X6914895Y-1058671D01*
G37*
G36*
X7279386Y-1058671D02*
G01*
X7279386Y-956310D01*
X7479791Y-956310D01*
X7479791Y-1058671D01*
G37*
G36*
X7279386Y-1208786D02*
G01*
X7279386Y-1106423D01*
X7479791Y-1106423D01*
X7479791Y-1208786D01*
G37*
G36*
X7698486Y-1939036D02*
G01*
X7698486Y-1668779D01*
X7973822Y-1668779D01*
X7973822Y-1939036D01*
G37*
G36*
X6353302Y-2193036D02*
G01*
X6353302Y-1922779D01*
X6628638Y-1922779D01*
X6628638Y-2193036D01*
G37*
G01*
X6846061Y-2057907D03*
G01*
X7481061Y-1803907D03*
G36*
X1014476Y-4058920D02*
G01*
X1014476Y-3956557D01*
X1214881Y-3956557D01*
X1214881Y-4058920D01*
G37*
G36*
X1014476Y-3908805D02*
G01*
X1014476Y-3806444D01*
X1214881Y-3806444D01*
X1214881Y-3908805D01*
G37*
G36*
X1579371Y-3908805D02*
G01*
X1579371Y-3806444D01*
X1779778Y-3806444D01*
X1779778Y-3908805D01*
G37*
G36*
X1579371Y-4058920D02*
G01*
X1579371Y-3956557D01*
X1779778Y-3956557D01*
X1779778Y-4058920D01*
G37*
G36*
X1998472Y-4789170D02*
G01*
X1998472Y-4518913D01*
X2273808Y-4518913D01*
X2273808Y-4789170D01*
G37*
G36*
X653287Y-5043170D02*
G01*
X653287Y-4772913D01*
X928623Y-4772913D01*
X928623Y-5043170D01*
G37*
G01*
X1146047Y-4908042D03*
G01*
X1781047Y-4654042D03*
G36*
X2914395Y-4058920D02*
G01*
X2914395Y-3956557D01*
X3114802Y-3956557D01*
X3114802Y-4058920D01*
G37*
G36*
X2914395Y-3908805D02*
G01*
X2914395Y-3806444D01*
X3114802Y-3806444D01*
X3114802Y-3908805D01*
G37*
G36*
X3479291Y-3908805D02*
G01*
X3479291Y-3806444D01*
X3679697Y-3806444D01*
X3679697Y-3908805D01*
G37*
G36*
X3479291Y-4058920D02*
G01*
X3479291Y-3956557D01*
X3679697Y-3956557D01*
X3679697Y-4058920D01*
G37*
G36*
X3898391Y-4789170D02*
G01*
X3898391Y-4518913D01*
X4173727Y-4518913D01*
X4173727Y-4789170D01*
G37*
G36*
X2553208Y-5043170D02*
G01*
X2553208Y-4772913D01*
X2828543Y-4772913D01*
X2828543Y-5043170D01*
G37*
G01*
X3045968Y-4908042D03*
G01*
X3680968Y-4654042D03*
G36*
X4814315Y-4058920D02*
G01*
X4814315Y-3956557D01*
X5014722Y-3956557D01*
X5014722Y-4058920D01*
G37*
G36*
X4814315Y-3908805D02*
G01*
X4814315Y-3806444D01*
X5014722Y-3806444D01*
X5014722Y-3908805D01*
G37*
G36*
X5379465Y-3908805D02*
G01*
X5379465Y-3806444D01*
X5579618Y-3806444D01*
X5579618Y-3908805D01*
G37*
G36*
X5379465Y-4058920D02*
G01*
X5379465Y-3956557D01*
X5579618Y-3956557D01*
X5579618Y-4058920D01*
G37*
G36*
X5798311Y-4789170D02*
G01*
X5798311Y-4518913D01*
X6073647Y-4518913D01*
X6073647Y-4789170D01*
G37*
G36*
X4453381Y-5043170D02*
G01*
X4453381Y-4772913D01*
X4728718Y-4772913D01*
X4728718Y-5043170D01*
G37*
G01*
X4945989Y-4907991D03*
G01*
X5580989Y-4653991D03*
G36*
X6714490Y-4058920D02*
G01*
X6714490Y-3956557D01*
X6914895Y-3956557D01*
X6914895Y-4058920D01*
G37*
G36*
X6714490Y-3908805D02*
G01*
X6714490Y-3806444D01*
X6914895Y-3806444D01*
X6914895Y-3908805D01*
G37*
G36*
X7279386Y-3908805D02*
G01*
X7279386Y-3806444D01*
X7479791Y-3806444D01*
X7479791Y-3908805D01*
G37*
G36*
X7279386Y-4058920D02*
G01*
X7279386Y-3956557D01*
X7479791Y-3956557D01*
X7479791Y-4058920D01*
G37*
G36*
X7698486Y-4789170D02*
G01*
X7698486Y-4518913D01*
X7973822Y-4518913D01*
X7973822Y-4789170D01*
G37*
G36*
X6353302Y-5043170D02*
G01*
X6353302Y-4772913D01*
X6628638Y-4772913D01*
X6628638Y-5043170D01*
G37*
G01*
X6846061Y-4908042D03*
G01*
X7481061Y-4654042D03*
G36*
X1014476Y-5958839D02*
G01*
X1014476Y-5856478D01*
X1214628Y-5856478D01*
X1214628Y-5958839D01*
G37*
G36*
X1014476Y-5808726D02*
G01*
X1014476Y-5706363D01*
X1214628Y-5706363D01*
X1214628Y-5808726D01*
G37*
G36*
X1579371Y-5808726D02*
G01*
X1579371Y-5706363D01*
X1779778Y-5706363D01*
X1779778Y-5808726D01*
G37*
G36*
X1579371Y-5958839D02*
G01*
X1579371Y-5856478D01*
X1779778Y-5856478D01*
X1779778Y-5958839D01*
G37*
G36*
X1998218Y-6689089D02*
G01*
X1998218Y-6418834D01*
X2273554Y-6418834D01*
X2273554Y-6689089D01*
G37*
G36*
X653287Y-6943089D02*
G01*
X653287Y-6672834D01*
X928623Y-6672834D01*
X928623Y-6943089D01*
G37*
G01*
X1145997Y-6808012D03*
G01*
X1780997Y-6554012D03*
G36*
X2914395Y-5958839D02*
G01*
X2914395Y-5856478D01*
X3114802Y-5856478D01*
X3114802Y-5958839D01*
G37*
G36*
X2914395Y-5808726D02*
G01*
X2914395Y-5706363D01*
X3114802Y-5706363D01*
X3114802Y-5808726D01*
G37*
G36*
X3479291Y-5808726D02*
G01*
X3479291Y-5706363D01*
X3679697Y-5706363D01*
X3679697Y-5808726D01*
G37*
G36*
X3479291Y-5958839D02*
G01*
X3479291Y-5856478D01*
X3679697Y-5856478D01*
X3679697Y-5958839D01*
G37*
G36*
X3898391Y-6689089D02*
G01*
X3898391Y-6418834D01*
X4173727Y-6418834D01*
X4173727Y-6689089D01*
G37*
G36*
X2553208Y-6943089D02*
G01*
X2553208Y-6672834D01*
X2828543Y-6672834D01*
X2828543Y-6943089D01*
G37*
G01*
X3045968Y-6807962D03*
G01*
X3680968Y-6553962D03*
G36*
X4814315Y-5958839D02*
G01*
X4814315Y-5856478D01*
X5014722Y-5856478D01*
X5014722Y-5958839D01*
G37*
G36*
X4814315Y-5808726D02*
G01*
X4814315Y-5706363D01*
X5014722Y-5706363D01*
X5014722Y-5808726D01*
G37*
G36*
X5379211Y-5808726D02*
G01*
X5379211Y-5706363D01*
X5579618Y-5706363D01*
X5579618Y-5808726D01*
G37*
G36*
X5379211Y-5958839D02*
G01*
X5379211Y-5856478D01*
X5579618Y-5856478D01*
X5579618Y-5958839D01*
G37*
G36*
X5798311Y-6689089D02*
G01*
X5798311Y-6418834D01*
X6073647Y-6418834D01*
X6073647Y-6689089D01*
G37*
G36*
X4453127Y-6943089D02*
G01*
X4453127Y-6672834D01*
X4728463Y-6672834D01*
X4728463Y-6943089D01*
G37*
G01*
X4945888Y-6807962D03*
G01*
X5580888Y-6553962D03*
G36*
X6656577Y-7635494D02*
G01*
X6656577Y-7435087D01*
X6758940Y-7435087D01*
X6758940Y-7635494D01*
G37*
G36*
X6506463Y-7635494D02*
G01*
X6506463Y-7435087D01*
X6608825Y-7435087D01*
X6608825Y-7635494D01*
G37*
G36*
X6506463Y-7070597D02*
G01*
X6506463Y-6870192D01*
X6608825Y-6870192D01*
X6608825Y-7070597D01*
G37*
G36*
X6656577Y-7070597D02*
G01*
X6656577Y-6870192D01*
X6758940Y-6870192D01*
X6758940Y-7070597D01*
G37*
G36*
X7218934Y-6651497D02*
G01*
X7218934Y-6376162D01*
X7489190Y-6376162D01*
X7489190Y-6651497D01*
G37*
G36*
X7472934Y-7996681D02*
G01*
X7472934Y-7721345D01*
X7743190Y-7721345D01*
X7743190Y-7996681D01*
G37*
G01*
X7608061Y-7503921D03*
G01*
X7354061Y-6868921D03*
G36*
X1014476Y-7858760D02*
G01*
X1014476Y-7756397D01*
X1214881Y-7756397D01*
X1214881Y-7858760D01*
G37*
G36*
X1014476Y-7708645D02*
G01*
X1014476Y-7606284D01*
X1214881Y-7606284D01*
X1214881Y-7708645D01*
G37*
G36*
X1579371Y-7708645D02*
G01*
X1579371Y-7606284D01*
X1779778Y-7606284D01*
X1779778Y-7708645D01*
G37*
G36*
X1579371Y-7858760D02*
G01*
X1579371Y-7756397D01*
X1779778Y-7756397D01*
X1779778Y-7858760D01*
G37*
G36*
X1998472Y-8589010D02*
G01*
X1998472Y-8318754D01*
X2273808Y-8318754D01*
X2273808Y-8589010D01*
G37*
G36*
X653287Y-8843010D02*
G01*
X653287Y-8572754D01*
X928623Y-8572754D01*
X928623Y-8843010D01*
G37*
G01*
X1146047Y-8707881D03*
G01*
X1781047Y-8453881D03*
G36*
X2914395Y-7858760D02*
G01*
X2914395Y-7756397D01*
X3114802Y-7756397D01*
X3114802Y-7858760D01*
G37*
G36*
X2914395Y-7708645D02*
G01*
X2914395Y-7606284D01*
X3114802Y-7606284D01*
X3114802Y-7708645D01*
G37*
G36*
X3479291Y-7708645D02*
G01*
X3479291Y-7606284D01*
X3679697Y-7606284D01*
X3679697Y-7708645D01*
G37*
G36*
X3479291Y-7858760D02*
G01*
X3479291Y-7756397D01*
X3679697Y-7756397D01*
X3679697Y-7858760D01*
G37*
G36*
X3898391Y-8589010D02*
G01*
X3898391Y-8318754D01*
X4173727Y-8318754D01*
X4173727Y-8589010D01*
G37*
G36*
X2553208Y-8843010D02*
G01*
X2553208Y-8572754D01*
X2828543Y-8572754D01*
X2828543Y-8843010D01*
G37*
G01*
X3045968Y-8707881D03*
G01*
X3680968Y-8453881D03*
G36*
X4814315Y-7858760D02*
G01*
X4814315Y-7756397D01*
X5014722Y-7756397D01*
X5014722Y-7858760D01*
G37*
G36*
X4814315Y-7708645D02*
G01*
X4814315Y-7606284D01*
X5014722Y-7606284D01*
X5014722Y-7708645D01*
G37*
G36*
X5379211Y-7708645D02*
G01*
X5379211Y-7606284D01*
X5579618Y-7606284D01*
X5579618Y-7708645D01*
G37*
G36*
X5379211Y-7858760D02*
G01*
X5379211Y-7756397D01*
X5579618Y-7756397D01*
X5579618Y-7858760D01*
G37*
G36*
X5798311Y-8589010D02*
G01*
X5798311Y-8318754D01*
X6073647Y-8318754D01*
X6073647Y-8589010D01*
G37*
G36*
X4453127Y-8843010D02*
G01*
X4453127Y-8572754D01*
X4728463Y-8572754D01*
X4728463Y-8843010D01*
G37*
G01*
X4945888Y-8707881D03*
G01*
X5580888Y-8453881D03*
G36*
X1014476Y-9758934D02*
G01*
X1014476Y-9656571D01*
X1214881Y-9656571D01*
X1214881Y-9758934D01*
G37*
G36*
X1014476Y-9608820D02*
G01*
X1014476Y-9506458D01*
X1214881Y-9506458D01*
X1214881Y-9608820D01*
G37*
G36*
X1579371Y-9608820D02*
G01*
X1579371Y-9506458D01*
X1779778Y-9506458D01*
X1779778Y-9608820D01*
G37*
G36*
X1579371Y-9758934D02*
G01*
X1579371Y-9656571D01*
X1779778Y-9656571D01*
X1779778Y-9758934D01*
G37*
G36*
X1998472Y-10489184D02*
G01*
X1998472Y-10218928D01*
X2273808Y-10218928D01*
X2273808Y-10489184D01*
G37*
G36*
X653287Y-10743184D02*
G01*
X653287Y-10472928D01*
X928623Y-10472928D01*
X928623Y-10743184D01*
G37*
G01*
X1146047Y-10608055D03*
G01*
X1781047Y-10354055D03*
G36*
X2914395Y-9758934D02*
G01*
X2914395Y-9656571D01*
X3114802Y-9656571D01*
X3114802Y-9758934D01*
G37*
G36*
X2914395Y-9608820D02*
G01*
X2914395Y-9506458D01*
X3114802Y-9506458D01*
X3114802Y-9608820D01*
G37*
G36*
X3479291Y-9608820D02*
G01*
X3479291Y-9506458D01*
X3679697Y-9506458D01*
X3679697Y-9608820D01*
G37*
G36*
X3479291Y-9758934D02*
G01*
X3479291Y-9656571D01*
X3679697Y-9656571D01*
X3679697Y-9758934D01*
G37*
G36*
X3898391Y-10489184D02*
G01*
X3898391Y-10218928D01*
X4173727Y-10218928D01*
X4173727Y-10489184D01*
G37*
G36*
X2553208Y-10743184D02*
G01*
X2553208Y-10472928D01*
X2828543Y-10472928D01*
X2828543Y-10743184D01*
G37*
G01*
X3045968Y-10608055D03*
G01*
X3680968Y-10354055D03*
G36*
X4814315Y-9758934D02*
G01*
X4814315Y-9656571D01*
X5014722Y-9656571D01*
X5014722Y-9758934D01*
G37*
G36*
X4814315Y-9608820D02*
G01*
X4814315Y-9506458D01*
X5014722Y-9506458D01*
X5014722Y-9608820D01*
G37*
G36*
X5379211Y-9608820D02*
G01*
X5379211Y-9506458D01*
X5579618Y-9506458D01*
X5579618Y-9608820D01*
G37*
G36*
X5379211Y-9758934D02*
G01*
X5379211Y-9656571D01*
X5579618Y-9656571D01*
X5579618Y-9758934D01*
G37*
G36*
X5798311Y-10489184D02*
G01*
X5798311Y-10218928D01*
X6073647Y-10218928D01*
X6073647Y-10489184D01*
G37*
G36*
X4453127Y-10743184D02*
G01*
X4453127Y-10472928D01*
X4728463Y-10472928D01*
X4728463Y-10743184D01*
G37*
G01*
X4945888Y-10608055D03*
G01*
X5580888Y-10354055D03*
G36*
X6656577Y-11435587D02*
G01*
X6656577Y-11235181D01*
X6758940Y-11235181D01*
X6758940Y-11435587D01*
G37*
G36*
X6506463Y-11435587D02*
G01*
X6506463Y-11235181D01*
X6608825Y-11235181D01*
X6608825Y-11435587D01*
G37*
G36*
X6506463Y-10870692D02*
G01*
X6506463Y-10670286D01*
X6608825Y-10670286D01*
X6608825Y-10870692D01*
G37*
G36*
X6656577Y-10870692D02*
G01*
X6656577Y-10670286D01*
X6758940Y-10670286D01*
X6758940Y-10870692D01*
G37*
G36*
X7218934Y-10451592D02*
G01*
X7218934Y-10176255D01*
X7489190Y-10176255D01*
X7489190Y-10451592D01*
G37*
G36*
X7472934Y-11796776D02*
G01*
X7472934Y-11521439D01*
X7743190Y-11521439D01*
X7743190Y-11796776D01*
G37*
G01*
X7608061Y-11304015D03*
G01*
X7354061Y-10669015D03*
G36*
X1964436Y-11658854D02*
G01*
X1964436Y-11556492D01*
X2164841Y-11556492D01*
X2164841Y-11658854D01*
G37*
G36*
X1964436Y-11508739D02*
G01*
X1964436Y-11406378D01*
X2164841Y-11406378D01*
X2164841Y-11508739D01*
G37*
G36*
X2529331Y-11508739D02*
G01*
X2529331Y-11406378D01*
X2729738Y-11406378D01*
X2729738Y-11508739D01*
G37*
G36*
X2529331Y-11658854D02*
G01*
X2529331Y-11556492D01*
X2729738Y-11556492D01*
X2729738Y-11658854D01*
G37*
G36*
X2948431Y-12389104D02*
G01*
X2948431Y-12118847D01*
X3223768Y-12118847D01*
X3223768Y-12389104D01*
G37*
G36*
X1603247Y-12643104D02*
G01*
X1603247Y-12372847D01*
X1878584Y-12372847D01*
X1878584Y-12643104D01*
G37*
G01*
X2096008Y-12507976D03*
G01*
X2731008Y-12253976D03*
G36*
X4814315Y-11658854D02*
G01*
X4814315Y-11556492D01*
X5014722Y-11556492D01*
X5014722Y-11658854D01*
G37*
G36*
X4814315Y-11508739D02*
G01*
X4814315Y-11406378D01*
X5014722Y-11406378D01*
X5014722Y-11508739D01*
G37*
G36*
X5379211Y-11508739D02*
G01*
X5379211Y-11406378D01*
X5579618Y-11406378D01*
X5579618Y-11508739D01*
G37*
G36*
X5379211Y-11658854D02*
G01*
X5379211Y-11556492D01*
X5579618Y-11556492D01*
X5579618Y-11658854D01*
G37*
G36*
X5798311Y-12389104D02*
G01*
X5798311Y-12118847D01*
X6073647Y-12118847D01*
X6073647Y-12389104D01*
G37*
G36*
X4453127Y-12643104D02*
G01*
X4453127Y-12372847D01*
X4728463Y-12372847D01*
X4728463Y-12643104D01*
G37*
G01*
X4945888Y-12507976D03*
G01*
X5580888Y-12253976D03*
G36*
X1014476Y-1208786D02*
G01*
X1014476Y-1106423D01*
X1214628Y-1106423D01*
X1214628Y-1208786D01*
G37*
G36*
X1014476Y-1058926D02*
G01*
X1014476Y-956563D01*
X1214628Y-956563D01*
X1214628Y-1058926D01*
G37*
G36*
X1579371Y-1058926D02*
G01*
X1579371Y-956563D01*
X1779778Y-956563D01*
X1779778Y-1058926D01*
G37*
G36*
X1579371Y-1208786D02*
G01*
X1579371Y-1106423D01*
X1779778Y-1106423D01*
X1779778Y-1208786D01*
G37*
G36*
X1998218Y-1939036D02*
G01*
X1998218Y-1668779D01*
X2273554Y-1668779D01*
X2273554Y-1939036D01*
G37*
G36*
X653287Y-2193036D02*
G01*
X653287Y-1922779D01*
X928623Y-1922779D01*
X928623Y-2193036D01*
G37*
G01*
X1145997Y-2058009D03*
G01*
X1780997Y-1804009D03*
G36*
X8099806Y-10815065D02*
G01*
X8099806Y-10685018D01*
X8200136Y-10685018D01*
X8200136Y-10815065D01*
G37*
G36*
X8249920Y-10815065D02*
G01*
X8249920Y-10685018D01*
X8349995Y-10685018D01*
X8349995Y-10815065D01*
G37*
G36*
X8249920Y-10515092D02*
G01*
X8249920Y-10385044D01*
X8349995Y-10385044D01*
X8349995Y-10515092D01*
G37*
G36*
X8099806Y-10515092D02*
G01*
X8099806Y-10385044D01*
X8200136Y-10385044D01*
X8200136Y-10515092D01*
G37*
G36*
X7880350Y-13009371D02*
G01*
X7809484Y-12938760D01*
X7901431Y-12846558D01*
X7972297Y-12917424D01*
G37*
G36*
X7986268Y-13115544D02*
G01*
X7915656Y-13044678D01*
X8007604Y-12952729D01*
X8078470Y-13023595D01*
G37*
G36*
X8198611Y-12903454D02*
G01*
X8127745Y-12832587D01*
X8219693Y-12740639D01*
X8290559Y-12811252D01*
G37*
G36*
X8092440Y-12797281D02*
G01*
X8021574Y-12726415D01*
X8113522Y-12634468D01*
X8184388Y-12705334D01*
G37*
G36*
X5459984Y-13050012D02*
G01*
X5459984Y-12949936D01*
X5590031Y-12949936D01*
X5590031Y-13050012D01*
G37*
G36*
X5459984Y-13200126D02*
G01*
X5459984Y-13100050D01*
X5590031Y-13100050D01*
X5590031Y-13200126D01*
G37*
G36*
X5759958Y-13200126D02*
G01*
X5759958Y-13100050D01*
X5890006Y-13100050D01*
X5890006Y-13200126D01*
G37*
G36*
X5759958Y-13050012D02*
G01*
X5759958Y-12949936D01*
X5890006Y-12949936D01*
X5890006Y-13050012D01*
G37*
G36*
X2609850Y-13075158D02*
G01*
X2609850Y-12974828D01*
X2740152Y-12974828D01*
X2740152Y-13075158D01*
G37*
G36*
X2609850Y-13225018D02*
G01*
X2609850Y-13124942D01*
X2740152Y-13124942D01*
X2740152Y-13225018D01*
G37*
G36*
X2909824Y-13225018D02*
G01*
X2909824Y-13124942D01*
X3040125Y-13124942D01*
X3040125Y-13225018D01*
G37*
G36*
X2909824Y-13075158D02*
G01*
X2909824Y-12974828D01*
X3040125Y-12974828D01*
X3040125Y-13075158D01*
G37*
G36*
X432562Y-12822428D02*
G01*
X340613Y-12730226D01*
X411479Y-12659360D01*
X503428Y-12751562D01*
G37*
G36*
X326389Y-12928345D02*
G01*
X234442Y-12836397D01*
X305307Y-12765531D01*
X397255Y-12857479D01*
G37*
G36*
X538734Y-13140436D02*
G01*
X446531Y-13048487D01*
X517397Y-12977621D01*
X609345Y-13069824D01*
G37*
G36*
X644652Y-13034518D02*
G01*
X552704Y-12942315D01*
X623570Y-12871704D01*
X715518Y-12963652D01*
G37*
G36*
X299973Y-10515092D02*
G01*
X299973Y-10385044D01*
X400050Y-10385044D01*
X400050Y-10515092D01*
G37*
G36*
X149860Y-10515092D02*
G01*
X149860Y-10385044D01*
X250189Y-10385044D01*
X250189Y-10515092D01*
G37*
G36*
X149860Y-10815065D02*
G01*
X149860Y-10685018D01*
X250189Y-10685018D01*
X250189Y-10815065D01*
G37*
G36*
X299973Y-10815065D02*
G01*
X299973Y-10685018D01*
X400050Y-10685018D01*
X400050Y-10815065D01*
G37*
G36*
X299973Y-7865110D02*
G01*
X299973Y-7734808D01*
X400050Y-7734808D01*
X400050Y-7865110D01*
G37*
G36*
X149860Y-7865110D02*
G01*
X149860Y-7734808D01*
X250189Y-7734808D01*
X250189Y-7865110D01*
G37*
G36*
X149860Y-8165084D02*
G01*
X149860Y-8035036D01*
X250189Y-8035036D01*
X250189Y-8165084D01*
G37*
G36*
X299973Y-8165084D02*
G01*
X299973Y-8035036D01*
X400050Y-8035036D01*
X400050Y-8165084D01*
G37*
G36*
X299973Y-5215128D02*
G01*
X299973Y-5084826D01*
X400050Y-5084826D01*
X400050Y-5215128D01*
G37*
G36*
X149860Y-5215128D02*
G01*
X149860Y-5084826D01*
X250189Y-5084826D01*
X250189Y-5215128D01*
G37*
G36*
X149860Y-5515102D02*
G01*
X149860Y-5384800D01*
X250189Y-5384800D01*
X250189Y-5515102D01*
G37*
G36*
X299973Y-5515102D02*
G01*
X299973Y-5384800D01*
X400050Y-5384800D01*
X400050Y-5515102D01*
G37*
G36*
X299973Y-2565145D02*
G01*
X299973Y-2434844D01*
X400050Y-2434844D01*
X400050Y-2565145D01*
G37*
G36*
X149860Y-2565145D02*
G01*
X149860Y-2434844D01*
X250189Y-2434844D01*
X250189Y-2565145D01*
G37*
G36*
X149860Y-2865120D02*
G01*
X149860Y-2734818D01*
X250189Y-2734818D01*
X250189Y-2865120D01*
G37*
G36*
X299973Y-2865120D02*
G01*
X299973Y-2734818D01*
X400050Y-2734818D01*
X400050Y-2865120D01*
G37*
G36*
X8099806Y-8165084D02*
G01*
X8099806Y-8035036D01*
X8200136Y-8035036D01*
X8200136Y-8165084D01*
G37*
G36*
X8249920Y-8165084D02*
G01*
X8249920Y-8035036D01*
X8349995Y-8035036D01*
X8349995Y-8165084D01*
G37*
G36*
X8249920Y-7865110D02*
G01*
X8249920Y-7734808D01*
X8349995Y-7734808D01*
X8349995Y-7865110D01*
G37*
G36*
X8099806Y-7865110D02*
G01*
X8099806Y-7734808D01*
X8200136Y-7734808D01*
X8200136Y-7865110D01*
G37*
G36*
X8099806Y-5515102D02*
G01*
X8099806Y-5384800D01*
X8200136Y-5384800D01*
X8200136Y-5515102D01*
G37*
G36*
X8249920Y-5515102D02*
G01*
X8249920Y-5384800D01*
X8349995Y-5384800D01*
X8349995Y-5515102D01*
G37*
G36*
X8249920Y-5215128D02*
G01*
X8249920Y-5084826D01*
X8349995Y-5084826D01*
X8349995Y-5215128D01*
G37*
G36*
X8099806Y-5215128D02*
G01*
X8099806Y-5084826D01*
X8200136Y-5084826D01*
X8200136Y-5215128D01*
G37*
G36*
X8099806Y-2865120D02*
G01*
X8099806Y-2734818D01*
X8200136Y-2734818D01*
X8200136Y-2865120D01*
G37*
G36*
X8249920Y-2865120D02*
G01*
X8249920Y-2734818D01*
X8349995Y-2734818D01*
X8349995Y-2865120D01*
G37*
G36*
X8249920Y-2565145D02*
G01*
X8249920Y-2434844D01*
X8349995Y-2434844D01*
X8349995Y-2565145D01*
G37*
G36*
X8099806Y-2565145D02*
G01*
X8099806Y-2434844D01*
X8200136Y-2434844D01*
X8200136Y-2565145D01*
G37*
G36*
X8063738Y-865631D02*
G01*
X7971536Y-773429D01*
X8042402Y-702563D01*
X8134350Y-794765D01*
G37*
G36*
X8169656Y-759460D02*
G01*
X8077708Y-667512D01*
X8148574Y-596645D01*
X8240522Y-688594D01*
G37*
G36*
X7957565Y-547370D02*
G01*
X7865618Y-455168D01*
X7936484Y-384555D01*
X8028431Y-476504D01*
G37*
G36*
X7851393Y-653287D02*
G01*
X7759445Y-561339D01*
X7830311Y-490473D01*
X7922259Y-582676D01*
G37*
G36*
X5734811Y-500126D02*
G01*
X5734811Y-399795D01*
X5865113Y-399795D01*
X5865113Y-500126D01*
G37*
G36*
X5734811Y-350012D02*
G01*
X5734811Y-249936D01*
X5865113Y-249936D01*
X5865113Y-350012D01*
G37*
G36*
X5434838Y-350012D02*
G01*
X5434838Y-249936D01*
X5565140Y-249936D01*
X5565140Y-350012D01*
G37*
G36*
X5434838Y-500126D02*
G01*
X5434838Y-399795D01*
X5565140Y-399795D01*
X5565140Y-500126D01*
G37*
G36*
X2909824Y-500126D02*
G01*
X2909824Y-399795D01*
X3040125Y-399795D01*
X3040125Y-500126D01*
G37*
G36*
X2909824Y-350012D02*
G01*
X2909824Y-249936D01*
X3040125Y-249936D01*
X3040125Y-350012D01*
G37*
G36*
X2609850Y-350012D02*
G01*
X2609850Y-249936D01*
X2740152Y-249936D01*
X2740152Y-350012D01*
G37*
G36*
X2609850Y-500126D02*
G01*
X2609850Y-399795D01*
X2740152Y-399795D01*
X2740152Y-500126D01*
G37*
G36*
X598423Y-653287D02*
G01*
X527557Y-582676D01*
X619760Y-490473D01*
X690626Y-561339D01*
G37*
G36*
X492505Y-547370D02*
G01*
X421639Y-476504D01*
X513587Y-384555D01*
X584454Y-455168D01*
G37*
G36*
X280162Y-759460D02*
G01*
X209550Y-688594D01*
X301497Y-596645D01*
X372363Y-667512D01*
G37*
G36*
X386334Y-865631D02*
G01*
X315468Y-794765D01*
X407670Y-702563D01*
X478281Y-773429D01*
G37*
G36*
X2057400Y-2162810D02*
G01*
X2057400Y-2052573D01*
X2142490Y-2052573D01*
X2142490Y-2162810D01*
G37*
G36*
X2057400Y-2397252D02*
G01*
X2057400Y-2287270D01*
X2142490Y-2287270D01*
X2142490Y-2397252D01*
G37*
G36*
X2357374Y-2162810D02*
G01*
X2357374Y-2052573D01*
X2442463Y-2052573D01*
X2442463Y-2162810D01*
G37*
G36*
X2357374Y-2397252D02*
G01*
X2357374Y-2287270D01*
X2442463Y-2287270D01*
X2442463Y-2397252D01*
G37*
G36*
X5857493Y-2187702D02*
G01*
X5857493Y-2077720D01*
X5942584Y-2077720D01*
X5942584Y-2187702D01*
G37*
G36*
X5857493Y-2422397D02*
G01*
X5857493Y-2312162D01*
X5942584Y-2312162D01*
X5942584Y-2422397D01*
G37*
G36*
X6132322Y-2187702D02*
G01*
X6132322Y-2077720D01*
X6217665Y-2077720D01*
X6217665Y-2187702D01*
G37*
G36*
X6132322Y-2422397D02*
G01*
X6132322Y-2312162D01*
X6217665Y-2312162D01*
X6217665Y-2422397D01*
G37*
G36*
X6457441Y-5162804D02*
G01*
X6457441Y-5052568D01*
X6542531Y-5052568D01*
X6542531Y-5162804D01*
G37*
G36*
X6457441Y-5397245D02*
G01*
X6457441Y-5287263D01*
X6542531Y-5287263D01*
X6542531Y-5397245D01*
G37*
G36*
X4557522Y-5162804D02*
G01*
X4557522Y-5052568D01*
X4642611Y-5052568D01*
X4642611Y-5162804D01*
G37*
G36*
X4557522Y-5397245D02*
G01*
X4557522Y-5287263D01*
X4642611Y-5287263D01*
X4642611Y-5397245D01*
G37*
G36*
X2657347Y-5162804D02*
G01*
X2657347Y-5052568D01*
X2742691Y-5052568D01*
X2742691Y-5162804D01*
G37*
G36*
X2657347Y-5397245D02*
G01*
X2657347Y-5287263D01*
X2742691Y-5287263D01*
X2742691Y-5397245D01*
G37*
G36*
X1357376Y-5162804D02*
G01*
X1357376Y-5052568D01*
X1442465Y-5052568D01*
X1442465Y-5162804D01*
G37*
G36*
X1357376Y-5397245D02*
G01*
X1357376Y-5287263D01*
X1442465Y-5287263D01*
X1442465Y-5397245D01*
G37*
G36*
X757428Y-7062723D02*
G01*
X757428Y-6952742D01*
X842518Y-6952742D01*
X842518Y-7062723D01*
G37*
G36*
X757428Y-7297420D02*
G01*
X757428Y-7187184D01*
X842518Y-7187184D01*
X842518Y-7297420D01*
G37*
G36*
X2657347Y-7062723D02*
G01*
X2657347Y-6952742D01*
X2742691Y-6952742D01*
X2742691Y-7062723D01*
G37*
G36*
X2657347Y-7297420D02*
G01*
X2657347Y-7187184D01*
X2742691Y-7187184D01*
X2742691Y-7297420D01*
G37*
G36*
X4557522Y-7062723D02*
G01*
X4557522Y-6952742D01*
X4642611Y-6952742D01*
X4642611Y-7062723D01*
G37*
G36*
X4557522Y-7297420D02*
G01*
X4557522Y-7187184D01*
X4642611Y-7187184D01*
X4642611Y-7297420D01*
G37*
G36*
X7057390Y-8087868D02*
G01*
X7057390Y-7977631D01*
X7142479Y-7977631D01*
X7142479Y-8087868D01*
G37*
G36*
X7057390Y-8322310D02*
G01*
X7057390Y-8212073D01*
X7142479Y-8212073D01*
X7142479Y-8322310D01*
G37*
G36*
X4557522Y-8987789D02*
G01*
X4557522Y-8877554D01*
X4642611Y-8877554D01*
X4642611Y-8987789D01*
G37*
G36*
X4557522Y-9222231D02*
G01*
X4557522Y-9112250D01*
X4642611Y-9112250D01*
X4642611Y-9222231D01*
G37*
G36*
X2657347Y-8987789D02*
G01*
X2657347Y-8877554D01*
X2742691Y-8877554D01*
X2742691Y-8987789D01*
G37*
G36*
X2657347Y-9222231D02*
G01*
X2657347Y-9112250D01*
X2742691Y-9112250D01*
X2742691Y-9222231D01*
G37*
G36*
X757428Y-8987789D02*
G01*
X757428Y-8877554D01*
X842518Y-8877554D01*
X842518Y-8987789D01*
G37*
G36*
X757428Y-9222231D02*
G01*
X757428Y-9112250D01*
X842518Y-9112250D01*
X842518Y-9222231D01*
G37*
G36*
X7207504Y-11912854D02*
G01*
X7207504Y-11802618D01*
X7292593Y-11802618D01*
X7292593Y-11912854D01*
G37*
G36*
X7207504Y-12147295D02*
G01*
X7207504Y-12037060D01*
X7292593Y-12037060D01*
X7292593Y-12147295D01*
G37*
G36*
X4907534Y-10912855D02*
G01*
X4907534Y-10802620D01*
X4992624Y-10802620D01*
X4992624Y-10912855D01*
G37*
G36*
X4907534Y-11147297D02*
G01*
X4907534Y-11037062D01*
X4992624Y-11037062D01*
X4992624Y-11147297D01*
G37*
G36*
X2657347Y-10862818D02*
G01*
X2657347Y-10752581D01*
X2742691Y-10752581D01*
X2742691Y-10862818D01*
G37*
G36*
X2657347Y-11097260D02*
G01*
X2657347Y-10987278D01*
X2742691Y-10987278D01*
X2742691Y-11097260D01*
G37*
G36*
X757428Y-10862818D02*
G01*
X757428Y-10752581D01*
X842518Y-10752581D01*
X842518Y-10862818D01*
G37*
G36*
X757428Y-11097260D02*
G01*
X757428Y-10987278D01*
X842518Y-10987278D01*
X842518Y-11097260D01*
G37*
G36*
X1707387Y-12762737D02*
G01*
X1707387Y-12652755D01*
X1792478Y-12652755D01*
X1792478Y-12762737D01*
G37*
G36*
X1707387Y-12997434D02*
G01*
X1707387Y-12887197D01*
X1792478Y-12887197D01*
X1792478Y-12997434D01*
G37*
G36*
X4557522Y-12762737D02*
G01*
X4557522Y-12652755D01*
X4642611Y-12652755D01*
X4642611Y-12762737D01*
G37*
G36*
X4557522Y-12997434D02*
G01*
X4557522Y-12887197D01*
X4642611Y-12887197D01*
X4642611Y-12997434D01*
G37*
G36*
X4250181Y-3374644D02*
G01*
X3875277Y-2999994D01*
X4250181Y-2625089D01*
X4625086Y-2999994D01*
G37*
D52*
G01*
X6552006Y-3025012D03*
G01*
X6298006Y-3025012D03*
G01*
X6298006Y-2771012D03*
G36*
X6460490Y-2862326D02*
G01*
X6460490Y-2679445D01*
X6643370Y-2679445D01*
X6643370Y-2862326D01*
G37*
G01*
X6552006Y-3279012D03*
G01*
X6298006Y-3279012D03*
G36*
X3044952Y-2640076D02*
G01*
X3044952Y-2509773D01*
X3165093Y-2509773D01*
X3165093Y-2640076D01*
G37*
G36*
X3184906Y-2640076D02*
G01*
X3184906Y-2509773D01*
X3305047Y-2509773D01*
X3305047Y-2640076D01*
G37*
G36*
X3109722Y-3140202D02*
G01*
X3109722Y-3019805D01*
X3240277Y-3019805D01*
X3240277Y-3140202D01*
G37*
G36*
X3109722Y-3280155D02*
G01*
X3109722Y-3159760D01*
X3240277Y-3159760D01*
X3240277Y-3280155D01*
G37*
G36*
X2859786Y-3540252D02*
G01*
X2859786Y-3419855D01*
X2990088Y-3419855D01*
X2990088Y-3540252D01*
G37*
G36*
X2859786Y-3680205D02*
G01*
X2859786Y-3559810D01*
X2990088Y-3559810D01*
X2990088Y-3680205D01*
G37*
G36*
X5153152Y-2964179D02*
G01*
X5060950Y-2871978D01*
X5146040Y-2786887D01*
X5238241Y-2879089D01*
G37*
G36*
X5054091Y-3062986D02*
G01*
X4961890Y-2971037D01*
X5046979Y-2885947D01*
X5139181Y-2978150D01*
G37*
G36*
X5009895Y-3515105D02*
G01*
X5009895Y-3394710D01*
X5140197Y-3394710D01*
X5140197Y-3515105D01*
G37*
G36*
X5009895Y-3655060D02*
G01*
X5009895Y-3534918D01*
X5140197Y-3534918D01*
X5140197Y-3655060D01*
G37*
G36*
X5034788Y-615187D02*
G01*
X5034788Y-484886D01*
X5155184Y-484886D01*
X5155184Y-615187D01*
G37*
G36*
X4894834Y-615187D02*
G01*
X4894834Y-484886D01*
X5015229Y-484886D01*
X5015229Y-615187D01*
G37*
G36*
X3319779Y-615187D02*
G01*
X3319779Y-484886D01*
X3440175Y-484886D01*
X3440175Y-615187D01*
G37*
G36*
X3459734Y-615187D02*
G01*
X3459734Y-484886D01*
X3580129Y-484886D01*
X3580129Y-615187D01*
G37*
G36*
X798321Y-12916408D02*
G01*
X766571Y-12884658D01*
X738123Y-12912852D01*
X677926Y-12852654D01*
X791210Y-12739115D01*
X851407Y-12799568D01*
X819657Y-12831318D01*
X851407Y-12863068D01*
G37*
G36*
X663955Y-12838684D02*
G01*
X592836Y-12767563D01*
X706373Y-12654279D01*
X777239Y-12725145D01*
G37*
G36*
X582676Y-12757404D02*
G01*
X525779Y-12700508D01*
X639063Y-12587224D01*
X695960Y-12643865D01*
G37*
G36*
X515365Y-12690094D02*
G01*
X462026Y-12636754D01*
X490473Y-12608560D01*
X458723Y-12576810D01*
X511810Y-12523470D01*
X543813Y-12555474D01*
X575563Y-12523470D01*
X628650Y-12576810D01*
G37*
G36*
X2934970Y-12910058D02*
G01*
X2934970Y-12749784D01*
X3020059Y-12749784D01*
X3020059Y-12794742D01*
X3065272Y-12794742D01*
X3065272Y-12870179D01*
X3020059Y-12870179D01*
X3020059Y-12910058D01*
G37*
G36*
X2814827Y-12910058D02*
G01*
X2814827Y-12749784D01*
X2915158Y-12749784D01*
X2915158Y-12910058D01*
G37*
G36*
X2719831Y-12910058D02*
G01*
X2719831Y-12749784D01*
X2800095Y-12749784D01*
X2800095Y-12910058D01*
G37*
G36*
X2629915Y-12910058D02*
G01*
X2629915Y-12870179D01*
X2584958Y-12870179D01*
X2584958Y-12794742D01*
X2629915Y-12794742D01*
X2629915Y-12749784D01*
X2705100Y-12749784D01*
X2705100Y-12910058D01*
G37*
G36*
X5784850Y-12910058D02*
G01*
X5784850Y-12749784D01*
X5870193Y-12749784D01*
X5870193Y-12794742D01*
X5915152Y-12794742D01*
X5915152Y-12870179D01*
X5870193Y-12870179D01*
X5870193Y-12910058D01*
G37*
G36*
X5664961Y-12910058D02*
G01*
X5664961Y-12749784D01*
X5765291Y-12749784D01*
X5765291Y-12910058D01*
G37*
G36*
X5569965Y-12910058D02*
G01*
X5569965Y-12749784D01*
X5650229Y-12749784D01*
X5650229Y-12910058D01*
G37*
G36*
X5479795Y-12910058D02*
G01*
X5479795Y-12870179D01*
X5434838Y-12870179D01*
X5434838Y-12794742D01*
X5479795Y-12794742D01*
X5479795Y-12749784D01*
X5555234Y-12749784D01*
X5555234Y-12910058D01*
G37*
G36*
X7874761Y-10490200D02*
G01*
X7874761Y-10404855D01*
X7919720Y-10404855D01*
X7919720Y-10359897D01*
X7995158Y-10359897D01*
X7995158Y-10404855D01*
X8035036Y-10404855D01*
X8035036Y-10490200D01*
G37*
G36*
X7874761Y-10610087D02*
G01*
X7874761Y-10509758D01*
X8035290Y-10509758D01*
X8035036Y-10610087D01*
G37*
G36*
X7874761Y-10705084D02*
G01*
X7874761Y-10624820D01*
X8035036Y-10624820D01*
X8035036Y-10705084D01*
G37*
G36*
X7919720Y-10840212D02*
G01*
X7919720Y-10795254D01*
X7874761Y-10795254D01*
X7874761Y-10719815D01*
X8035036Y-10719815D01*
X8035036Y-10795254D01*
X7995158Y-10795254D01*
X7995158Y-10840212D01*
G37*
G36*
X7874761Y-7840218D02*
G01*
X7874761Y-7754873D01*
X7919720Y-7754873D01*
X7919720Y-7709915D01*
X7995158Y-7709915D01*
X7995158Y-7754873D01*
X8035036Y-7754873D01*
X8035036Y-7840218D01*
G37*
G36*
X7874761Y-7960105D02*
G01*
X7874761Y-7859776D01*
X8035290Y-7859776D01*
X8035036Y-7960105D01*
G37*
G36*
X7874761Y-8055102D02*
G01*
X7874761Y-7974837D01*
X8035036Y-7974837D01*
X8035036Y-8055102D01*
G37*
G36*
X7919720Y-8190229D02*
G01*
X7919720Y-8145271D01*
X7874761Y-8145271D01*
X7874761Y-8069834D01*
X8035036Y-8069834D01*
X8035036Y-8145271D01*
X7995158Y-8145271D01*
X7995158Y-8190229D01*
G37*
G36*
X8002524Y-12672313D02*
G01*
X7889240Y-12558776D01*
X7949438Y-12498578D01*
X7981441Y-12530328D01*
X8013191Y-12498578D01*
X8066277Y-12551663D01*
X8034527Y-12583413D01*
X8062975Y-12611862D01*
G37*
G36*
X7917688Y-12757150D02*
G01*
X7804404Y-12643612D01*
X7875270Y-12572745D01*
X7988554Y-12686029D01*
G37*
G36*
X7850377Y-12824205D02*
G01*
X7737093Y-12710921D01*
X7793990Y-12654026D01*
X7907274Y-12767310D01*
G37*
G36*
X7726679Y-12891515D02*
G01*
X7673593Y-12838176D01*
X7705343Y-12806319D01*
X7673593Y-12774421D01*
X7726679Y-12721336D01*
X7840218Y-12834620D01*
X7786877Y-12887960D01*
X7758684Y-12859765D01*
G37*
G36*
X7683754Y-785876D02*
G01*
X7623556Y-725423D01*
X7655306Y-693673D01*
X7623556Y-661923D01*
X7676641Y-608584D01*
X7708645Y-640587D01*
X7736840Y-612139D01*
X7797291Y-672337D01*
G37*
G36*
X7768590Y-870712D02*
G01*
X7697724Y-799845D01*
X7811008Y-686307D01*
X7882127Y-757428D01*
G37*
G36*
X7835900Y-937768D02*
G01*
X7779004Y-881126D01*
X7892541Y-767587D01*
X7949184Y-824484D01*
G37*
G36*
X7899400Y-1001521D02*
G01*
X7846313Y-948181D01*
X7959597Y-834897D01*
X8012938Y-888237D01*
X7984490Y-916421D01*
X8016493Y-948181D01*
X7963154Y-1001521D01*
X7931404Y-969771D01*
G37*
G36*
X7874761Y-2540254D02*
G01*
X7874761Y-2454910D01*
X7919720Y-2454910D01*
X7919720Y-2409952D01*
X7995158Y-2409952D01*
X7995158Y-2454910D01*
X8035036Y-2454910D01*
X8035036Y-2540254D01*
G37*
G36*
X7874761Y-2660142D02*
G01*
X7874761Y-2559812D01*
X8035036Y-2559812D01*
X8035036Y-2660142D01*
G37*
G36*
X7874761Y-2755137D02*
G01*
X7874761Y-2674873D01*
X8035036Y-2674873D01*
X8035036Y-2755137D01*
G37*
G36*
X7919720Y-2890265D02*
G01*
X7919720Y-2845054D01*
X7874761Y-2845054D01*
X7874761Y-2769870D01*
X8035036Y-2769870D01*
X8035036Y-2845054D01*
X7995158Y-2845054D01*
X7995158Y-2890265D01*
G37*
G36*
X7874761Y-5190236D02*
G01*
X7874761Y-5104892D01*
X7919720Y-5104892D01*
X7919720Y-5059934D01*
X7995158Y-5059934D01*
X7995158Y-5104892D01*
X8035036Y-5104892D01*
X8035036Y-5190236D01*
G37*
G36*
X7874761Y-5310123D02*
G01*
X7874761Y-5209794D01*
X8035290Y-5209794D01*
X8035036Y-5310123D01*
G37*
G36*
X7874761Y-5405120D02*
G01*
X7874761Y-5324855D01*
X8035036Y-5324855D01*
X8035036Y-5405120D01*
G37*
G36*
X7919720Y-5540247D02*
G01*
X7919720Y-5495036D01*
X7874761Y-5495036D01*
X7874761Y-5419852D01*
X8035036Y-5419852D01*
X8035036Y-5495036D01*
X7995158Y-5495036D01*
X7995158Y-5540247D01*
G37*
G36*
X5454904Y-725170D02*
G01*
X5454904Y-680212D01*
X5409945Y-680212D01*
X5409945Y-604773D01*
X5454904Y-604773D01*
X5454904Y-564895D01*
X5540247Y-564895D01*
X5540247Y-725170D01*
G37*
G36*
X5559806Y-725170D02*
G01*
X5559806Y-564895D01*
X5660136Y-564895D01*
X5660136Y-725170D01*
G37*
G36*
X5674868Y-725170D02*
G01*
X5674868Y-564895D01*
X5755131Y-564895D01*
X5755131Y-725170D01*
G37*
G36*
X5769863Y-725170D02*
G01*
X5769863Y-564895D01*
X5845047Y-564895D01*
X5845047Y-604773D01*
X5890259Y-604773D01*
X5890259Y-680212D01*
X5845047Y-680212D01*
X5845047Y-725170D01*
G37*
G36*
X2629915Y-725170D02*
G01*
X2629915Y-680212D01*
X2584958Y-680212D01*
X2584958Y-604773D01*
X2629915Y-604773D01*
X2629915Y-564895D01*
X2715259Y-564895D01*
X2715259Y-725170D01*
G37*
G36*
X2734818Y-725170D02*
G01*
X2734818Y-564895D01*
X2835147Y-564895D01*
X2835147Y-725170D01*
G37*
G36*
X2849879Y-725170D02*
G01*
X2849879Y-564895D01*
X2930143Y-564895D01*
X2930143Y-725170D01*
G37*
G36*
X2944875Y-725170D02*
G01*
X2944875Y-564895D01*
X3020059Y-564895D01*
X3020059Y-604773D01*
X3065272Y-604773D01*
X3065272Y-680212D01*
X3020059Y-680212D01*
X3020059Y-725170D01*
G37*
G36*
X486918Y-1001521D02*
G01*
X433578Y-948181D01*
X465581Y-916421D01*
X437134Y-888237D01*
X497586Y-827786D01*
X610870Y-941070D01*
X550418Y-1001521D01*
X518668Y-969518D01*
G37*
G36*
X624839Y-927354D02*
G01*
X511302Y-813815D01*
X582421Y-742950D01*
X695705Y-856234D01*
G37*
G36*
X706120Y-845820D02*
G01*
X592581Y-732536D01*
X649478Y-675894D01*
X762762Y-789178D01*
G37*
G36*
X773176Y-778763D02*
G01*
X659892Y-665479D01*
X713231Y-612139D01*
X741426Y-640587D01*
X773176Y-608584D01*
X826515Y-661923D01*
X794512Y-693673D01*
X826515Y-725423D01*
G37*
G36*
X504952Y-10840212D02*
G01*
X504952Y-10795254D01*
X464820Y-10795254D01*
X464820Y-10709910D01*
X625094Y-10709910D01*
X625094Y-10795254D01*
X580136Y-10795254D01*
X580136Y-10840212D01*
G37*
G36*
X464820Y-10690097D02*
G01*
X464820Y-10589768D01*
X625094Y-10589768D01*
X625094Y-10690097D01*
G37*
G36*
X464820Y-10575036D02*
G01*
X464820Y-10494771D01*
X625094Y-10494771D01*
X625094Y-10575036D01*
G37*
G36*
X464820Y-10480039D02*
G01*
X464820Y-10404855D01*
X504952Y-10404855D01*
X504952Y-10359897D01*
X580136Y-10359897D01*
X580136Y-10404855D01*
X625094Y-10404855D01*
X625094Y-10480039D01*
G37*
G36*
X504952Y-8190229D02*
G01*
X504952Y-8145271D01*
X464820Y-8145271D01*
X464820Y-8059928D01*
X625094Y-8059928D01*
X625094Y-8145271D01*
X580136Y-8145271D01*
X580136Y-8190229D01*
G37*
G36*
X464820Y-8040115D02*
G01*
X464820Y-7939786D01*
X625094Y-7939786D01*
X625094Y-8040115D01*
G37*
G36*
X464820Y-7925054D02*
G01*
X464820Y-7844789D01*
X625094Y-7844789D01*
X625094Y-7925054D01*
G37*
G36*
X464820Y-7830058D02*
G01*
X464820Y-7754873D01*
X504952Y-7754873D01*
X504952Y-7709915D01*
X580136Y-7709915D01*
X580136Y-7754873D01*
X625094Y-7754873D01*
X625094Y-7830058D01*
G37*
G36*
X504952Y-5540247D02*
G01*
X504952Y-5495036D01*
X464820Y-5495036D01*
X464820Y-5409945D01*
X625094Y-5409945D01*
X625094Y-5495036D01*
X580136Y-5495036D01*
X580136Y-5540247D01*
G37*
G36*
X464820Y-5390134D02*
G01*
X464820Y-5289804D01*
X625094Y-5289804D01*
X625094Y-5390134D01*
G37*
G36*
X464820Y-5275071D02*
G01*
X464820Y-5194807D01*
X625094Y-5194807D01*
X625094Y-5275071D01*
G37*
G36*
X464820Y-5180076D02*
G01*
X464820Y-5104892D01*
X504952Y-5104892D01*
X504952Y-5059934D01*
X580136Y-5059934D01*
X580136Y-5104892D01*
X625094Y-5104892D01*
X625094Y-5180076D01*
G37*
G36*
X504952Y-2890265D02*
G01*
X504952Y-2845054D01*
X464820Y-2845054D01*
X464820Y-2759963D01*
X625094Y-2759963D01*
X625094Y-2845054D01*
X580136Y-2845054D01*
X580136Y-2890265D01*
G37*
G36*
X464820Y-2740152D02*
G01*
X464820Y-2639821D01*
X625094Y-2639821D01*
X625094Y-2740152D01*
G37*
G36*
X464820Y-2625089D02*
G01*
X464820Y-2544826D01*
X625094Y-2544826D01*
X625094Y-2625089D01*
G37*
G36*
X464820Y-2530094D02*
G01*
X464820Y-2454910D01*
X504952Y-2454910D01*
X504952Y-2409952D01*
X580136Y-2409952D01*
X580136Y-2454910D01*
X625094Y-2454910D01*
X625094Y-2530094D01*
G37*
G36*
X895857Y-12591795D02*
G01*
X832104Y-12528042D01*
X902970Y-12457176D01*
X966723Y-12520929D01*
G37*
G36*
X797052Y-12492736D02*
G01*
X733297Y-12428981D01*
X804163Y-12358115D01*
X867918Y-12421870D01*
G37*
G36*
X2400045Y-12850113D02*
G01*
X2400045Y-12759944D01*
X2500122Y-12759944D01*
X2500122Y-12850113D01*
G37*
G36*
X2400045Y-12990068D02*
G01*
X2400045Y-12899897D01*
X2500122Y-12899897D01*
X2500122Y-12990068D01*
G37*
G36*
X7474965Y-12750037D02*
G01*
X7474965Y-12659868D01*
X7575041Y-12659868D01*
X7575041Y-12750037D01*
G37*
G36*
X7474965Y-12889992D02*
G01*
X7474965Y-12799821D01*
X7575041Y-12799821D01*
X7575041Y-12889992D01*
G37*
G36*
X5974841Y-12740131D02*
G01*
X5974841Y-12649962D01*
X6075172Y-12649962D01*
X6075172Y-12740131D01*
G37*
G36*
X5974841Y-12600178D02*
G01*
X5974841Y-12510008D01*
X6075172Y-12510008D01*
X6075172Y-12600178D01*
G37*
D73*
G01*
X775004Y-7995005D03*
G36*
X724915Y-7900162D02*
G01*
X724915Y-7809992D01*
X824992Y-7809992D01*
X824992Y-7900162D01*
G37*
G36*
X674878Y-5390134D02*
G01*
X674878Y-5299963D01*
X775207Y-5299963D01*
X775207Y-5390134D01*
G37*
G36*
X674878Y-5250179D02*
G01*
X674878Y-5160010D01*
X775207Y-5160010D01*
X775207Y-5250179D01*
G37*
G36*
X700023Y-2664968D02*
G01*
X700023Y-2574797D01*
X800100Y-2574797D01*
X800100Y-2664968D01*
G37*
G36*
X700023Y-2525013D02*
G01*
X700023Y-2434844D01*
X800100Y-2434844D01*
X800100Y-2525013D01*
G37*
G36*
X409955Y-10225024D02*
G01*
X409955Y-10124947D01*
X500126Y-10124947D01*
X500126Y-10225024D01*
G37*
G36*
X549910Y-10225024D02*
G01*
X549910Y-10124947D01*
X640079Y-10124947D01*
X640079Y-10225024D01*
G37*
G36*
X728979Y-1016762D02*
G01*
X658113Y-945895D01*
X721868Y-882142D01*
X792734Y-953007D01*
G37*
G36*
X828039Y-917702D02*
G01*
X757173Y-847089D01*
X820928Y-783336D01*
X891794Y-853947D01*
G37*
G36*
X7696961Y-967739D02*
G01*
X7633208Y-903986D01*
X7704074Y-833120D01*
X7767827Y-896873D01*
G37*
G36*
X7796022Y-1066800D02*
G01*
X7732268Y-1003045D01*
X7803134Y-932179D01*
X7866888Y-995934D01*
G37*
G36*
X7709915Y-10300208D02*
G01*
X7709915Y-10199878D01*
X7800086Y-10199878D01*
X7800086Y-10300208D01*
G37*
G36*
X7849870Y-10300208D02*
G01*
X7849870Y-10199878D01*
X7940040Y-10199878D01*
X7940040Y-10300208D01*
G37*
G36*
X7624825Y-8174989D02*
G01*
X7624825Y-8074913D01*
X7714995Y-8074913D01*
X7714995Y-8174989D01*
G37*
G36*
X7484872Y-8174989D02*
G01*
X7484872Y-8074913D01*
X7575041Y-8074913D01*
X7575041Y-8174989D01*
G37*
G36*
X7674863Y-5299963D02*
G01*
X7674863Y-5210047D01*
X7775193Y-5210047D01*
X7775193Y-5299963D01*
G37*
G36*
X7674863Y-5440171D02*
G01*
X7674863Y-5350002D01*
X7775193Y-5350002D01*
X7775193Y-5440171D01*
G37*
G36*
X7899908Y-3215131D02*
G01*
X7899908Y-3124962D01*
X7999984Y-3124962D01*
X7999984Y-3215131D01*
G37*
G36*
X7899908Y-3075178D02*
G01*
X7899908Y-2985007D01*
X7999984Y-2985007D01*
X7999984Y-3075178D01*
G37*
G36*
X2734818Y-875029D02*
G01*
X2734818Y-774954D01*
X2824988Y-774954D01*
X2824988Y-875029D01*
G37*
G36*
X2875025Y-875029D02*
G01*
X2875025Y-774954D01*
X2965195Y-774954D01*
X2965195Y-875029D01*
G37*
G36*
X5634990Y-900176D02*
G01*
X5634990Y-799845D01*
X5725159Y-799845D01*
X5725159Y-900176D01*
G37*
G36*
X5774943Y-900176D02*
G01*
X5774943Y-799845D01*
X5865113Y-799845D01*
X5865113Y-900176D01*
G37*
G36*
X4946904Y-2667762D02*
G01*
X4883150Y-2604007D01*
X4954015Y-2533142D01*
X5017770Y-2596895D01*
G37*
G36*
X5045963Y-2766821D02*
G01*
X4982209Y-2703068D01*
X5053075Y-2632202D01*
X5116829Y-2695955D01*
G37*
G36*
X3304793Y-3647694D02*
G01*
X3304793Y-3512312D01*
X3465068Y-3512312D01*
X3465068Y-3647694D01*
G37*
G36*
X3084829Y-3487673D02*
G01*
X3084829Y-3352292D01*
X3245104Y-3352292D01*
X3245104Y-3443731D01*
X3203193Y-3487673D01*
G37*
G36*
X3084829Y-3647694D02*
G01*
X3084829Y-3512312D01*
X3245104Y-3512312D01*
X3245104Y-3647694D01*
G37*
G36*
X3304793Y-3487673D02*
G01*
X3304793Y-3352292D01*
X3465068Y-3352292D01*
X3465068Y-3487673D01*
G37*
G36*
X7901686Y-11145774D02*
G01*
X7901686Y-11054842D01*
X7998206Y-11054842D01*
X7998206Y-11145774D01*
G37*
G36*
X7901686Y-10995152D02*
G01*
X7901686Y-10904220D01*
X7998206Y-10904220D01*
X7998206Y-10995152D01*
G37*
G36*
X691895Y-1210818D02*
G01*
X691895Y-1114297D01*
X782573Y-1114297D01*
X782573Y-1210818D01*
G37*
G36*
X842518Y-1210818D02*
G01*
X842518Y-1114297D01*
X933195Y-1114297D01*
X933195Y-1210818D01*
G37*
G36*
X1849881Y-1200150D02*
G01*
X1849881Y-1109979D01*
X1949958Y-1109979D01*
X1949958Y-1200150D01*
G37*
G36*
X1849881Y-1340104D02*
G01*
X1849881Y-1249934D01*
X1949958Y-1249934D01*
X1949958Y-1340104D01*
G37*
G36*
X3774947Y-1200150D02*
G01*
X3774947Y-1109979D01*
X3875024Y-1109979D01*
X3875024Y-1200150D01*
G37*
G36*
X3774947Y-1340104D02*
G01*
X3774947Y-1249934D01*
X3875024Y-1249934D01*
X3875024Y-1340104D01*
G37*
G36*
X5649975Y-1200150D02*
G01*
X5649975Y-1109979D01*
X5750052Y-1109979D01*
X5750052Y-1200150D01*
G37*
G36*
X5649975Y-1340104D02*
G01*
X5649975Y-1249934D01*
X5750052Y-1249934D01*
X5750052Y-1340104D01*
G37*
G36*
X7575041Y-1200150D02*
G01*
X7575041Y-1109979D01*
X7675118Y-1109979D01*
X7675118Y-1200150D01*
G37*
G36*
X7575041Y-1340104D02*
G01*
X7575041Y-1249934D01*
X7675118Y-1249934D01*
X7675118Y-1340104D01*
G37*
G36*
X1849881Y-4050029D02*
G01*
X1849881Y-3959860D01*
X1949958Y-3959860D01*
X1949958Y-4050029D01*
G37*
G36*
X1849881Y-4189984D02*
G01*
X1849881Y-4099813D01*
X1949958Y-4099813D01*
X1949958Y-4189984D01*
G37*
G36*
X1849881Y-5950204D02*
G01*
X1849881Y-5860034D01*
X1949958Y-5860034D01*
X1949958Y-5950204D01*
G37*
G36*
X1849881Y-6090157D02*
G01*
X1849881Y-5999987D01*
X1949958Y-5999987D01*
X1949958Y-6090157D01*
G37*
G36*
X1875028Y-7850123D02*
G01*
X1875028Y-7759954D01*
X1975104Y-7759954D01*
X1975104Y-7850123D01*
G37*
G36*
X1875028Y-7990078D02*
G01*
X1875028Y-7899908D01*
X1975104Y-7899908D01*
X1975104Y-7990078D01*
G37*
G36*
X1875028Y-9750044D02*
G01*
X1875028Y-9659874D01*
X1975104Y-9659874D01*
X1975104Y-9750044D01*
G37*
G36*
X1875028Y-9889997D02*
G01*
X1875028Y-9799828D01*
X1975104Y-9799828D01*
X1975104Y-9889997D01*
G37*
G36*
X2849879Y-11649963D02*
G01*
X2849879Y-11560047D01*
X2949956Y-11560047D01*
X2949956Y-11649963D01*
G37*
G36*
X2849879Y-11790171D02*
G01*
X2849879Y-11700002D01*
X2949956Y-11700002D01*
X2949956Y-11790171D01*
G37*
G36*
X3774947Y-9750044D02*
G01*
X3774947Y-9659874D01*
X3875024Y-9659874D01*
X3875024Y-9750044D01*
G37*
G36*
X3774947Y-9889997D02*
G01*
X3774947Y-9799828D01*
X3875024Y-9799828D01*
X3875024Y-9889997D01*
G37*
G36*
X3749802Y-7850123D02*
G01*
X3749802Y-7759954D01*
X3850131Y-7759954D01*
X3850131Y-7850123D01*
G37*
G36*
X3749802Y-7990078D02*
G01*
X3749802Y-7899908D01*
X3850131Y-7899908D01*
X3850131Y-7990078D01*
G37*
G36*
X3774947Y-5950204D02*
G01*
X3774947Y-5860034D01*
X3875024Y-5860034D01*
X3875024Y-5950204D01*
G37*
G36*
X3774947Y-6090157D02*
G01*
X3774947Y-5999987D01*
X3875024Y-5999987D01*
X3875024Y-6090157D01*
G37*
G36*
X3810000Y-4150105D02*
G01*
X3810000Y-4050029D01*
X3900170Y-4050029D01*
X3900170Y-4150105D01*
G37*
G36*
X3949954Y-4150105D02*
G01*
X3949954Y-4050029D01*
X4040124Y-4050029D01*
X4040124Y-4150105D01*
G37*
G36*
X5649975Y-4050029D02*
G01*
X5649975Y-3959860D01*
X5750052Y-3959860D01*
X5750052Y-4050029D01*
G37*
G36*
X5649975Y-4189984D02*
G01*
X5649975Y-4099813D01*
X5750052Y-4099813D01*
X5750052Y-4189984D01*
G37*
G36*
X5700013Y-5950204D02*
G01*
X5700013Y-5860034D01*
X5800090Y-5860034D01*
X5800090Y-5950204D01*
G37*
G36*
X5700013Y-6090157D02*
G01*
X5700013Y-5999987D01*
X5800090Y-5999987D01*
X5800090Y-6090157D01*
G37*
G36*
X5674868Y-7850123D02*
G01*
X5674868Y-7759954D01*
X5775197Y-7759954D01*
X5775197Y-7850123D01*
G37*
G36*
X5674868Y-7990078D02*
G01*
X5674868Y-7899908D01*
X5775197Y-7899908D01*
X5775197Y-7990078D01*
G37*
G36*
X5649975Y-9750044D02*
G01*
X5649975Y-9659874D01*
X5750052Y-9659874D01*
X5750052Y-9750044D01*
G37*
G36*
X5649975Y-9889997D02*
G01*
X5649975Y-9799828D01*
X5750052Y-9799828D01*
X5750052Y-9889997D01*
G37*
G36*
X5649975Y-11649963D02*
G01*
X5649975Y-11560047D01*
X5750052Y-11560047D01*
X5750052Y-11649963D01*
G37*
G36*
X5649975Y-11790171D02*
G01*
X5649975Y-11700002D01*
X5750052Y-11700002D01*
X5750052Y-11790171D01*
G37*
G36*
X6649974Y-10539984D02*
G01*
X6649974Y-10449813D01*
X6750050Y-10449813D01*
X6750050Y-10539984D01*
G37*
G36*
X6649974Y-10400029D02*
G01*
X6649974Y-10309860D01*
X6750050Y-10309860D01*
X6750050Y-10400029D01*
G37*
G36*
X6659879Y-6750050D02*
G01*
X6659879Y-6649973D01*
X6750050Y-6649973D01*
X6750050Y-6750050D01*
G37*
G36*
X6799834Y-6750050D02*
G01*
X6799834Y-6649973D01*
X6890004Y-6649973D01*
X6890004Y-6750050D01*
G37*
G36*
X7549895Y-4050029D02*
G01*
X7549895Y-3959860D01*
X7649972Y-3959860D01*
X7649972Y-4050029D01*
G37*
G36*
X7549895Y-4189984D02*
G01*
X7549895Y-4099813D01*
X7649972Y-4099813D01*
X7649972Y-4189984D01*
G37*
G36*
X2519934Y-2784094D02*
G01*
X2519934Y-2615945D01*
X2610104Y-2615945D01*
X2610104Y-2784094D01*
G37*
D77*
G01*
X2565018Y-3299993D03*
G36*
X2890011Y-2784094D02*
G01*
X2890011Y-2615945D01*
X2980181Y-2615945D01*
X2980181Y-2784094D01*
G37*
G36*
X2890011Y-3384042D02*
G01*
X2890011Y-3215894D01*
X2980181Y-3215894D01*
X2980181Y-3384042D01*
G37*
G36*
X4501641Y-1120647D02*
G01*
X4501641Y-1029970D01*
X4598161Y-1029970D01*
X4598161Y-1120647D01*
G37*
G36*
X4501641Y-970026D02*
G01*
X4501641Y-879347D01*
X4598161Y-879347D01*
X4598161Y-970026D01*
G37*
G36*
X4651756Y-1120647D02*
G01*
X4651756Y-1029970D01*
X4748275Y-1029970D01*
X4748275Y-1120647D01*
G37*
G36*
X4651756Y-970026D02*
G01*
X4651756Y-879347D01*
X4748275Y-879347D01*
X4748275Y-970026D01*
G37*
G36*
X4649977Y-3700018D02*
G01*
X4649977Y-3609847D01*
X4750054Y-3609847D01*
X4750054Y-3700018D01*
G37*
G36*
X4649977Y-3839971D02*
G01*
X4649977Y-3749802D01*
X4750054Y-3749802D01*
X4750054Y-3839971D01*
G37*
G36*
X3949954Y-3925062D02*
G01*
X3949954Y-3824986D01*
X4040124Y-3824986D01*
X4040124Y-3925062D01*
G37*
G36*
X3810000Y-3925062D02*
G01*
X3810000Y-3824986D01*
X3900170Y-3824986D01*
X3900170Y-3925062D01*
G37*
G36*
X3350006Y-2775204D02*
G01*
X3350006Y-2685034D01*
X3450081Y-2685034D01*
X3450081Y-2775204D01*
G37*
G36*
X3350006Y-2915157D02*
G01*
X3350006Y-2824987D01*
X3450081Y-2824987D01*
X3450081Y-2915157D01*
G37*
D54*
G01*
X1250010Y-2999994D03*
G01*
X7249998Y-2999994D03*
D55*
G01*
X4250004Y-11049990D03*
M02*
