M48
METRIC,LZ,000.000
;FILE_FORMAT=3:3
;TYPE=PLATED
;Layer: Drill PTH
;EasyEDA v6.4.25, 2022-01-12T17:41:50+11:00
;b283f75f143d4e94901ecfe3ecf6c149,bd1e99ad82f14e1cb325c08acf502db4,10
;Gerber Generator version 0.2
;Holesize 1 = 0.305 mm
T01C0.305
;Holesize 2 = 0.701 mm
T02C0.701
;Holesize 3 = 0.900 mm
T03C0.900
;Holesize 4 = 3.000 mm
T04C3.000
;Holesize 5 = 3.501 mm
T05C3.501
;Holesize 6 = 5.000 mm
T06C5.000
%
G05
G90
T01
X021366Y-018040
X021365Y-046541
X021365Y-065541
X021365Y-084541
X021365Y-103541
X030865Y-122541
X059365Y-122541
X059365Y-103541
X040365Y-103541
X073500Y-100250
X073539Y-065136
X078365Y-046541
X078366Y-018040
X059366Y-018040
X059365Y-046541
X059365Y-065541
X059365Y-084541
X040365Y-065541
X040365Y-046541
X040366Y-018040
X040365Y-084541
X048500Y-033750
X049500Y-033500
X022750Y-040000
X065500Y-068250
X062500Y-068250
X041500Y-009250
X020500Y-113500
X009750Y-095500
X028500Y-095500
X056000Y-079500
X036500Y-079500
X047500Y-076500
X018000Y-080250
X009375Y-076625
X065500Y-077000
X022750Y-078000
X017750Y-060500
X009500Y-057500
X028500Y-057500
X022750Y-059000
X037000Y-060500
X037000Y-098500
X042500Y-097000
X022750Y-011500
X042500Y-013500
X037000Y-013000
X068500Y-065750
X055750Y-041500
X042500Y-043500
X040000Y-042000
X042500Y-038750
X047500Y-057500
X042500Y-059000
X060750Y-059000
X067000Y-065750
X061500Y-028750
X042500Y-024500
X061500Y-011500
X055750Y-013000
X061500Y-040000
X060500Y-078000
X042500Y-078000
X022750Y-097000
X031750Y-117000
X055500Y-117500
X061500Y-116000
X061500Y-097000
X067000Y-102250
X061500Y-105000
X047500Y-115250
X040000Y-037250
X049000Y-038500
X036500Y-034750
X033750Y-023500
X032500Y-028000
X032750Y-124750
X035750Y-026500
X029750Y-110500
X033750Y-031500
X025000Y-091500
X033750Y-032500
X035750Y-033750
X025750Y-072500
X039500Y-053500
X037250Y-021500
X048250Y-018250
X046751Y-023499
X045250Y-022750
X047000Y-018500
X057250Y-024750
X011250Y-009000
X030000Y-010000
X076500Y-128750
X028750Y-127000
X061500Y-127000
X059016Y-125550
X006556Y-124647
X006824Y-077701
X022750Y-055250
X006500Y-010250
X033750Y-004000
X056250Y-007500
X079500Y-108750
X076000Y-102500
X079000Y-101500
X061500Y-087000
X075250Y-082750
X078250Y-081250
X061500Y-057250
X008250Y-006000
X035250Y-004500
X045500Y-011750
X047000Y-012000
X045999Y-039500
X045250Y-038750
X044500Y-038000
X056250Y-032000
X057000Y-032750
X057750Y-033500
X047250Y-039750
X058250Y-034250
X061500Y-035500
X079550Y-029250
X038001Y-037456
X059500Y-006500
X059500Y-008500
X066500Y-038500
X017500Y-041500
X028500Y-076500
X017750Y-098500
X047750Y-095500
X035250Y-029250
X031250Y-029000
X021250Y-027000
X030250Y-027000
X024750Y-033000
X031700Y-027300
X022750Y-025250
X055750Y-098500
X005500Y-103000
X003500Y-103250
X005500Y-082750
X027750Y-117500
X074500Y-041500
X061500Y-041500
X026500Y-008250
X066750Y-010000
X061500Y-013000
X017750Y-013000
X065625Y-114750
X026500Y-027000
X042250Y-008500
X043750Y-008500
X044500Y-007000
X040750Y-007000
X060250Y-009250
X060500Y-052250
X053000Y-112750
X054750Y-111000
X057500Y-106000
X063250Y-106000
X045250Y-015891
X078099Y-054800
X025716Y-129212
X058250Y-130000
X081030Y-127159
X029750Y-130250
X006250Y-129500
X003500Y-107750
X003500Y-081250
X003500Y-054500
X004000Y-008000
X026750Y-004500
X031001Y-006500
X055000Y-004500
X078409Y-005720
X081500Y-025000
X081500Y-104500
X081500Y-078000
X081500Y-051500
X003500Y-028000
T02
X048075Y-000235G85X048075Y-000935
X036925Y-000235G85X036925Y-000935
X036925Y-004265G85X036925Y-005265
X048075Y-004265G85X048075Y-005265
T03
X065520Y-030250
X062980Y-030250
X062980Y-027710
X065520Y-027710
X065520Y-032790
X062980Y-032790
T04
X030460Y-020579
X036810Y-018039
X049459Y-020579
X055809Y-018039
X068461Y-020579
X074811Y-018039
X011460Y-049080
X017810Y-046540
X030460Y-049080
X036810Y-046540
X049460Y-049080
X055810Y-046540
X068461Y-049080
X074811Y-046540
X011460Y-068080
X017810Y-065540
X030460Y-068080
X036810Y-065540
X049459Y-068080
X055809Y-065540
X076081Y-075039
X073541Y-068689
X011460Y-087079
X017810Y-084539
X030460Y-087079
X036810Y-084539
X049459Y-087079
X055809Y-084539
X011460Y-106081
X017810Y-103541
X030460Y-106081
X036810Y-103541
X049459Y-106081
X055809Y-103541
X076081Y-113040
X073541Y-106690
X020960Y-125080
X027310Y-122540
X049459Y-125080
X055809Y-122540
X011460Y-020580
X017810Y-018040
T05
X042500Y-110500
T06
X012500Y-030000
X072500Y-030000
M30
