G04 Layer: BottomSilkLayer*
G04 EasyEDA v6.4.25, 2022-01-12T23:06:35+11:00*
G04 f164c25aadf14f42abcd0731058902df,bd1e99ad82f14e1cb325c08acf502db4,10*
G04 Gerber Generator version 0.2*
G04 Scale: 100 percent, Rotated: No, Reflected: No *
G04 Dimensions in millimeters *
G04 leading zeros omitted , absolute positions ,4 integer and 5 decimal *
%FSLAX45Y45*%
%MOMM*%

%ADD10C,0.2540*%
%ADD11C,0.5000*%
%ADD22C,0.3000*%
%ADD44C,0.1520*%
%ADD45C,0.1524*%
%ADD46C,0.2000*%
%ADD47C,0.1016*%
%ADD48C,0.2032*%

%LPD*%
D48*
X8100009Y-9273636D02*
G01*
X8100009Y-9416818D01*
X8100009Y-9273636D02*
G01*
X8004556Y-9416818D01*
X8004556Y-9273636D02*
G01*
X8004556Y-9416818D01*
X7959554Y-9273636D02*
G01*
X7959554Y-9375909D01*
X7952737Y-9396364D01*
X7939100Y-9410000D01*
X7918645Y-9416818D01*
X7905009Y-9416818D01*
X7884556Y-9410000D01*
X7870918Y-9396364D01*
X7864101Y-9375909D01*
X7864101Y-9273636D01*
X7819100Y-9273636D02*
G01*
X7819100Y-9416818D01*
X7819100Y-9273636D02*
G01*
X7764556Y-9416818D01*
X7710009Y-9273636D02*
G01*
X7764556Y-9416818D01*
X7710009Y-9273636D02*
G01*
X7710009Y-9416818D01*
X7560010Y-9273636D02*
G01*
X7560010Y-9416818D01*
X7464557Y-9273636D02*
G01*
X7560010Y-9369092D01*
X7525918Y-9335000D02*
G01*
X7464557Y-9416818D01*
X7419555Y-9362272D02*
G01*
X7337737Y-9362272D01*
X7337737Y-9348637D01*
X7344557Y-9335000D01*
X7351374Y-9328183D01*
X7365009Y-9321363D01*
X7385464Y-9321363D01*
X7399101Y-9328183D01*
X7412738Y-9341817D01*
X7419555Y-9362272D01*
X7419555Y-9375909D01*
X7412738Y-9396364D01*
X7399101Y-9410000D01*
X7385464Y-9416818D01*
X7365009Y-9416818D01*
X7351374Y-9410000D01*
X7337737Y-9396364D01*
X7285918Y-9321363D02*
G01*
X7245009Y-9416818D01*
X7204102Y-9321363D02*
G01*
X7245009Y-9416818D01*
X7258646Y-9444090D01*
X7272284Y-9457728D01*
X7285918Y-9464545D01*
X7292738Y-9464545D01*
X7159101Y-9273636D02*
G01*
X7159101Y-9416818D01*
X7159101Y-9341817D02*
G01*
X7145464Y-9328183D01*
X7131829Y-9321363D01*
X7111375Y-9321363D01*
X7097737Y-9328183D01*
X7084103Y-9341817D01*
X7077283Y-9362272D01*
X7077283Y-9375909D01*
X7084103Y-9396364D01*
X7097737Y-9410000D01*
X7111375Y-9416818D01*
X7131829Y-9416818D01*
X7145464Y-9410000D01*
X7159101Y-9396364D01*
X6998192Y-9321363D02*
G01*
X7011830Y-9328183D01*
X7025464Y-9341817D01*
X7032284Y-9362272D01*
X7032284Y-9375909D01*
X7025464Y-9396364D01*
X7011830Y-9410000D01*
X6998192Y-9416818D01*
X6977738Y-9416818D01*
X6964103Y-9410000D01*
X6950466Y-9396364D01*
X6943648Y-9375909D01*
X6943648Y-9362272D01*
X6950466Y-9341817D01*
X6964103Y-9328183D01*
X6977738Y-9321363D01*
X6998192Y-9321363D01*
X6816829Y-9321363D02*
G01*
X6816829Y-9416818D01*
X6816829Y-9341817D02*
G01*
X6830466Y-9328183D01*
X6844103Y-9321363D01*
X6864558Y-9321363D01*
X6878193Y-9328183D01*
X6891830Y-9341817D01*
X6898647Y-9362272D01*
X6898647Y-9375909D01*
X6891830Y-9396364D01*
X6878193Y-9410000D01*
X6864558Y-9416818D01*
X6844103Y-9416818D01*
X6830466Y-9410000D01*
X6816829Y-9396364D01*
X6771830Y-9321363D02*
G01*
X6771830Y-9416818D01*
X6771830Y-9362272D02*
G01*
X6765010Y-9341817D01*
X6751375Y-9328183D01*
X6737738Y-9321363D01*
X6717284Y-9321363D01*
X6590466Y-9273636D02*
G01*
X6590466Y-9416818D01*
X6590466Y-9341817D02*
G01*
X6604104Y-9328183D01*
X6617738Y-9321363D01*
X6638193Y-9321363D01*
X6651830Y-9328183D01*
X6665465Y-9341817D01*
X6672285Y-9362272D01*
X6672285Y-9375909D01*
X6665465Y-9396364D01*
X6651830Y-9410000D01*
X6638193Y-9416818D01*
X6617738Y-9416818D01*
X6604104Y-9410000D01*
X6590466Y-9396364D01*
X6440467Y-9321363D02*
G01*
X6440467Y-9416818D01*
X6440467Y-9362272D02*
G01*
X6433649Y-9341817D01*
X6420012Y-9328183D01*
X6406375Y-9321363D01*
X6385920Y-9321363D01*
X6340922Y-9362272D02*
G01*
X6259103Y-9362272D01*
X6259103Y-9348637D01*
X6265920Y-9335000D01*
X6272740Y-9328183D01*
X6286375Y-9321363D01*
X6306830Y-9321363D01*
X6320467Y-9328183D01*
X6334104Y-9341817D01*
X6340922Y-9362272D01*
X6340922Y-9375909D01*
X6334104Y-9396364D01*
X6320467Y-9410000D01*
X6306830Y-9416818D01*
X6286375Y-9416818D01*
X6272740Y-9410000D01*
X6259103Y-9396364D01*
X6214104Y-9321363D02*
G01*
X6173195Y-9416818D01*
X6132286Y-9321363D02*
G01*
X6173195Y-9416818D01*
X6080467Y-9307728D02*
G01*
X6080467Y-9300908D01*
X6073650Y-9287273D01*
X6066830Y-9280453D01*
X6053195Y-9273636D01*
X6025921Y-9273636D01*
X6012286Y-9280453D01*
X6005466Y-9287273D01*
X5998649Y-9300908D01*
X5998649Y-9314545D01*
X6005466Y-9328183D01*
X6019104Y-9348637D01*
X6087285Y-9416818D01*
X5991832Y-9416818D01*
D45*
X2315316Y-2300003D02*
G01*
X2206353Y-2300000D01*
X2315316Y-2300003D02*
G01*
X2315316Y-2263678D01*
X2310236Y-2247930D01*
X2299822Y-2237770D01*
X2289408Y-2232433D01*
X2273660Y-2227356D01*
X2247752Y-2227356D01*
X2232258Y-2232433D01*
X2221844Y-2237770D01*
X2211430Y-2247930D01*
X2206350Y-2263678D01*
X2206353Y-2300000D01*
X2294488Y-2193066D02*
G01*
X2299822Y-2182652D01*
X2315314Y-2166904D01*
X2206353Y-2166904D01*
X2640317Y-2325001D02*
G01*
X2531353Y-2324999D01*
X2640317Y-2325001D02*
G01*
X2640317Y-2288677D01*
X2635237Y-2272929D01*
X2624823Y-2262769D01*
X2614409Y-2257435D01*
X2598661Y-2252355D01*
X2572753Y-2252355D01*
X2557259Y-2257435D01*
X2546845Y-2262769D01*
X2536431Y-2272929D01*
X2531351Y-2288677D01*
X2531353Y-2324999D01*
X2614409Y-2212731D02*
G01*
X2619489Y-2212731D01*
X2629903Y-2207651D01*
X2635237Y-2202317D01*
X2640317Y-2191903D01*
X2640317Y-2171331D01*
X2635237Y-2160915D01*
X2629903Y-2155581D01*
X2619489Y-2150501D01*
X2609075Y-2150501D01*
X2598661Y-2155581D01*
X2583167Y-2165995D01*
X2531351Y-2218062D01*
X2531353Y-2145167D01*
X5790316Y-2350002D02*
G01*
X5681352Y-2350000D01*
X5790316Y-2350002D02*
G01*
X5790316Y-2313678D01*
X5785236Y-2297930D01*
X5774822Y-2287770D01*
X5764408Y-2282436D01*
X5748660Y-2277356D01*
X5722752Y-2277356D01*
X5707258Y-2282436D01*
X5696844Y-2287770D01*
X5686430Y-2297930D01*
X5681350Y-2313678D01*
X5681352Y-2350000D01*
X5790316Y-2232652D02*
G01*
X5790316Y-2175502D01*
X5748657Y-2206490D01*
X5748660Y-2190996D01*
X5743580Y-2180582D01*
X5738500Y-2175502D01*
X5722752Y-2170165D01*
X5712338Y-2170168D01*
X5696844Y-2175502D01*
X5686430Y-2185916D01*
X5681350Y-2201410D01*
X5681350Y-2216904D01*
X5686430Y-2232652D01*
X5691510Y-2237732D01*
X5701924Y-2243066D01*
X6415316Y-2350002D02*
G01*
X6306352Y-2350000D01*
X6415316Y-2350002D02*
G01*
X6415316Y-2313678D01*
X6410236Y-2297930D01*
X6399822Y-2287770D01*
X6389408Y-2282436D01*
X6373660Y-2277356D01*
X6347752Y-2277356D01*
X6332258Y-2282436D01*
X6321844Y-2287770D01*
X6311430Y-2297930D01*
X6306350Y-2313678D01*
X6306352Y-2350000D01*
X6415316Y-2190996D02*
G01*
X6342672Y-2243066D01*
X6342672Y-2165088D01*
X6415316Y-2190996D02*
G01*
X6306350Y-2190996D01*
X6740316Y-5350002D02*
G01*
X6631353Y-5349999D01*
X6740316Y-5350002D02*
G01*
X6740316Y-5313677D01*
X6735236Y-5297929D01*
X6724822Y-5287769D01*
X6714408Y-5282435D01*
X6698660Y-5277355D01*
X6672752Y-5277355D01*
X6657258Y-5282435D01*
X6646844Y-5287769D01*
X6636430Y-5297929D01*
X6631350Y-5313677D01*
X6631353Y-5349999D01*
X6740316Y-5180584D02*
G01*
X6740316Y-5232651D01*
X6693580Y-5237731D01*
X6698660Y-5232651D01*
X6703994Y-5216903D01*
X6703994Y-5201409D01*
X6698660Y-5185915D01*
X6688500Y-5175501D01*
X6672752Y-5170164D01*
X6662338Y-5170167D01*
X6646844Y-5175501D01*
X6636430Y-5185915D01*
X6631350Y-5201409D01*
X6631350Y-5216903D01*
X6636430Y-5232651D01*
X6641510Y-5237731D01*
X6651924Y-5243065D01*
X4840315Y-5350002D02*
G01*
X4731351Y-5349999D01*
X4840315Y-5350002D02*
G01*
X4840315Y-5313677D01*
X4835235Y-5297929D01*
X4824821Y-5287769D01*
X4814407Y-5282435D01*
X4798659Y-5277355D01*
X4772751Y-5277355D01*
X4757257Y-5282435D01*
X4746843Y-5287769D01*
X4736429Y-5297929D01*
X4731349Y-5313677D01*
X4731351Y-5349999D01*
X4824821Y-5180581D02*
G01*
X4835235Y-5185915D01*
X4840315Y-5201409D01*
X4840315Y-5211823D01*
X4835235Y-5227317D01*
X4819487Y-5237731D01*
X4793579Y-5243065D01*
X4767671Y-5243065D01*
X4746843Y-5237731D01*
X4736429Y-5227317D01*
X4731349Y-5211823D01*
X4731349Y-5206489D01*
X4736429Y-5190995D01*
X4746843Y-5180581D01*
X4762337Y-5175501D01*
X4767671Y-5175501D01*
X4783167Y-5180581D01*
X4793579Y-5190995D01*
X4798656Y-5206489D01*
X4798656Y-5211823D01*
X4793579Y-5227317D01*
X4783167Y-5237731D01*
X4767671Y-5243065D01*
X2915315Y-5350002D02*
G01*
X2806352Y-5349999D01*
X2915315Y-5350002D02*
G01*
X2915315Y-5313677D01*
X2910235Y-5297929D01*
X2899821Y-5287769D01*
X2889407Y-5282435D01*
X2873659Y-5277355D01*
X2847751Y-5277355D01*
X2832257Y-5282435D01*
X2821843Y-5287769D01*
X2811429Y-5297929D01*
X2806349Y-5313677D01*
X2806352Y-5349999D01*
X2915315Y-5170164D02*
G01*
X2806349Y-5222237D01*
X2915315Y-5243062D02*
G01*
X2915315Y-5170164D01*
X1640316Y-5375000D02*
G01*
X1531350Y-5375000D01*
X1640316Y-5375000D02*
G01*
X1640316Y-5338678D01*
X1635236Y-5322930D01*
X1624822Y-5312770D01*
X1614408Y-5307436D01*
X1598660Y-5302356D01*
X1572752Y-5302356D01*
X1557258Y-5307436D01*
X1546844Y-5312770D01*
X1536430Y-5322930D01*
X1531350Y-5338678D01*
X1531350Y-5375000D01*
X1640316Y-5241904D02*
G01*
X1635236Y-5257652D01*
X1624822Y-5262732D01*
X1614408Y-5262732D01*
X1603994Y-5257652D01*
X1598660Y-5247238D01*
X1593580Y-5226410D01*
X1588500Y-5210916D01*
X1578086Y-5200502D01*
X1567672Y-5195168D01*
X1551924Y-5195168D01*
X1541510Y-5200502D01*
X1536430Y-5205582D01*
X1531350Y-5221330D01*
X1531350Y-5241904D01*
X1536430Y-5257652D01*
X1541510Y-5262732D01*
X1551924Y-5268066D01*
X1567672Y-5268066D01*
X1578086Y-5262732D01*
X1588500Y-5252318D01*
X1593580Y-5236824D01*
X1598660Y-5215996D01*
X1603994Y-5205582D01*
X1614408Y-5200502D01*
X1624822Y-5200502D01*
X1635236Y-5205582D01*
X1640316Y-5221330D01*
X1640316Y-5241904D01*
X1040315Y-7274999D02*
G01*
X931349Y-7274999D01*
X1040315Y-7274999D02*
G01*
X1040315Y-7238677D01*
X1035235Y-7222929D01*
X1024821Y-7212769D01*
X1014407Y-7207435D01*
X998659Y-7202355D01*
X972751Y-7202355D01*
X957257Y-7207435D01*
X946843Y-7212769D01*
X936429Y-7222929D01*
X931349Y-7238677D01*
X931349Y-7274999D01*
X1003993Y-7100501D02*
G01*
X988499Y-7105581D01*
X978085Y-7115995D01*
X972751Y-7131489D01*
X972751Y-7136823D01*
X978085Y-7152317D01*
X988499Y-7162731D01*
X1003993Y-7168065D01*
X1009073Y-7168065D01*
X1024821Y-7162731D01*
X1035235Y-7152317D01*
X1040315Y-7136823D01*
X1040315Y-7131489D01*
X1035235Y-7115995D01*
X1024821Y-7105581D01*
X1003993Y-7100501D01*
X978085Y-7100501D01*
X951923Y-7105581D01*
X936429Y-7115995D01*
X931349Y-7131489D01*
X931349Y-7141903D01*
X936429Y-7157651D01*
X946843Y-7162731D01*
X2915315Y-7300003D02*
G01*
X2806352Y-7300000D01*
X2915315Y-7300003D02*
G01*
X2915315Y-7263678D01*
X2910235Y-7247930D01*
X2899821Y-7237770D01*
X2889407Y-7232436D01*
X2873659Y-7227356D01*
X2847751Y-7227356D01*
X2832257Y-7232436D01*
X2821843Y-7237770D01*
X2811429Y-7247930D01*
X2806349Y-7263678D01*
X2806352Y-7300000D01*
X2894487Y-7193066D02*
G01*
X2899821Y-7182652D01*
X2915315Y-7166904D01*
X2806349Y-7166904D01*
X2915315Y-7101629D02*
G01*
X2910235Y-7117120D01*
X2894487Y-7127534D01*
X2868579Y-7132614D01*
X2853085Y-7132614D01*
X2826923Y-7127534D01*
X2811429Y-7117120D01*
X2806352Y-7101626D01*
X2806349Y-7091210D01*
X2811429Y-7075464D01*
X2826923Y-7065050D01*
X2853085Y-7059970D01*
X2868579Y-7059970D01*
X2894487Y-7065050D01*
X2910235Y-7075464D01*
X2915315Y-7091210D01*
X2915315Y-7101629D01*
X4840315Y-7275001D02*
G01*
X4731351Y-7274999D01*
X4840315Y-7275001D02*
G01*
X4840315Y-7238677D01*
X4835235Y-7222929D01*
X4824821Y-7212769D01*
X4814407Y-7207435D01*
X4798659Y-7202355D01*
X4772751Y-7202355D01*
X4757257Y-7207435D01*
X4746843Y-7212769D01*
X4736429Y-7222929D01*
X4731349Y-7238677D01*
X4731351Y-7274999D01*
X4819487Y-7168065D02*
G01*
X4824821Y-7157651D01*
X4840315Y-7141903D01*
X4731349Y-7141903D01*
X4819487Y-7107613D02*
G01*
X4824823Y-7097199D01*
X4840315Y-7081705D01*
X4731349Y-7081705D01*
X7315316Y-8274999D02*
G01*
X7206350Y-8274999D01*
X7315316Y-8274999D02*
G01*
X7315316Y-8238677D01*
X7310236Y-8222929D01*
X7299822Y-8212769D01*
X7289408Y-8207435D01*
X7273660Y-8202355D01*
X7247752Y-8202355D01*
X7232258Y-8207435D01*
X7221844Y-8212769D01*
X7211430Y-8222929D01*
X7206350Y-8238677D01*
X7206350Y-8274999D01*
X7294488Y-8168065D02*
G01*
X7299822Y-8157651D01*
X7315316Y-8141903D01*
X7206350Y-8141903D01*
X7289408Y-8102533D02*
G01*
X7294488Y-8102533D01*
X7304902Y-8097199D01*
X7310236Y-8092119D01*
X7315316Y-8081705D01*
X7315316Y-8060877D01*
X7310236Y-8050463D01*
X7304902Y-8045383D01*
X7294488Y-8040049D01*
X7284074Y-8040049D01*
X7273660Y-8045383D01*
X7258166Y-8055797D01*
X7206350Y-8107613D01*
X7206350Y-8034969D01*
X4840315Y-9225003D02*
G01*
X4731351Y-9225000D01*
X4840315Y-9225003D02*
G01*
X4840315Y-9188678D01*
X4835235Y-9172930D01*
X4824821Y-9162770D01*
X4814407Y-9157436D01*
X4798659Y-9152356D01*
X4772751Y-9152356D01*
X4757257Y-9157436D01*
X4746843Y-9162770D01*
X4736429Y-9172930D01*
X4731349Y-9188678D01*
X4731351Y-9225000D01*
X4819487Y-9118066D02*
G01*
X4824821Y-9107652D01*
X4840315Y-9091904D01*
X4731349Y-9091904D01*
X4840315Y-9047200D02*
G01*
X4840315Y-8990050D01*
X4798659Y-9021292D01*
X4798659Y-9005798D01*
X4793579Y-8995384D01*
X4788499Y-8990050D01*
X4772751Y-8984970D01*
X4762337Y-8984970D01*
X4746843Y-8990050D01*
X4736429Y-9000464D01*
X4731349Y-9016210D01*
X4731349Y-9031706D01*
X4736429Y-9047200D01*
X4741511Y-9052534D01*
X4751923Y-9057614D01*
X2940316Y-9200001D02*
G01*
X2831353Y-9199999D01*
X2940316Y-9200001D02*
G01*
X2940316Y-9163677D01*
X2935236Y-9147929D01*
X2924822Y-9137769D01*
X2914408Y-9132435D01*
X2898660Y-9127355D01*
X2872752Y-9127355D01*
X2857258Y-9132435D01*
X2846844Y-9137769D01*
X2836430Y-9147929D01*
X2831350Y-9163677D01*
X2831353Y-9199999D01*
X2919488Y-9093065D02*
G01*
X2924822Y-9082651D01*
X2940316Y-9066903D01*
X2831350Y-9066903D01*
X2940316Y-8980797D02*
G01*
X2867672Y-9032613D01*
X2867672Y-8954889D01*
X2940316Y-8980797D02*
G01*
X2831350Y-8980797D01*
X1040315Y-9200001D02*
G01*
X931351Y-9199999D01*
X1040315Y-9200001D02*
G01*
X1040315Y-9163677D01*
X1035235Y-9147929D01*
X1024821Y-9137769D01*
X1014407Y-9132435D01*
X998659Y-9127355D01*
X972751Y-9127355D01*
X957257Y-9132435D01*
X946843Y-9137769D01*
X936429Y-9147929D01*
X931349Y-9163677D01*
X931351Y-9199999D01*
X1019487Y-9093065D02*
G01*
X1024821Y-9082651D01*
X1040315Y-9066903D01*
X931349Y-9066903D01*
X1040315Y-8970383D02*
G01*
X1040315Y-9022199D01*
X993579Y-9027533D01*
X998659Y-9022201D01*
X1003993Y-9006705D01*
X1003993Y-8991211D01*
X998659Y-8975463D01*
X988499Y-8965049D01*
X972751Y-8959969D01*
X962337Y-8959969D01*
X946843Y-8965049D01*
X936429Y-8975463D01*
X931349Y-8991208D01*
X931349Y-9006705D01*
X936429Y-9022199D01*
X941511Y-9027533D01*
X951923Y-9032613D01*
X7490315Y-12075002D02*
G01*
X7381351Y-12074999D01*
X7490315Y-12075002D02*
G01*
X7490315Y-12038677D01*
X7485235Y-12022929D01*
X7474821Y-12012769D01*
X7464407Y-12007435D01*
X7448659Y-12002355D01*
X7422751Y-12002355D01*
X7407257Y-12007435D01*
X7396843Y-12012769D01*
X7386429Y-12022929D01*
X7381349Y-12038677D01*
X7381351Y-12074999D01*
X7469487Y-11968065D02*
G01*
X7474821Y-11957651D01*
X7490315Y-11941903D01*
X7381349Y-11941903D01*
X7474823Y-11845383D02*
G01*
X7485235Y-11850463D01*
X7490315Y-11866209D01*
X7490315Y-11876628D01*
X7485235Y-11892119D01*
X7469487Y-11902533D01*
X7443579Y-11907613D01*
X7417671Y-11907613D01*
X7396840Y-11902533D01*
X7386429Y-11892119D01*
X7381351Y-11876625D01*
X7381351Y-11871291D01*
X7386429Y-11855797D01*
X7396843Y-11845386D01*
X7412337Y-11840049D01*
X7417671Y-11840049D01*
X7433165Y-11845383D01*
X7443579Y-11855797D01*
X7448659Y-11871291D01*
X7448659Y-11876625D01*
X7443579Y-11892119D01*
X7433165Y-11902533D01*
X7417671Y-11907613D01*
X5165316Y-11075001D02*
G01*
X5056350Y-11074999D01*
X5165316Y-11075001D02*
G01*
X5165316Y-11038677D01*
X5160236Y-11022929D01*
X5149822Y-11012769D01*
X5139408Y-11007435D01*
X5123660Y-11002355D01*
X5097752Y-11002355D01*
X5082258Y-11007435D01*
X5071844Y-11012769D01*
X5061430Y-11022929D01*
X5056350Y-11038677D01*
X5056350Y-11074999D01*
X5144488Y-10968065D02*
G01*
X5149822Y-10957651D01*
X5165316Y-10941903D01*
X5056350Y-10941903D01*
X5165316Y-10834969D02*
G01*
X5056350Y-10887039D01*
X5165316Y-10907613D02*
G01*
X5165316Y-10834969D01*
X2940316Y-11125004D02*
G01*
X2831353Y-11125001D01*
X2940316Y-11125004D02*
G01*
X2940316Y-11088679D01*
X2935236Y-11072931D01*
X2924822Y-11062771D01*
X2914408Y-11057437D01*
X2898660Y-11052357D01*
X2872752Y-11052357D01*
X2857258Y-11057437D01*
X2846844Y-11062771D01*
X2836430Y-11072931D01*
X2831350Y-11088679D01*
X2831353Y-11125001D01*
X2919488Y-11018067D02*
G01*
X2924822Y-11007653D01*
X2940316Y-10991905D01*
X2831350Y-10991905D01*
X2940316Y-10931707D02*
G01*
X2935236Y-10947201D01*
X2924825Y-10952535D01*
X2914408Y-10952538D01*
X2903992Y-10947201D01*
X2898660Y-10937041D01*
X2893580Y-10916213D01*
X2888500Y-10900465D01*
X2878086Y-10890051D01*
X2867672Y-10884971D01*
X2851924Y-10884971D01*
X2841510Y-10890051D01*
X2836430Y-10895385D01*
X2831353Y-10910879D01*
X2831350Y-10931707D01*
X2836430Y-10947201D01*
X2841513Y-10952535D01*
X2851924Y-10957615D01*
X2867672Y-10957615D01*
X2878086Y-10952535D01*
X2888500Y-10942121D01*
X2893580Y-10926627D01*
X2898660Y-10905799D01*
X2903992Y-10895385D01*
X2914408Y-10890051D01*
X2924822Y-10890051D01*
X2935236Y-10895385D01*
X2940316Y-10910877D01*
X2940316Y-10931707D01*
X1040315Y-11125001D02*
G01*
X931349Y-11125001D01*
X1040315Y-11125001D02*
G01*
X1040315Y-11088679D01*
X1035235Y-11072931D01*
X1024821Y-11062771D01*
X1014407Y-11057437D01*
X998659Y-11052357D01*
X972751Y-11052357D01*
X957257Y-11057437D01*
X946843Y-11062771D01*
X936429Y-11072931D01*
X931349Y-11088679D01*
X931349Y-11125001D01*
X1019487Y-11018067D02*
G01*
X1024821Y-11007653D01*
X1040315Y-10991905D01*
X931349Y-10991905D01*
X1003993Y-10890051D02*
G01*
X988499Y-10895385D01*
X978085Y-10905799D01*
X972751Y-10921293D01*
X972751Y-10926627D01*
X978085Y-10942121D01*
X988499Y-10952535D01*
X1003993Y-10957615D01*
X1009073Y-10957615D01*
X1024821Y-10952535D01*
X1035235Y-10942121D01*
X1040315Y-10926627D01*
X1040315Y-10921293D01*
X1035235Y-10905799D01*
X1024821Y-10895385D01*
X1003993Y-10890051D01*
X978085Y-10890051D01*
X951923Y-10895385D01*
X936429Y-10905799D01*
X931349Y-10921293D01*
X931349Y-10931707D01*
X936429Y-10947201D01*
X946843Y-10952535D01*
X1990316Y-12975003D02*
G01*
X1881352Y-12975000D01*
X1990316Y-12975003D02*
G01*
X1990316Y-12938678D01*
X1985236Y-12922930D01*
X1974822Y-12912770D01*
X1964408Y-12907436D01*
X1948660Y-12902356D01*
X1922752Y-12902356D01*
X1907258Y-12907436D01*
X1896844Y-12912770D01*
X1886430Y-12922930D01*
X1881350Y-12938678D01*
X1881352Y-12975000D01*
X1964408Y-12862732D02*
G01*
X1969488Y-12862732D01*
X1979902Y-12857652D01*
X1985236Y-12852318D01*
X1990316Y-12841904D01*
X1990316Y-12821333D01*
X1985236Y-12810916D01*
X1979902Y-12805582D01*
X1969488Y-12800502D01*
X1959074Y-12800502D01*
X1948660Y-12805582D01*
X1933166Y-12815996D01*
X1881350Y-12868064D01*
X1881352Y-12795168D01*
X1990316Y-12729890D02*
G01*
X1985236Y-12745384D01*
X1969488Y-12755798D01*
X1943580Y-12760878D01*
X1928083Y-12760878D01*
X1901924Y-12755798D01*
X1886430Y-12745384D01*
X1881350Y-12729890D01*
X1881350Y-12719479D01*
X1886430Y-12703728D01*
X1901924Y-12693314D01*
X1928086Y-12688234D01*
X1943580Y-12688234D01*
X1969488Y-12693314D01*
X1985236Y-12703728D01*
X1990316Y-12719479D01*
X1990316Y-12729890D01*
X4840315Y-12950002D02*
G01*
X4731351Y-12949999D01*
X4840315Y-12950002D02*
G01*
X4840315Y-12913677D01*
X4835235Y-12897929D01*
X4824821Y-12887769D01*
X4814407Y-12882435D01*
X4798659Y-12877355D01*
X4772751Y-12877355D01*
X4757257Y-12882435D01*
X4746843Y-12887769D01*
X4736429Y-12897929D01*
X4731349Y-12913677D01*
X4731351Y-12949999D01*
X4814407Y-12837731D02*
G01*
X4819487Y-12837731D01*
X4829901Y-12832651D01*
X4835235Y-12827317D01*
X4840315Y-12816903D01*
X4840315Y-12796332D01*
X4835235Y-12785915D01*
X4829901Y-12780581D01*
X4819487Y-12775501D01*
X4809073Y-12775501D01*
X4798659Y-12780581D01*
X4783165Y-12790995D01*
X4731349Y-12843062D01*
X4731351Y-12770167D01*
X4819487Y-12735877D02*
G01*
X4824821Y-12725463D01*
X4840315Y-12709969D01*
X4731349Y-12709969D01*
X3809240Y-2558646D02*
G01*
X3864345Y-2613751D01*
X3871694Y-2628447D01*
X3871694Y-2643141D01*
X3864345Y-2657838D01*
X3857000Y-2665183D01*
X3842303Y-2672532D01*
X3827609Y-2672532D01*
X3812913Y-2665183D01*
X3757808Y-2610078D01*
X3748255Y-2656367D02*
G01*
X3744582Y-2652694D01*
X3733561Y-2649019D01*
X3726213Y-2649019D01*
X3715191Y-2652694D01*
X3700498Y-2667388D01*
X3696822Y-2678409D01*
X3696822Y-2685757D01*
X3700498Y-2696778D01*
X3707846Y-2704127D01*
X3718867Y-2707800D01*
X3737234Y-2711472D01*
X3810708Y-2711472D01*
X3759276Y-2762905D01*
X3621145Y-2746740D02*
G01*
X3709314Y-2761437D01*
X3654209Y-2816542D01*
X3621145Y-2746740D02*
G01*
X3698293Y-2823890D01*
X6729801Y-2650858D02*
G01*
X6725229Y-2648572D01*
X6718371Y-2641714D01*
X6718371Y-2690228D01*
X6549999Y-2484782D02*
G01*
X6549999Y-2593886D01*
X6442974Y-2500368D02*
G01*
X6453365Y-2489977D01*
X6468950Y-2484782D01*
X6489733Y-2484782D01*
X6505318Y-2489977D01*
X6515709Y-2500368D01*
X6515709Y-2510759D01*
X6510515Y-2521150D01*
X6505318Y-2526347D01*
X6494927Y-2531541D01*
X6463753Y-2541932D01*
X6453365Y-2547127D01*
X6448168Y-2552324D01*
X6442974Y-2562715D01*
X6442974Y-2578300D01*
X6453365Y-2588691D01*
X6468950Y-2593886D01*
X6489733Y-2593886D01*
X6505318Y-2588691D01*
X6515709Y-2578300D01*
X6408684Y-2484782D02*
G01*
X6408684Y-2593886D01*
X6408684Y-2484782D02*
G01*
X6361925Y-2484782D01*
X6346337Y-2489977D01*
X6341143Y-2495174D01*
X6335946Y-2505565D01*
X6335946Y-2521150D01*
X6341143Y-2531541D01*
X6346337Y-2536736D01*
X6361925Y-2541932D01*
X6408684Y-2541932D01*
X3070943Y-2465402D02*
G01*
X3070943Y-2356436D01*
X3070943Y-2465402D02*
G01*
X3117679Y-2465402D01*
X3133173Y-2460322D01*
X3138507Y-2454988D01*
X3143587Y-2444574D01*
X3143587Y-2434160D01*
X3138507Y-2423746D01*
X3133173Y-2418666D01*
X3117679Y-2413586D01*
X3070943Y-2413586D01*
X3107265Y-2413586D02*
G01*
X3143587Y-2356436D01*
X3240361Y-2465402D02*
G01*
X3188291Y-2465402D01*
X3183211Y-2418666D01*
X3188291Y-2423746D01*
X3204039Y-2429080D01*
X3219533Y-2429080D01*
X3235027Y-2423746D01*
X3245441Y-2413586D01*
X3250775Y-2397838D01*
X3250775Y-2387424D01*
X3245441Y-2371930D01*
X3235027Y-2361516D01*
X3219533Y-2356436D01*
X3204039Y-2356436D01*
X3188291Y-2361516D01*
X3183211Y-2366596D01*
X3177877Y-2377010D01*
X3335591Y-3077971D02*
G01*
X3325177Y-3072637D01*
X3314763Y-3062223D01*
X3309683Y-3052063D01*
X3309683Y-3031236D01*
X3314763Y-3020821D01*
X3325177Y-3010407D01*
X3335591Y-3005073D01*
X3351339Y-2999994D01*
X3377247Y-2999994D01*
X3392741Y-3005073D01*
X3403155Y-3010407D01*
X3413569Y-3020821D01*
X3418649Y-3031236D01*
X3418649Y-3052063D01*
X3413569Y-3062223D01*
X3403155Y-3072637D01*
X3392741Y-3077971D01*
X3335591Y-3117342D02*
G01*
X3330511Y-3117342D01*
X3320097Y-3122676D01*
X3314763Y-3127755D01*
X3309683Y-3138170D01*
X3309683Y-3158997D01*
X3314763Y-3169412D01*
X3320097Y-3174492D01*
X3330511Y-3179826D01*
X3340925Y-3179826D01*
X3351339Y-3174492D01*
X3366830Y-3164078D01*
X3418646Y-3112262D01*
X3418649Y-3184905D01*
X3309683Y-3229610D02*
G01*
X3309683Y-3286760D01*
X3351339Y-3255518D01*
X3351339Y-3271265D01*
X3356419Y-3281679D01*
X3361499Y-3286760D01*
X3377247Y-3292096D01*
X3387661Y-3292094D01*
X3403155Y-3286760D01*
X3413569Y-3276345D01*
X3418649Y-3260852D01*
X3418649Y-3245104D01*
X3413569Y-3229610D01*
X3408489Y-3224529D01*
X3398075Y-3219195D01*
X2722829Y-3468552D02*
G01*
X2712415Y-3463218D01*
X2701998Y-3452799D01*
X2696921Y-3442644D01*
X2696921Y-3421814D01*
X2702001Y-3411397D01*
X2712415Y-3400988D01*
X2722829Y-3395654D01*
X2738577Y-3390567D01*
X2764487Y-3390572D01*
X2779979Y-3395654D01*
X2790395Y-3400986D01*
X2800807Y-3411400D01*
X2805884Y-3421811D01*
X2805887Y-3442644D01*
X2800809Y-3452804D01*
X2790393Y-3463218D01*
X2779979Y-3468552D01*
X2722829Y-3507917D02*
G01*
X2717749Y-3507920D01*
X2707335Y-3513251D01*
X2702001Y-3518331D01*
X2696918Y-3528750D01*
X2696923Y-3549576D01*
X2701998Y-3559990D01*
X2707335Y-3565067D01*
X2717746Y-3570401D01*
X2728163Y-3570406D01*
X2738579Y-3565070D01*
X2754066Y-3554653D01*
X2805882Y-3502837D01*
X2805887Y-3575484D01*
X2696923Y-3661844D02*
G01*
X2769565Y-3609774D01*
X2769570Y-3687752D01*
X2696923Y-3661844D02*
G01*
X2805889Y-3661844D01*
X5256639Y-2966915D02*
G01*
X5253047Y-2955780D01*
X5253047Y-2941053D01*
X5256639Y-2930276D01*
X5271366Y-2915549D01*
X5282323Y-2911777D01*
X5297050Y-2911777D01*
X5308185Y-2915368D01*
X5322912Y-2922912D01*
X5341233Y-2941231D01*
X5348597Y-2955780D01*
X5352188Y-2966915D01*
X5352188Y-2981642D01*
X5348417Y-2992600D01*
X5333690Y-3007326D01*
X5322912Y-3010918D01*
X5308185Y-3010918D01*
X5297050Y-3007326D01*
X5177434Y-3009480D02*
G01*
X5265440Y-3024210D01*
X5210302Y-3079348D01*
X5177434Y-3009480D02*
G01*
X5254482Y-3086531D01*
X5149415Y-3074139D02*
G01*
X5145821Y-3070547D01*
X5134686Y-3066956D01*
X5127322Y-3066775D01*
X5116367Y-3070547D01*
X5101640Y-3085274D01*
X5097868Y-3096232D01*
X5098046Y-3103595D01*
X5101640Y-3114730D01*
X5109004Y-3122094D01*
X5120139Y-3125685D01*
X5138458Y-3129277D01*
X5211737Y-3129277D01*
X5160370Y-3180646D01*
X5210571Y-3427978D02*
G01*
X5200157Y-3422644D01*
X5189743Y-3412230D01*
X5184663Y-3402070D01*
X5184663Y-3381242D01*
X5189743Y-3370828D01*
X5200157Y-3360414D01*
X5210571Y-3355080D01*
X5226319Y-3350000D01*
X5252227Y-3350000D01*
X5267721Y-3355080D01*
X5278135Y-3360414D01*
X5288549Y-3370828D01*
X5293629Y-3381242D01*
X5293629Y-3402070D01*
X5288546Y-3412230D01*
X5278135Y-3422644D01*
X5267721Y-3427978D01*
X5210571Y-3467348D02*
G01*
X5205491Y-3467348D01*
X5195077Y-3472682D01*
X5189740Y-3477762D01*
X5184663Y-3488176D01*
X5184663Y-3509004D01*
X5189743Y-3519418D01*
X5195077Y-3524498D01*
X5205491Y-3529832D01*
X5215905Y-3529832D01*
X5226319Y-3524498D01*
X5241815Y-3514084D01*
X5293629Y-3462271D01*
X5293629Y-3534912D01*
X5184663Y-3631686D02*
G01*
X5184663Y-3579616D01*
X5231399Y-3574536D01*
X5226319Y-3579616D01*
X5220985Y-3595110D01*
X5220985Y-3610858D01*
X5226319Y-3626352D01*
X5236479Y-3636766D01*
X5252227Y-3642100D01*
X5262641Y-3642100D01*
X5278135Y-3636766D01*
X5288549Y-3626352D01*
X5293629Y-3610856D01*
X5293629Y-3595110D01*
X5288549Y-3579616D01*
X5283469Y-3574536D01*
X5273055Y-3569202D01*
X5125003Y-334688D02*
G01*
X5125003Y-443654D01*
X5125003Y-334688D02*
G01*
X5078267Y-334688D01*
X5062773Y-339768D01*
X5057439Y-345102D01*
X5052359Y-355516D01*
X5052359Y-365930D01*
X5057439Y-376344D01*
X5062773Y-381424D01*
X5078267Y-386504D01*
X5125003Y-386504D01*
X5088681Y-386504D02*
G01*
X5052359Y-443651D01*
X5007655Y-334688D02*
G01*
X4950503Y-334688D01*
X4981496Y-376344D01*
X4965999Y-376344D01*
X4955585Y-381424D01*
X4950503Y-386504D01*
X4945171Y-402254D01*
X4945171Y-412666D01*
X4950505Y-428160D01*
X4960919Y-438574D01*
X4976413Y-443654D01*
X4991907Y-443654D01*
X5007655Y-438574D01*
X5012735Y-433494D01*
X5018069Y-423080D01*
X3496929Y-311724D02*
G01*
X3496929Y-420690D01*
X3496929Y-311724D02*
G01*
X3450196Y-311721D01*
X3434699Y-316801D01*
X3429365Y-322135D01*
X3424288Y-332549D01*
X3424288Y-342963D01*
X3429365Y-353377D01*
X3434699Y-358457D01*
X3450196Y-363537D01*
X3496929Y-363540D01*
X3460607Y-363537D02*
G01*
X3424288Y-420684D01*
X3337925Y-311724D02*
G01*
X3389998Y-384365D01*
X3312020Y-384365D01*
X3337925Y-311724D02*
G01*
X3337928Y-420687D01*
X891920Y-12318362D02*
G01*
X880785Y-12321954D01*
X866056Y-12321954D01*
X855281Y-12318362D01*
X840552Y-12303633D01*
X836782Y-12292677D01*
X836782Y-12277951D01*
X840374Y-12266815D01*
X847918Y-12252086D01*
X866236Y-12233767D01*
X880785Y-12226404D01*
X891920Y-12222810D01*
X906647Y-12222810D01*
X917602Y-12226582D01*
X932332Y-12241311D01*
X935923Y-12252086D01*
X935923Y-12266815D01*
X932332Y-12277951D01*
X919759Y-12346200D02*
G01*
X916167Y-12349792D01*
X912573Y-12360927D01*
X912395Y-12368291D01*
X916167Y-12379246D01*
X930894Y-12393975D01*
X941849Y-12397747D01*
X949213Y-12397567D01*
X960348Y-12393975D01*
X967714Y-12386612D01*
X971306Y-12375476D01*
X974897Y-12357155D01*
X974897Y-12283876D01*
X1026264Y-12335243D01*
X1028600Y-12469769D02*
G01*
X1017463Y-12473360D01*
X1002916Y-12465997D01*
X995553Y-12458633D01*
X988189Y-12444084D01*
X991961Y-12425586D01*
X1006508Y-12403493D01*
X1024829Y-12385174D01*
X1043327Y-12374219D01*
X1058054Y-12374219D01*
X1072603Y-12381583D01*
X1076195Y-12385174D01*
X1083739Y-12399901D01*
X1083739Y-12414628D01*
X1076375Y-12429177D01*
X1072603Y-12432949D01*
X1058054Y-12440312D01*
X1043327Y-12440312D01*
X1028600Y-12432769D01*
X1025006Y-12429177D01*
X1017643Y-12414628D01*
X1017643Y-12399901D01*
X1024829Y-12385174D01*
X2289401Y-12947014D02*
G01*
X2299815Y-12952351D01*
X2310229Y-12962765D01*
X2315309Y-12972922D01*
X2315309Y-12993753D01*
X2310229Y-13004167D01*
X2299815Y-13014579D01*
X2289401Y-13019912D01*
X2273650Y-13024995D01*
X2247745Y-13024995D01*
X2232251Y-13019912D01*
X2221834Y-13014581D01*
X2211423Y-13004167D01*
X2206343Y-12993753D01*
X2206343Y-12972922D01*
X2211423Y-12962765D01*
X2221837Y-12952351D01*
X2232251Y-12947014D01*
X2289401Y-12907647D02*
G01*
X2294481Y-12907647D01*
X2304895Y-12902313D01*
X2310229Y-12897233D01*
X2315306Y-12886819D01*
X2315309Y-12865991D01*
X2310229Y-12855577D01*
X2304895Y-12850497D01*
X2294483Y-12845163D01*
X2284067Y-12845161D01*
X2273653Y-12850497D01*
X2258159Y-12860911D01*
X2206343Y-12912727D01*
X2206343Y-12840083D01*
X2315309Y-12732895D02*
G01*
X2206345Y-12784965D01*
X2315309Y-12805793D02*
G01*
X2315309Y-12732895D01*
X7389416Y-12847015D02*
G01*
X7399830Y-12852349D01*
X7410244Y-12862765D01*
X7415324Y-12872923D01*
X7415324Y-12893753D01*
X7410241Y-12904165D01*
X7399830Y-12914579D01*
X7389416Y-12919913D01*
X7373665Y-12924993D01*
X7347760Y-12924993D01*
X7332266Y-12919913D01*
X7321849Y-12914581D01*
X7311435Y-12904167D01*
X7306358Y-12893753D01*
X7306358Y-12872923D01*
X7311435Y-12862765D01*
X7321852Y-12852349D01*
X7332266Y-12847015D01*
X7389416Y-12807645D02*
G01*
X7394496Y-12807645D01*
X7404910Y-12802313D01*
X7410241Y-12797231D01*
X7415321Y-12786819D01*
X7415324Y-12765989D01*
X7410244Y-12755575D01*
X7404910Y-12750497D01*
X7394496Y-12745163D01*
X7384082Y-12745161D01*
X7373668Y-12750495D01*
X7358174Y-12760911D01*
X7306358Y-12812727D01*
X7306358Y-12740083D01*
X7415324Y-12679883D02*
G01*
X7410241Y-12695377D01*
X7399830Y-12700457D01*
X7389416Y-12700457D01*
X7379002Y-12695377D01*
X7373668Y-12684965D01*
X7368588Y-12664135D01*
X7363508Y-12648643D01*
X7353094Y-12638229D01*
X7342680Y-12632893D01*
X7326932Y-12632893D01*
X7316518Y-12638227D01*
X7311435Y-12643309D01*
X7306358Y-12659055D01*
X7306358Y-12679883D01*
X7311438Y-12695377D01*
X7316518Y-12700457D01*
X7326932Y-12705791D01*
X7342680Y-12705791D01*
X7353094Y-12700459D01*
X7363508Y-12690045D01*
X7368588Y-12674549D01*
X7373665Y-12653721D01*
X7378999Y-12643309D01*
X7389416Y-12638227D01*
X7399830Y-12638227D01*
X7410244Y-12643309D01*
X7415324Y-12659055D01*
X7415324Y-12679883D01*
X6185598Y-12552959D02*
G01*
X6175184Y-12547625D01*
X6164770Y-12537211D01*
X6159690Y-12527051D01*
X6159690Y-12506223D01*
X6164770Y-12495809D01*
X6175184Y-12485395D01*
X6185598Y-12480061D01*
X6201346Y-12474981D01*
X6227254Y-12474981D01*
X6242748Y-12480061D01*
X6253162Y-12485395D01*
X6263576Y-12495809D01*
X6268656Y-12506223D01*
X6268656Y-12527051D01*
X6263576Y-12537211D01*
X6253162Y-12547625D01*
X6242748Y-12552959D01*
X6185598Y-12592329D02*
G01*
X6180518Y-12592329D01*
X6170104Y-12597663D01*
X6164770Y-12602743D01*
X6159690Y-12613157D01*
X6159690Y-12633985D01*
X6164770Y-12644399D01*
X6170104Y-12649479D01*
X6180518Y-12654813D01*
X6190932Y-12654813D01*
X6201346Y-12649479D01*
X6216840Y-12639065D01*
X6268656Y-12587249D01*
X6268656Y-12659893D01*
X6196012Y-12761747D02*
G01*
X6211506Y-12756667D01*
X6221920Y-12746253D01*
X6227254Y-12730505D01*
X6227254Y-12725425D01*
X6221920Y-12709931D01*
X6211506Y-12699517D01*
X6196012Y-12694183D01*
X6190932Y-12694183D01*
X6175184Y-12699517D01*
X6164770Y-12709931D01*
X6159690Y-12725425D01*
X6159690Y-12730505D01*
X6164770Y-12746253D01*
X6175184Y-12756667D01*
X6196012Y-12761747D01*
X6221920Y-12761747D01*
X6248082Y-12756667D01*
X6263576Y-12746253D01*
X6268656Y-12730505D01*
X6268656Y-12720091D01*
X6263576Y-12704597D01*
X6253162Y-12699517D01*
X935586Y-7827977D02*
G01*
X925172Y-7822641D01*
X914758Y-7812227D01*
X909678Y-7802069D01*
X909678Y-7781239D01*
X914758Y-7770825D01*
X925172Y-7760413D01*
X935586Y-7755079D01*
X951336Y-7749997D01*
X977242Y-7749997D01*
X992736Y-7755079D01*
X1003152Y-7760411D01*
X1013564Y-7770825D01*
X1018644Y-7781239D01*
X1018644Y-7802069D01*
X1013564Y-7812227D01*
X1003150Y-7822641D01*
X992736Y-7827977D01*
X909678Y-7872679D02*
G01*
X909678Y-7929829D01*
X951334Y-7898587D01*
X951336Y-7914081D01*
X956414Y-7924495D01*
X961494Y-7929829D01*
X977242Y-7934909D01*
X987656Y-7934909D01*
X1003152Y-7929829D01*
X1013564Y-7919415D01*
X1018644Y-7903667D01*
X1018644Y-7888175D01*
X1013564Y-7872679D01*
X1008484Y-7867345D01*
X998067Y-7862265D01*
X909678Y-8000441D02*
G01*
X914758Y-7984947D01*
X930506Y-7974533D01*
X956414Y-7969199D01*
X971908Y-7969199D01*
X998070Y-7974533D01*
X1013564Y-7984947D01*
X1018644Y-8000441D01*
X1018644Y-8010855D01*
X1013564Y-8026349D01*
X998070Y-8036763D01*
X971908Y-8042097D01*
X956414Y-8042097D01*
X930506Y-8036763D01*
X914758Y-8026349D01*
X909678Y-8010855D01*
X909678Y-8000441D01*
X710600Y-5527984D02*
G01*
X700186Y-5522648D01*
X689772Y-5512234D01*
X684692Y-5502076D01*
X684692Y-5481246D01*
X689772Y-5470832D01*
X700186Y-5460420D01*
X710600Y-5455086D01*
X726351Y-5450004D01*
X752256Y-5450004D01*
X767750Y-5455086D01*
X778167Y-5460418D01*
X788578Y-5470832D01*
X793658Y-5481246D01*
X793658Y-5502076D01*
X788578Y-5512234D01*
X778164Y-5522648D01*
X767750Y-5527984D01*
X684692Y-5572686D02*
G01*
X684692Y-5629836D01*
X726348Y-5598594D01*
X726351Y-5614088D01*
X731428Y-5624502D01*
X736508Y-5629836D01*
X752256Y-5634916D01*
X762670Y-5634916D01*
X778167Y-5629836D01*
X788578Y-5619422D01*
X793658Y-5603674D01*
X793658Y-5588182D01*
X788578Y-5572686D01*
X783498Y-5567352D01*
X773082Y-5562272D01*
X705520Y-5669206D02*
G01*
X700186Y-5679620D01*
X684692Y-5695114D01*
X793658Y-5695114D01*
X710608Y-2127989D02*
G01*
X700194Y-2122655D01*
X689780Y-2112241D01*
X684700Y-2102081D01*
X684700Y-2081253D01*
X689780Y-2070839D01*
X700194Y-2060425D01*
X710608Y-2055091D01*
X726356Y-2050011D01*
X752264Y-2050011D01*
X767758Y-2055091D01*
X778172Y-2060425D01*
X788586Y-2070839D01*
X793666Y-2081253D01*
X793666Y-2102081D01*
X788586Y-2112241D01*
X778172Y-2122655D01*
X767758Y-2127989D01*
X684700Y-2172693D02*
G01*
X684700Y-2229843D01*
X726356Y-2198601D01*
X726356Y-2214095D01*
X731436Y-2224509D01*
X736516Y-2229843D01*
X752264Y-2234923D01*
X762678Y-2234923D01*
X778172Y-2229843D01*
X788586Y-2219429D01*
X793666Y-2203681D01*
X793666Y-2188187D01*
X788586Y-2172693D01*
X783506Y-2167359D01*
X773092Y-2162279D01*
X710608Y-2274547D02*
G01*
X705528Y-2274547D01*
X695114Y-2279627D01*
X689780Y-2284961D01*
X684700Y-2295121D01*
X684700Y-2315949D01*
X689780Y-2326363D01*
X695114Y-2331697D01*
X705528Y-2336777D01*
X715942Y-2336777D01*
X726356Y-2331697D01*
X741850Y-2321283D01*
X793666Y-2269213D01*
X793666Y-2342111D01*
X472419Y-9983993D02*
G01*
X477756Y-9973579D01*
X488170Y-9963165D01*
X498327Y-9958085D01*
X519158Y-9958085D01*
X529572Y-9963165D01*
X539983Y-9973579D01*
X545317Y-9983993D01*
X550400Y-9999743D01*
X550400Y-10025649D01*
X545317Y-10041143D01*
X539986Y-10051559D01*
X529572Y-10061971D01*
X519158Y-10067051D01*
X498327Y-10067051D01*
X488170Y-10061971D01*
X477756Y-10051557D01*
X472419Y-10041143D01*
X427718Y-9958085D02*
G01*
X370568Y-9958085D01*
X401810Y-9999741D01*
X386316Y-9999743D01*
X375902Y-10004821D01*
X370568Y-10009901D01*
X365488Y-10025649D01*
X365488Y-10036063D01*
X370568Y-10051559D01*
X380982Y-10061971D01*
X396730Y-10067051D01*
X412221Y-10067051D01*
X427718Y-10061971D01*
X433052Y-10056891D01*
X438132Y-10046474D01*
X320786Y-9958085D02*
G01*
X263634Y-9958085D01*
X294876Y-9999743D01*
X279128Y-9999743D01*
X268714Y-10004821D01*
X263634Y-10009901D01*
X258300Y-10025649D01*
X258300Y-10036063D01*
X263634Y-10051557D01*
X274048Y-10061971D01*
X289542Y-10067051D01*
X305290Y-10067051D01*
X320784Y-10061971D01*
X325864Y-10056891D01*
X331198Y-10046477D01*
X1031626Y-591931D02*
G01*
X1028034Y-580796D01*
X1028034Y-566066D01*
X1031626Y-555292D01*
X1046355Y-540562D01*
X1057310Y-536793D01*
X1072037Y-536793D01*
X1083172Y-540385D01*
X1097902Y-547928D01*
X1116220Y-566247D01*
X1123584Y-580796D01*
X1127178Y-591931D01*
X1127178Y-606658D01*
X1123406Y-617613D01*
X1108676Y-632343D01*
X1097902Y-635934D01*
X1083172Y-635934D01*
X1072037Y-632343D01*
X981697Y-605221D02*
G01*
X941285Y-645632D01*
X992832Y-652995D01*
X981877Y-663953D01*
X978105Y-674908D01*
X977925Y-682271D01*
X985469Y-696998D01*
X992832Y-704364D01*
X1007381Y-711728D01*
X1022108Y-711728D01*
X1036835Y-704184D01*
X1047790Y-693229D01*
X1055156Y-678680D01*
X1055334Y-671316D01*
X1051562Y-660359D01*
X876627Y-710290D02*
G01*
X964813Y-724839D01*
X909675Y-779978D01*
X876627Y-710290D02*
G01*
X953678Y-787341D01*
X7593820Y-752843D02*
G01*
X7604955Y-749251D01*
X7619685Y-749251D01*
X7630459Y-752843D01*
X7645189Y-767572D01*
X7648958Y-778527D01*
X7648958Y-793254D01*
X7645366Y-804390D01*
X7637823Y-819119D01*
X7619504Y-837437D01*
X7604955Y-844801D01*
X7593820Y-848395D01*
X7579093Y-848395D01*
X7568138Y-844623D01*
X7553408Y-829894D01*
X7549817Y-819119D01*
X7549817Y-804390D01*
X7553408Y-793254D01*
X7580530Y-702914D02*
G01*
X7540119Y-662503D01*
X7532756Y-714049D01*
X7521798Y-703094D01*
X7510843Y-699322D01*
X7503480Y-699142D01*
X7488753Y-706686D01*
X7481387Y-714049D01*
X7474023Y-728598D01*
X7474023Y-743325D01*
X7481567Y-758052D01*
X7492522Y-769007D01*
X7507071Y-776373D01*
X7514435Y-776551D01*
X7525392Y-772779D01*
X7468097Y-590481D02*
G01*
X7504917Y-627301D01*
X7475461Y-663940D01*
X7475461Y-656755D01*
X7468278Y-642028D01*
X7457140Y-630892D01*
X7442413Y-623707D01*
X7427866Y-623529D01*
X7412959Y-630892D01*
X7405596Y-638256D01*
X7398410Y-652983D01*
X7398410Y-667712D01*
X7405773Y-682259D01*
X7416909Y-693394D01*
X7431458Y-700758D01*
X7438641Y-700758D01*
X7449776Y-697166D01*
X8222043Y-10210599D02*
G01*
X8227380Y-10200185D01*
X8237794Y-10189771D01*
X8247951Y-10184691D01*
X8268782Y-10184691D01*
X8279196Y-10189771D01*
X8289607Y-10200185D01*
X8294941Y-10210599D01*
X8300024Y-10226349D01*
X8300024Y-10252255D01*
X8294941Y-10267749D01*
X8289610Y-10278165D01*
X8279196Y-10288577D01*
X8268782Y-10293657D01*
X8247951Y-10293657D01*
X8237794Y-10288577D01*
X8227380Y-10278163D01*
X8222043Y-10267749D01*
X8177342Y-10184691D02*
G01*
X8120192Y-10184691D01*
X8151434Y-10226347D01*
X8135940Y-10226349D01*
X8125526Y-10231427D01*
X8120192Y-10236507D01*
X8115112Y-10252255D01*
X8115112Y-10262669D01*
X8120192Y-10278165D01*
X8130606Y-10288577D01*
X8146354Y-10293657D01*
X8161845Y-10293657D01*
X8177342Y-10288577D01*
X8182676Y-10283497D01*
X8187756Y-10273080D01*
X8018335Y-10200185D02*
G01*
X8023672Y-10189771D01*
X8039166Y-10184691D01*
X8049580Y-10184691D01*
X8065074Y-10189771D01*
X8075488Y-10205519D01*
X8080822Y-10231427D01*
X8080822Y-10257335D01*
X8075488Y-10278163D01*
X8065074Y-10288577D01*
X8049580Y-10293657D01*
X8044500Y-10293657D01*
X8028752Y-10288577D01*
X8018338Y-10278165D01*
X8013258Y-10262669D01*
X8013258Y-10257335D01*
X8018338Y-10241841D01*
X8028752Y-10231427D01*
X8044500Y-10226349D01*
X8049580Y-10226347D01*
X8065074Y-10231427D01*
X8075488Y-10241841D01*
X8080822Y-10257335D01*
X7502994Y-8339406D02*
G01*
X7497658Y-8349820D01*
X7487244Y-8360234D01*
X7477086Y-8365314D01*
X7456256Y-8365314D01*
X7445842Y-8360234D01*
X7435430Y-8349820D01*
X7430096Y-8339406D01*
X7425014Y-8323656D01*
X7425014Y-8297750D01*
X7430096Y-8282256D01*
X7435428Y-8271840D01*
X7445842Y-8261428D01*
X7456256Y-8256348D01*
X7477086Y-8256348D01*
X7487244Y-8261428D01*
X7497658Y-8271842D01*
X7502994Y-8282256D01*
X7547696Y-8365314D02*
G01*
X7604846Y-8365314D01*
X7573604Y-8323658D01*
X7589098Y-8323656D01*
X7599512Y-8318578D01*
X7604846Y-8313498D01*
X7609926Y-8297750D01*
X7609926Y-8287336D01*
X7604846Y-8271840D01*
X7594432Y-8261428D01*
X7578684Y-8256348D01*
X7563192Y-8256348D01*
X7547696Y-8261428D01*
X7542362Y-8266508D01*
X7537282Y-8276925D01*
X7717114Y-8365314D02*
G01*
X7665044Y-8256351D01*
X7644216Y-8365314D02*
G01*
X7717114Y-8365314D01*
X7589405Y-5397012D02*
G01*
X7599819Y-5402348D01*
X7610233Y-5412762D01*
X7615313Y-5422920D01*
X7615313Y-5443750D01*
X7610233Y-5454164D01*
X7599819Y-5464576D01*
X7589405Y-5469910D01*
X7573655Y-5474992D01*
X7547749Y-5474992D01*
X7532255Y-5469910D01*
X7521839Y-5464578D01*
X7511427Y-5454164D01*
X7506347Y-5443750D01*
X7506347Y-5422920D01*
X7511427Y-5412762D01*
X7521841Y-5402348D01*
X7532255Y-5397012D01*
X7615313Y-5352310D02*
G01*
X7615313Y-5295160D01*
X7573657Y-5326402D01*
X7573655Y-5310908D01*
X7568577Y-5300494D01*
X7563497Y-5295160D01*
X7547749Y-5290080D01*
X7537335Y-5290080D01*
X7521839Y-5295160D01*
X7511427Y-5305574D01*
X7506347Y-5321322D01*
X7506347Y-5336814D01*
X7511427Y-5352310D01*
X7516507Y-5357644D01*
X7526924Y-5362724D01*
X7615313Y-5229882D02*
G01*
X7610233Y-5245376D01*
X7599819Y-5250456D01*
X7589405Y-5250456D01*
X7578991Y-5245376D01*
X7573657Y-5234962D01*
X7568577Y-5214134D01*
X7563497Y-5198640D01*
X7553083Y-5188226D01*
X7542669Y-5182892D01*
X7526921Y-5182892D01*
X7516507Y-5188226D01*
X7511427Y-5193306D01*
X7506347Y-5209054D01*
X7506347Y-5229882D01*
X7511427Y-5245376D01*
X7516507Y-5250456D01*
X7526921Y-5255790D01*
X7542669Y-5255790D01*
X7553083Y-5250456D01*
X7563497Y-5240042D01*
X7568577Y-5224548D01*
X7573655Y-5203720D01*
X7578991Y-5193306D01*
X7589405Y-5188226D01*
X7599819Y-5188226D01*
X7610233Y-5193306D01*
X7615313Y-5209054D01*
X7615313Y-5229882D01*
X7760594Y-3027984D02*
G01*
X7750180Y-3022648D01*
X7739766Y-3012234D01*
X7734686Y-3002076D01*
X7734686Y-2981246D01*
X7739766Y-2970832D01*
X7750180Y-2960420D01*
X7760594Y-2955086D01*
X7776344Y-2950004D01*
X7802250Y-2950004D01*
X7817744Y-2955086D01*
X7828160Y-2960418D01*
X7838572Y-2970832D01*
X7843652Y-2981246D01*
X7843652Y-3002076D01*
X7838572Y-3012234D01*
X7828158Y-3022648D01*
X7817744Y-3027984D01*
X7734686Y-3072686D02*
G01*
X7734686Y-3129836D01*
X7776342Y-3098594D01*
X7776344Y-3114088D01*
X7781422Y-3124502D01*
X7786502Y-3129836D01*
X7802250Y-3134916D01*
X7812664Y-3134916D01*
X7828160Y-3129836D01*
X7838572Y-3119422D01*
X7843652Y-3103674D01*
X7843652Y-3088182D01*
X7838572Y-3072686D01*
X7833492Y-3067352D01*
X7823075Y-3062272D01*
X7771008Y-3236770D02*
G01*
X7786502Y-3231690D01*
X7796916Y-3221276D01*
X7802250Y-3205528D01*
X7802250Y-3200448D01*
X7796916Y-3184954D01*
X7786502Y-3174540D01*
X7771008Y-3169206D01*
X7765928Y-3169206D01*
X7750180Y-3174540D01*
X7739766Y-3184954D01*
X7734686Y-3200448D01*
X7734686Y-3205528D01*
X7739766Y-3221276D01*
X7750180Y-3231692D01*
X7771008Y-3236770D01*
X7796916Y-3236770D01*
X7823075Y-3231690D01*
X7838572Y-3221276D01*
X7843652Y-3205528D01*
X7843652Y-3195114D01*
X7838572Y-3179620D01*
X7828158Y-3174540D01*
X2897012Y-960600D02*
G01*
X2902348Y-950186D01*
X2912762Y-939772D01*
X2922920Y-934692D01*
X2943750Y-934692D01*
X2954164Y-939772D01*
X2964576Y-950186D01*
X2969910Y-960600D01*
X2974992Y-976350D01*
X2974992Y-1002256D01*
X2969910Y-1017750D01*
X2964578Y-1028166D01*
X2954164Y-1038578D01*
X2943750Y-1043658D01*
X2922920Y-1043658D01*
X2912762Y-1038578D01*
X2902348Y-1028164D01*
X2897012Y-1017750D01*
X2810908Y-934692D02*
G01*
X2862724Y-1007336D01*
X2784746Y-1007336D01*
X2810908Y-934692D02*
G01*
X2810908Y-1043658D01*
X2719468Y-934692D02*
G01*
X2734962Y-939772D01*
X2745376Y-955520D01*
X2750456Y-981428D01*
X2750456Y-996922D01*
X2745376Y-1023084D01*
X2734962Y-1038578D01*
X2719468Y-1043658D01*
X2709054Y-1043658D01*
X2693306Y-1038578D01*
X2682892Y-1023084D01*
X2677812Y-996922D01*
X2677812Y-981428D01*
X2682892Y-955520D01*
X2693306Y-939772D01*
X2709054Y-934692D01*
X2719468Y-934692D01*
X5797021Y-660582D02*
G01*
X5802355Y-650168D01*
X5812769Y-639754D01*
X5822929Y-634674D01*
X5843757Y-634674D01*
X5854171Y-639754D01*
X5864585Y-650168D01*
X5869919Y-660582D01*
X5874999Y-676330D01*
X5874999Y-702238D01*
X5869919Y-717732D01*
X5864585Y-728146D01*
X5854171Y-738560D01*
X5843757Y-743640D01*
X5822929Y-743640D01*
X5812769Y-738560D01*
X5802355Y-728146D01*
X5797021Y-717732D01*
X5710915Y-634674D02*
G01*
X5762731Y-707318D01*
X5684753Y-707318D01*
X5710915Y-634674D02*
G01*
X5710915Y-743640D01*
X5650463Y-655502D02*
G01*
X5640049Y-650168D01*
X5624555Y-634674D01*
X5624555Y-743640D01*
X5097884Y-2477757D02*
G01*
X5109019Y-2474165D01*
X5123748Y-2474165D01*
X5134523Y-2477757D01*
X5149253Y-2492486D01*
X5153022Y-2503441D01*
X5153022Y-2518168D01*
X5149430Y-2529304D01*
X5141887Y-2544033D01*
X5123568Y-2562352D01*
X5109019Y-2569715D01*
X5097884Y-2573309D01*
X5083157Y-2573309D01*
X5072202Y-2569537D01*
X5057472Y-2554808D01*
X5053881Y-2544033D01*
X5053881Y-2529304D01*
X5057472Y-2518168D01*
X5077231Y-2449918D02*
G01*
X5073637Y-2438783D01*
X5073637Y-2416873D01*
X4996586Y-2493921D01*
X3534671Y-3424984D02*
G01*
X3643637Y-3497628D01*
X3534671Y-3497628D02*
G01*
X3643637Y-3424984D01*
X3560579Y-3537252D02*
G01*
X3555499Y-3537252D01*
X3545085Y-3542332D01*
X3539751Y-3547666D01*
X3534671Y-3558080D01*
X3534671Y-3578654D01*
X3539751Y-3589068D01*
X3545085Y-3594402D01*
X3555499Y-3599482D01*
X3565913Y-3599482D01*
X3576327Y-3594402D01*
X3591821Y-3583988D01*
X3643637Y-3531918D01*
X3643637Y-3604816D01*
X7734686Y-10950003D02*
G01*
X7843652Y-10950003D01*
X7734686Y-10950003D02*
G01*
X7734686Y-10996739D01*
X7739766Y-11012233D01*
X7745100Y-11017567D01*
X7755514Y-11022647D01*
X7765928Y-11022647D01*
X7776344Y-11017567D01*
X7781422Y-11012233D01*
X7786502Y-10996739D01*
X7786502Y-10950003D01*
X7786502Y-10986328D02*
G01*
X7843652Y-11022647D01*
X7760594Y-11062274D02*
G01*
X7755511Y-11062271D01*
X7745100Y-11067351D01*
X7739766Y-11072685D01*
X7734686Y-11083096D01*
X7734686Y-11103673D01*
X7739766Y-11114087D01*
X7745100Y-11119421D01*
X7755514Y-11124501D01*
X7765928Y-11124501D01*
X7776344Y-11119421D01*
X7791836Y-11109007D01*
X7843652Y-11056937D01*
X7843652Y-11129835D01*
X900010Y-1259690D02*
G01*
X900010Y-1368656D01*
X900010Y-1259690D02*
G01*
X853274Y-1259690D01*
X837780Y-1264770D01*
X832446Y-1270104D01*
X827366Y-1280518D01*
X827366Y-1290932D01*
X832446Y-1301348D01*
X837780Y-1306426D01*
X853274Y-1311506D01*
X900010Y-1311506D01*
X863686Y-1311506D02*
G01*
X827366Y-1368656D01*
X793076Y-1280518D02*
G01*
X782662Y-1275184D01*
X766917Y-1259690D01*
X766917Y-1368656D01*
X2089414Y-1222103D02*
G01*
X2099828Y-1227188D01*
X2110242Y-1237599D01*
X2115322Y-1248011D01*
X2115322Y-1268841D01*
X2110242Y-1279255D01*
X2099828Y-1289667D01*
X2089414Y-1294752D01*
X2073663Y-1300083D01*
X2047758Y-1300083D01*
X2032264Y-1294752D01*
X2021847Y-1289669D01*
X2011436Y-1279255D01*
X2006356Y-1268841D01*
X2006356Y-1248011D01*
X2011436Y-1237599D01*
X2021847Y-1227185D01*
X2032264Y-1222103D01*
X2089411Y-1182481D02*
G01*
X2094496Y-1182481D01*
X2104908Y-1177401D01*
X2110242Y-1172067D01*
X2115319Y-1161907D01*
X2115322Y-1141079D01*
X2110242Y-1130665D01*
X2104908Y-1125331D01*
X2094496Y-1120251D01*
X2084080Y-1120249D01*
X2073663Y-1125331D01*
X2058172Y-1135745D01*
X2006356Y-1187815D01*
X2006356Y-1114917D01*
X4016009Y-1172420D02*
G01*
X4026423Y-1177754D01*
X4036837Y-1188168D01*
X4041917Y-1198328D01*
X4041917Y-1219156D01*
X4036837Y-1229570D01*
X4026423Y-1239984D01*
X4016009Y-1245318D01*
X4000261Y-1250398D01*
X3974353Y-1250398D01*
X3958859Y-1245318D01*
X3948445Y-1239984D01*
X3938031Y-1229570D01*
X3932951Y-1219156D01*
X3932951Y-1198328D01*
X3938031Y-1188168D01*
X3948445Y-1177754D01*
X3958859Y-1172420D01*
X4041917Y-1127716D02*
G01*
X4041917Y-1070566D01*
X4000261Y-1101808D01*
X4000261Y-1086314D01*
X3995181Y-1075900D01*
X3990101Y-1070566D01*
X3974353Y-1065486D01*
X3963939Y-1065486D01*
X3948445Y-1070566D01*
X3938031Y-1080980D01*
X3932951Y-1096728D01*
X3932951Y-1112222D01*
X3938031Y-1127716D01*
X3943111Y-1133050D01*
X3953525Y-1138130D01*
X5891009Y-1172420D02*
G01*
X5901423Y-1177754D01*
X5911837Y-1188168D01*
X5916917Y-1198328D01*
X5916917Y-1219156D01*
X5911837Y-1229570D01*
X5901423Y-1239984D01*
X5891009Y-1245318D01*
X5875261Y-1250398D01*
X5849353Y-1250398D01*
X5833859Y-1245318D01*
X5823445Y-1239984D01*
X5813031Y-1229570D01*
X5807951Y-1219156D01*
X5807951Y-1198328D01*
X5813031Y-1188168D01*
X5823445Y-1177754D01*
X5833859Y-1172420D01*
X5916917Y-1086314D02*
G01*
X5844273Y-1138130D01*
X5844273Y-1060152D01*
X5916917Y-1086314D02*
G01*
X5807951Y-1086314D01*
X7814431Y-1247030D02*
G01*
X7824845Y-1252364D01*
X7835259Y-1262778D01*
X7840339Y-1272938D01*
X7840339Y-1293766D01*
X7835259Y-1304180D01*
X7824845Y-1314594D01*
X7814431Y-1319928D01*
X7798683Y-1325008D01*
X7772775Y-1325008D01*
X7757281Y-1319928D01*
X7746867Y-1314594D01*
X7736453Y-1304180D01*
X7731373Y-1293766D01*
X7731373Y-1272938D01*
X7736453Y-1262778D01*
X7746867Y-1252364D01*
X7757281Y-1247030D01*
X7840339Y-1150510D02*
G01*
X7840339Y-1202326D01*
X7793603Y-1207660D01*
X7798683Y-1202326D01*
X7804017Y-1186832D01*
X7804017Y-1171338D01*
X7798683Y-1155590D01*
X7788523Y-1145176D01*
X7772775Y-1140096D01*
X7762361Y-1140096D01*
X7746867Y-1145176D01*
X7736453Y-1155590D01*
X7731373Y-1171338D01*
X7731373Y-1186832D01*
X7736453Y-1202326D01*
X7741533Y-1207660D01*
X7751947Y-1212740D01*
X2089414Y-4097050D02*
G01*
X2099828Y-4102384D01*
X2110242Y-4112798D01*
X2115322Y-4122958D01*
X2115322Y-4143786D01*
X2110242Y-4154200D01*
X2099828Y-4164614D01*
X2089414Y-4169948D01*
X2073666Y-4175028D01*
X2047758Y-4175028D01*
X2032264Y-4169948D01*
X2021850Y-4164614D01*
X2011436Y-4154200D01*
X2006356Y-4143786D01*
X2006356Y-4122958D01*
X2011436Y-4112798D01*
X2021850Y-4102384D01*
X2032264Y-4097050D01*
X2099828Y-4000530D02*
G01*
X2110242Y-4005610D01*
X2115322Y-4021358D01*
X2115322Y-4031518D01*
X2110242Y-4047266D01*
X2094494Y-4057680D01*
X2068586Y-4062760D01*
X2042678Y-4062760D01*
X2021850Y-4057680D01*
X2011436Y-4047266D01*
X2006356Y-4031518D01*
X2006356Y-4026438D01*
X2011436Y-4010944D01*
X2021850Y-4000530D01*
X2037344Y-3995196D01*
X2042678Y-3995196D01*
X2058172Y-4000530D01*
X2068586Y-4010944D01*
X2073666Y-4026438D01*
X2073666Y-4031518D01*
X2068586Y-4047266D01*
X2058172Y-4057680D01*
X2042678Y-4062760D01*
X2089414Y-5972002D02*
G01*
X2099828Y-5977336D01*
X2110242Y-5987750D01*
X2115322Y-5997910D01*
X2115322Y-6018738D01*
X2110242Y-6029152D01*
X2099828Y-6039566D01*
X2089414Y-6044900D01*
X2073666Y-6049980D01*
X2047758Y-6049980D01*
X2032264Y-6044900D01*
X2021850Y-6039566D01*
X2011436Y-6029152D01*
X2006356Y-6018738D01*
X2006356Y-5997910D01*
X2011436Y-5987750D01*
X2021850Y-5977336D01*
X2032264Y-5972002D01*
X2115322Y-5865068D02*
G01*
X2006356Y-5916884D01*
X2115322Y-5937712D02*
G01*
X2115322Y-5865068D01*
X2114392Y-7872006D02*
G01*
X2124806Y-7877340D01*
X2135220Y-7887754D01*
X2140300Y-7897914D01*
X2140300Y-7918742D01*
X2135220Y-7929156D01*
X2124806Y-7939570D01*
X2114392Y-7944904D01*
X2098644Y-7949984D01*
X2072736Y-7949984D01*
X2057242Y-7944904D01*
X2046828Y-7939570D01*
X2036414Y-7929156D01*
X2031334Y-7918742D01*
X2031334Y-7897914D01*
X2036414Y-7887754D01*
X2046828Y-7877340D01*
X2057242Y-7872006D01*
X2140300Y-7811808D02*
G01*
X2135220Y-7827302D01*
X2124806Y-7832636D01*
X2114392Y-7832636D01*
X2103978Y-7827302D01*
X2098644Y-7816888D01*
X2093564Y-7796314D01*
X2088484Y-7780566D01*
X2078070Y-7770152D01*
X2067656Y-7765072D01*
X2051908Y-7765072D01*
X2041494Y-7770152D01*
X2036414Y-7775486D01*
X2031334Y-7790980D01*
X2031334Y-7811808D01*
X2036414Y-7827302D01*
X2041494Y-7832636D01*
X2051908Y-7837716D01*
X2067656Y-7837716D01*
X2078070Y-7832636D01*
X2088484Y-7822222D01*
X2093564Y-7806474D01*
X2098644Y-7785900D01*
X2103978Y-7775486D01*
X2114392Y-7770152D01*
X2124806Y-7770152D01*
X2135220Y-7775486D01*
X2140300Y-7790980D01*
X2140300Y-7811808D01*
X2114392Y-9797008D02*
G01*
X2124806Y-9802342D01*
X2135220Y-9812756D01*
X2140300Y-9822916D01*
X2140300Y-9843744D01*
X2135220Y-9854158D01*
X2124806Y-9864572D01*
X2114392Y-9869906D01*
X2098644Y-9874986D01*
X2072736Y-9874986D01*
X2057242Y-9869906D01*
X2046828Y-9864572D01*
X2036414Y-9854158D01*
X2031334Y-9843744D01*
X2031334Y-9822916D01*
X2036414Y-9812756D01*
X2046828Y-9802342D01*
X2057242Y-9797008D01*
X2103978Y-9695154D02*
G01*
X2088484Y-9700488D01*
X2078070Y-9710902D01*
X2072736Y-9726396D01*
X2072736Y-9731476D01*
X2078070Y-9747224D01*
X2088484Y-9757638D01*
X2103978Y-9762718D01*
X2109058Y-9762718D01*
X2124806Y-9757638D01*
X2135220Y-9747224D01*
X2140300Y-9731476D01*
X2140300Y-9726396D01*
X2135220Y-9710902D01*
X2124806Y-9700488D01*
X2103978Y-9695154D01*
X2078070Y-9695154D01*
X2051908Y-9700488D01*
X2036414Y-9710902D01*
X2031334Y-9726396D01*
X2031334Y-9736810D01*
X2036414Y-9752304D01*
X2046828Y-9757638D01*
X3089386Y-11722013D02*
G01*
X3099800Y-11727347D01*
X3110214Y-11737761D01*
X3115294Y-11747921D01*
X3115294Y-11768749D01*
X3110214Y-11779163D01*
X3099800Y-11789577D01*
X3089386Y-11794911D01*
X3073638Y-11799991D01*
X3047730Y-11799991D01*
X3032236Y-11794911D01*
X3021822Y-11789577D01*
X3011408Y-11779163D01*
X3006328Y-11768749D01*
X3006328Y-11747921D01*
X3011408Y-11737761D01*
X3021822Y-11727347D01*
X3032236Y-11722013D01*
X3094466Y-11687723D02*
G01*
X3099800Y-11677309D01*
X3115294Y-11661815D01*
X3006328Y-11661815D01*
X3115294Y-11596283D02*
G01*
X3110214Y-11612031D01*
X3094466Y-11622191D01*
X3068558Y-11627525D01*
X3053064Y-11627525D01*
X3026902Y-11622191D01*
X3011408Y-11612031D01*
X3006328Y-11596283D01*
X3006328Y-11585869D01*
X3011408Y-11570375D01*
X3026902Y-11559961D01*
X3053064Y-11554881D01*
X3068558Y-11554881D01*
X3094466Y-11559961D01*
X3110214Y-11570375D01*
X3115294Y-11585869D01*
X3115294Y-11596283D01*
X4014424Y-9797034D02*
G01*
X4024838Y-9802368D01*
X4035252Y-9812781D01*
X4040332Y-9822942D01*
X4040332Y-9843770D01*
X4035252Y-9854184D01*
X4024838Y-9864597D01*
X4014424Y-9869931D01*
X3998676Y-9875012D01*
X3972768Y-9875012D01*
X3957274Y-9869931D01*
X3946860Y-9864597D01*
X3936446Y-9854184D01*
X3931366Y-9843770D01*
X3931366Y-9822942D01*
X3936446Y-9812781D01*
X3946860Y-9802368D01*
X3957274Y-9797034D01*
X4019504Y-9762744D02*
G01*
X4024838Y-9752329D01*
X4040332Y-9736836D01*
X3931366Y-9736836D01*
X4019504Y-9702545D02*
G01*
X4024838Y-9692131D01*
X4040332Y-9676637D01*
X3931366Y-9676637D01*
X3989415Y-7897032D02*
G01*
X3999829Y-7902366D01*
X4010243Y-7912780D01*
X4015323Y-7922940D01*
X4015323Y-7943768D01*
X4010243Y-7954182D01*
X3999829Y-7964596D01*
X3989415Y-7969930D01*
X3973667Y-7975010D01*
X3947759Y-7975010D01*
X3932265Y-7969930D01*
X3921851Y-7964596D01*
X3911437Y-7954182D01*
X3906357Y-7943768D01*
X3906357Y-7922940D01*
X3911437Y-7912780D01*
X3921851Y-7902366D01*
X3932265Y-7897032D01*
X3994495Y-7862742D02*
G01*
X3999829Y-7852328D01*
X4015323Y-7836834D01*
X3906357Y-7836834D01*
X3989415Y-7797210D02*
G01*
X3994495Y-7797210D01*
X4004909Y-7792130D01*
X4010243Y-7787050D01*
X4015323Y-7776636D01*
X4015323Y-7755808D01*
X4010243Y-7745394D01*
X4004909Y-7740060D01*
X3994495Y-7734980D01*
X3984081Y-7734980D01*
X3973667Y-7740060D01*
X3958173Y-7750474D01*
X3906357Y-7802544D01*
X3906357Y-7729900D01*
X4039397Y-6022027D02*
G01*
X4049811Y-6027361D01*
X4060225Y-6037775D01*
X4065305Y-6047935D01*
X4065305Y-6068763D01*
X4060225Y-6079177D01*
X4049811Y-6089591D01*
X4039397Y-6094925D01*
X4023649Y-6100005D01*
X3997741Y-6100005D01*
X3982247Y-6094925D01*
X3971833Y-6089591D01*
X3961419Y-6079177D01*
X3956339Y-6068763D01*
X3956339Y-6047935D01*
X3961419Y-6037775D01*
X3971833Y-6027361D01*
X3982247Y-6022027D01*
X4044477Y-5987737D02*
G01*
X4049811Y-5977323D01*
X4065305Y-5961829D01*
X3956339Y-5961829D01*
X4065305Y-5917125D02*
G01*
X4065305Y-5859975D01*
X4023649Y-5891217D01*
X4023649Y-5875469D01*
X4018569Y-5865055D01*
X4013489Y-5859975D01*
X3997741Y-5854895D01*
X3987327Y-5854895D01*
X3971833Y-5859975D01*
X3961419Y-5870389D01*
X3956339Y-5885883D01*
X3956339Y-5901631D01*
X3961419Y-5917125D01*
X3966499Y-5922205D01*
X3976913Y-5927539D01*
X4322038Y-4060581D02*
G01*
X4327372Y-4050167D01*
X4337786Y-4039753D01*
X4347946Y-4034673D01*
X4368774Y-4034673D01*
X4379188Y-4039753D01*
X4389602Y-4050167D01*
X4394936Y-4060581D01*
X4400016Y-4076329D01*
X4400016Y-4102237D01*
X4394936Y-4117731D01*
X4389602Y-4128145D01*
X4379188Y-4138559D01*
X4368774Y-4143639D01*
X4347946Y-4143639D01*
X4337786Y-4138559D01*
X4327372Y-4128145D01*
X4322038Y-4117731D01*
X4287748Y-4055501D02*
G01*
X4277334Y-4050167D01*
X4261840Y-4034673D01*
X4261840Y-4143639D01*
X4175480Y-4034673D02*
G01*
X4227550Y-4107317D01*
X4149572Y-4107317D01*
X4175480Y-4034673D02*
G01*
X4175480Y-4143639D01*
X5889396Y-4097025D02*
G01*
X5899810Y-4102359D01*
X5910224Y-4112773D01*
X5915304Y-4122933D01*
X5915304Y-4143761D01*
X5910224Y-4154175D01*
X5899810Y-4164589D01*
X5889396Y-4169923D01*
X5873648Y-4175003D01*
X5847740Y-4175003D01*
X5832246Y-4169923D01*
X5821832Y-4164589D01*
X5811418Y-4154175D01*
X5806338Y-4143761D01*
X5806338Y-4122933D01*
X5811418Y-4112773D01*
X5821832Y-4102359D01*
X5832246Y-4097025D01*
X5894476Y-4062735D02*
G01*
X5899810Y-4052321D01*
X5915304Y-4036827D01*
X5806338Y-4036827D01*
X5915304Y-3940053D02*
G01*
X5915304Y-3992123D01*
X5868568Y-3997203D01*
X5873648Y-3992123D01*
X5878982Y-3976629D01*
X5878982Y-3960881D01*
X5873648Y-3945387D01*
X5863488Y-3934973D01*
X5847740Y-3929893D01*
X5837326Y-3929893D01*
X5821832Y-3934973D01*
X5811418Y-3945387D01*
X5806338Y-3960881D01*
X5806338Y-3976629D01*
X5811418Y-3992123D01*
X5816498Y-3997203D01*
X5826912Y-4002537D01*
X5941009Y-5922421D02*
G01*
X5951423Y-5927755D01*
X5961837Y-5938169D01*
X5966917Y-5948329D01*
X5966917Y-5969157D01*
X5961837Y-5979571D01*
X5951423Y-5989985D01*
X5941009Y-5995319D01*
X5925261Y-6000399D01*
X5899353Y-6000399D01*
X5883859Y-5995319D01*
X5873445Y-5989985D01*
X5863031Y-5979571D01*
X5857951Y-5969157D01*
X5857951Y-5948329D01*
X5863031Y-5938169D01*
X5873445Y-5927755D01*
X5883859Y-5922421D01*
X5946089Y-5888131D02*
G01*
X5951423Y-5877717D01*
X5966917Y-5862223D01*
X5857951Y-5862223D01*
X5951423Y-5765449D02*
G01*
X5961837Y-5770783D01*
X5966917Y-5786277D01*
X5966917Y-5796691D01*
X5961837Y-5812439D01*
X5946089Y-5822599D01*
X5920181Y-5827933D01*
X5894273Y-5827933D01*
X5873445Y-5822599D01*
X5863031Y-5812439D01*
X5857951Y-5796691D01*
X5857951Y-5791611D01*
X5863031Y-5775863D01*
X5873445Y-5765449D01*
X5888939Y-5760369D01*
X5894273Y-5760369D01*
X5909767Y-5765449D01*
X5920181Y-5775863D01*
X5925261Y-5791611D01*
X5925261Y-5796691D01*
X5920181Y-5812439D01*
X5909767Y-5822599D01*
X5894273Y-5827933D01*
X5914425Y-7922031D02*
G01*
X5924839Y-7927365D01*
X5935253Y-7937779D01*
X5940333Y-7947939D01*
X5940333Y-7968767D01*
X5935253Y-7979181D01*
X5924839Y-7989595D01*
X5914425Y-7994929D01*
X5898677Y-8000009D01*
X5872769Y-8000009D01*
X5857275Y-7994929D01*
X5846861Y-7989595D01*
X5836447Y-7979181D01*
X5831367Y-7968767D01*
X5831367Y-7947939D01*
X5836447Y-7937779D01*
X5846861Y-7927365D01*
X5857275Y-7922031D01*
X5919505Y-7887741D02*
G01*
X5924839Y-7877327D01*
X5940333Y-7861833D01*
X5831367Y-7861833D01*
X5940333Y-7754899D02*
G01*
X5831367Y-7806715D01*
X5940333Y-7827543D02*
G01*
X5940333Y-7754899D01*
X5889421Y-9822007D02*
G01*
X5899835Y-9827343D01*
X5910249Y-9837757D01*
X5915329Y-9847915D01*
X5915329Y-9868745D01*
X5910249Y-9879159D01*
X5899835Y-9889571D01*
X5889421Y-9894905D01*
X5873671Y-9899987D01*
X5847765Y-9899987D01*
X5832271Y-9894905D01*
X5821855Y-9889573D01*
X5811443Y-9879159D01*
X5806363Y-9868745D01*
X5806363Y-9847915D01*
X5811443Y-9837757D01*
X5821857Y-9827343D01*
X5832271Y-9822007D01*
X5894504Y-9787719D02*
G01*
X5899835Y-9777305D01*
X5915327Y-9761811D01*
X5806363Y-9761809D01*
X5915329Y-9701613D02*
G01*
X5910249Y-9717107D01*
X5899835Y-9722187D01*
X5889421Y-9722187D01*
X5879007Y-9717107D01*
X5873673Y-9706693D01*
X5868593Y-9685865D01*
X5863513Y-9670374D01*
X5853099Y-9659957D01*
X5842685Y-9654877D01*
X5826937Y-9654877D01*
X5816523Y-9659957D01*
X5811443Y-9665037D01*
X5806363Y-9680785D01*
X5806363Y-9701613D01*
X5811443Y-9717107D01*
X5816523Y-9722187D01*
X5826937Y-9727521D01*
X5842685Y-9727521D01*
X5853099Y-9722187D01*
X5863513Y-9712027D01*
X5868593Y-9696279D01*
X5873673Y-9675451D01*
X5879007Y-9665037D01*
X5889421Y-9659957D01*
X5899835Y-9659957D01*
X5910249Y-9665037D01*
X5915329Y-9680785D01*
X5915329Y-9701613D01*
X5889421Y-11722013D02*
G01*
X5899835Y-11727347D01*
X5910249Y-11737761D01*
X5915329Y-11747921D01*
X5915329Y-11768749D01*
X5910249Y-11779163D01*
X5899835Y-11789577D01*
X5889421Y-11794911D01*
X5873673Y-11799991D01*
X5847765Y-11799991D01*
X5832271Y-11794911D01*
X5821857Y-11789577D01*
X5811443Y-11779163D01*
X5806363Y-11768749D01*
X5806363Y-11747921D01*
X5811443Y-11737761D01*
X5821857Y-11727347D01*
X5832271Y-11722013D01*
X5894501Y-11687723D02*
G01*
X5899835Y-11677309D01*
X5915329Y-11661815D01*
X5806363Y-11661815D01*
X5879007Y-11559961D02*
G01*
X5863513Y-11565041D01*
X5853099Y-11575455D01*
X5847765Y-11591203D01*
X5847765Y-11596283D01*
X5853099Y-11612031D01*
X5863513Y-11622191D01*
X5879007Y-11627525D01*
X5884087Y-11627525D01*
X5899835Y-11622191D01*
X5910249Y-11612031D01*
X5915329Y-11596283D01*
X5915329Y-11591203D01*
X5910249Y-11575455D01*
X5899835Y-11565041D01*
X5879007Y-11559961D01*
X5853099Y-11559961D01*
X5826937Y-11565041D01*
X5811443Y-11575455D01*
X5806363Y-11591203D01*
X5806363Y-11601617D01*
X5811443Y-11617111D01*
X5821857Y-11622191D01*
X6510578Y-10352958D02*
G01*
X6500164Y-10347622D01*
X6489750Y-10337208D01*
X6484670Y-10327050D01*
X6484670Y-10306220D01*
X6489750Y-10295806D01*
X6500164Y-10285394D01*
X6510578Y-10280060D01*
X6526329Y-10274978D01*
X6552234Y-10274978D01*
X6567728Y-10280060D01*
X6578145Y-10285392D01*
X6588556Y-10295806D01*
X6593636Y-10306220D01*
X6593636Y-10327050D01*
X6588556Y-10337208D01*
X6578142Y-10347622D01*
X6567728Y-10352958D01*
X6510578Y-10392326D02*
G01*
X6505498Y-10392326D01*
X6495084Y-10397660D01*
X6489750Y-10402740D01*
X6484673Y-10413154D01*
X6484670Y-10433982D01*
X6489750Y-10444396D01*
X6495084Y-10449476D01*
X6505496Y-10454810D01*
X6515912Y-10454812D01*
X6526326Y-10449476D01*
X6541820Y-10439062D01*
X6593636Y-10387246D01*
X6593636Y-10459890D01*
X6484670Y-10525422D02*
G01*
X6489750Y-10509928D01*
X6505498Y-10499514D01*
X6531406Y-10494180D01*
X6546900Y-10494180D01*
X6573062Y-10499514D01*
X6588556Y-10509928D01*
X6593636Y-10525422D01*
X6593636Y-10535836D01*
X6588556Y-10551330D01*
X6573062Y-10561744D01*
X6546900Y-10567078D01*
X6531406Y-10567078D01*
X6505498Y-10561744D01*
X6489750Y-10551330D01*
X6484670Y-10535836D01*
X6484670Y-10525422D01*
X6797027Y-6485580D02*
G01*
X6802363Y-6475166D01*
X6812777Y-6464752D01*
X6822935Y-6459672D01*
X6843765Y-6459672D01*
X6854179Y-6464752D01*
X6864591Y-6475166D01*
X6869925Y-6485580D01*
X6875007Y-6501330D01*
X6875007Y-6527236D01*
X6869925Y-6542730D01*
X6864593Y-6553146D01*
X6854179Y-6563558D01*
X6843765Y-6568638D01*
X6822935Y-6568638D01*
X6812777Y-6563558D01*
X6802363Y-6553144D01*
X6797027Y-6542730D01*
X6757659Y-6485580D02*
G01*
X6757659Y-6480500D01*
X6752325Y-6470086D01*
X6747245Y-6464752D01*
X6736831Y-6459674D01*
X6716003Y-6459672D01*
X6705589Y-6464752D01*
X6700509Y-6470086D01*
X6695175Y-6480497D01*
X6695173Y-6490914D01*
X6700509Y-6501328D01*
X6710923Y-6516822D01*
X6762739Y-6568638D01*
X6690095Y-6568638D01*
X6655805Y-6480500D02*
G01*
X6645391Y-6475166D01*
X6629897Y-6459672D01*
X6629897Y-6568638D01*
X7789397Y-4122049D02*
G01*
X7799811Y-4127383D01*
X7810225Y-4137797D01*
X7815305Y-4147957D01*
X7815305Y-4168785D01*
X7810225Y-4179199D01*
X7799811Y-4189613D01*
X7789397Y-4194947D01*
X7773649Y-4200027D01*
X7747741Y-4200027D01*
X7732247Y-4194947D01*
X7721833Y-4189613D01*
X7711419Y-4179199D01*
X7706339Y-4168785D01*
X7706339Y-4147957D01*
X7711419Y-4137797D01*
X7721833Y-4127383D01*
X7732247Y-4122049D01*
X7789397Y-4082679D02*
G01*
X7794477Y-4082679D01*
X7804891Y-4077345D01*
X7810225Y-4072265D01*
X7815305Y-4061851D01*
X7815305Y-4041023D01*
X7810225Y-4030609D01*
X7804891Y-4025529D01*
X7794477Y-4020195D01*
X7784063Y-4020195D01*
X7773649Y-4025529D01*
X7758155Y-4035943D01*
X7706339Y-4087759D01*
X7706339Y-4015115D01*
X7789397Y-3975491D02*
G01*
X7794477Y-3975491D01*
X7804891Y-3970411D01*
X7810225Y-3965077D01*
X7815305Y-3954917D01*
X7815305Y-3934089D01*
X7810225Y-3923675D01*
X7804891Y-3918341D01*
X7794477Y-3913261D01*
X7784063Y-3913261D01*
X7773649Y-3918341D01*
X7758155Y-3928755D01*
X7706339Y-3980825D01*
X7706339Y-3907927D01*
X2350170Y-2922648D02*
G01*
X2339756Y-2912234D01*
X2334676Y-2896740D01*
X2334676Y-2875912D01*
X2339756Y-2860418D01*
X2350170Y-2850004D01*
X2360584Y-2850004D01*
X2370998Y-2855084D01*
X2376332Y-2860418D01*
X2381412Y-2870832D01*
X2391826Y-2902074D01*
X2396906Y-2912234D01*
X2402240Y-2917568D01*
X2412654Y-2922648D01*
X2428148Y-2922648D01*
X2438562Y-2912234D01*
X2443642Y-2896740D01*
X2443642Y-2875912D01*
X2438562Y-2860418D01*
X2428148Y-2850004D01*
X2334676Y-2956938D02*
G01*
X2443642Y-2983100D01*
X2334676Y-3009008D02*
G01*
X2443642Y-2983100D01*
X2334676Y-3009008D02*
G01*
X2443642Y-3034916D01*
X2334676Y-3060824D02*
G01*
X2443642Y-3034916D01*
X2360584Y-3100448D02*
G01*
X2355504Y-3100448D01*
X2345090Y-3105528D01*
X2339756Y-3110862D01*
X2334676Y-3121276D01*
X2334676Y-3142104D01*
X2339756Y-3152264D01*
X2345090Y-3157598D01*
X2355504Y-3162678D01*
X2365918Y-3162678D01*
X2376332Y-3157598D01*
X2391826Y-3147184D01*
X2443642Y-3095114D01*
X2443642Y-3168012D01*
X4484682Y-1175001D02*
G01*
X4593648Y-1175001D01*
X4484682Y-1175001D02*
G01*
X4484682Y-1221737D01*
X4489762Y-1237231D01*
X4495096Y-1242565D01*
X4505510Y-1247645D01*
X4515924Y-1247645D01*
X4526340Y-1242565D01*
X4531418Y-1237231D01*
X4536498Y-1221737D01*
X4536498Y-1175001D01*
X4536498Y-1211326D02*
G01*
X4593648Y-1247645D01*
X4500173Y-1344419D02*
G01*
X4489762Y-1339085D01*
X4484682Y-1323591D01*
X4484682Y-1313179D01*
X4489762Y-1297683D01*
X4505507Y-1287269D01*
X4531418Y-1281935D01*
X4557326Y-1281935D01*
X4578154Y-1287271D01*
X4588568Y-1297683D01*
X4593648Y-1313179D01*
X4593645Y-1318511D01*
X4588568Y-1334005D01*
X4578156Y-1344419D01*
X4562660Y-1349499D01*
X4557326Y-1349499D01*
X4541832Y-1344419D01*
X4531418Y-1334005D01*
X4526338Y-1318511D01*
X4526338Y-1313177D01*
X4531418Y-1297683D01*
X4541832Y-1287269D01*
X4557326Y-1281935D01*
X4634694Y-1175001D02*
G01*
X4743660Y-1175001D01*
X4634694Y-1175001D02*
G01*
X4634694Y-1221737D01*
X4639774Y-1237231D01*
X4645108Y-1242565D01*
X4655522Y-1247645D01*
X4665936Y-1247645D01*
X4676353Y-1242565D01*
X4681430Y-1237231D01*
X4686510Y-1221737D01*
X4686510Y-1175001D01*
X4686510Y-1211326D02*
G01*
X4743660Y-1247645D01*
X4634694Y-1354833D02*
G01*
X4743658Y-1302763D01*
X4634694Y-1281935D02*
G01*
X4634694Y-1354833D01*
X4891008Y-3672418D02*
G01*
X4901422Y-3677754D01*
X4911836Y-3688168D01*
X4916916Y-3698326D01*
X4916916Y-3719156D01*
X4911836Y-3729570D01*
X4901422Y-3739982D01*
X4891008Y-3745316D01*
X4875258Y-3750398D01*
X4849352Y-3750398D01*
X4833858Y-3745316D01*
X4823442Y-3739984D01*
X4813030Y-3729570D01*
X4807950Y-3719156D01*
X4807950Y-3698326D01*
X4813030Y-3688168D01*
X4823444Y-3677754D01*
X4833858Y-3672418D01*
X4916916Y-3586314D02*
G01*
X4844272Y-3638130D01*
X4844272Y-3560152D01*
X4916916Y-3586314D02*
G01*
X4807950Y-3586314D01*
X4916916Y-3515448D02*
G01*
X4916916Y-3458298D01*
X4875260Y-3489540D01*
X4875260Y-3474046D01*
X4870180Y-3463632D01*
X4865100Y-3458298D01*
X4849350Y-3453218D01*
X4838938Y-3453218D01*
X4823444Y-3458298D01*
X4813030Y-3468712D01*
X4807950Y-3484460D01*
X4807950Y-3499954D01*
X4813030Y-3515448D01*
X4818110Y-3520782D01*
X4828524Y-3525862D01*
X4322033Y-3860589D02*
G01*
X4327370Y-3850175D01*
X4337781Y-3839761D01*
X4347941Y-3834683D01*
X4368769Y-3834681D01*
X4379183Y-3839758D01*
X4389597Y-3850175D01*
X4394931Y-3860591D01*
X4400011Y-3876337D01*
X4400011Y-3902245D01*
X4394934Y-3917739D01*
X4389597Y-3928153D01*
X4379183Y-3938567D01*
X4368769Y-3943647D01*
X4347944Y-3943647D01*
X4337781Y-3938567D01*
X4327367Y-3928153D01*
X4322033Y-3917739D01*
X4235927Y-3834681D02*
G01*
X4287743Y-3907325D01*
X4209765Y-3907322D01*
X4235927Y-3834681D02*
G01*
X4235927Y-3943647D01*
X4123659Y-3834681D02*
G01*
X4175475Y-3907322D01*
X4097751Y-3907325D01*
X4123659Y-3834681D02*
G01*
X4123659Y-3943647D01*
X3239416Y-2897027D02*
G01*
X3249830Y-2902364D01*
X3260244Y-2912778D01*
X3265324Y-2922935D01*
X3265324Y-2943766D01*
X3260244Y-2954180D01*
X3249830Y-2964591D01*
X3239416Y-2969925D01*
X3223666Y-2975008D01*
X3197760Y-2975008D01*
X3182266Y-2969925D01*
X3171850Y-2964594D01*
X3161438Y-2954180D01*
X3156358Y-2943766D01*
X3156358Y-2922935D01*
X3161438Y-2912778D01*
X3171852Y-2902364D01*
X3182266Y-2897027D01*
X3265324Y-2810924D02*
G01*
X3192680Y-2862740D01*
X3192680Y-2784762D01*
X3265324Y-2810924D02*
G01*
X3156358Y-2810924D01*
X3265324Y-2688242D02*
G01*
X3265324Y-2740058D01*
X3218588Y-2745392D01*
X3223668Y-2740058D01*
X3229002Y-2724564D01*
X3229002Y-2709070D01*
X3223666Y-2693322D01*
X3213508Y-2682908D01*
X3197758Y-2677828D01*
X3187346Y-2677828D01*
X3171852Y-2682908D01*
X3161438Y-2693322D01*
X3156358Y-2709070D01*
X3156358Y-2724564D01*
X3161438Y-2740058D01*
X3166518Y-2745392D01*
X3176932Y-2750472D01*
G36*
X3068980Y-876909D02*
G01*
X3070453Y-954582D01*
X3141980Y-877925D01*
G37*
G36*
X4968900Y-876909D02*
G01*
X4970373Y-954582D01*
X5041900Y-877925D01*
G37*
G36*
X6869074Y-876909D02*
G01*
X6870547Y-954582D01*
X6942074Y-877925D01*
G37*
G36*
X1169060Y-3727043D02*
G01*
X1170533Y-3804716D01*
X1242060Y-3728059D01*
G37*
G36*
X3068980Y-3727043D02*
G01*
X3070453Y-3804716D01*
X3141980Y-3728059D01*
G37*
G36*
X4969002Y-3726992D02*
G01*
X4970475Y-3804665D01*
X5042001Y-3728008D01*
G37*
G36*
X6869074Y-3727043D02*
G01*
X6870547Y-3804716D01*
X6942074Y-3728059D01*
G37*
G36*
X1169009Y-5627014D02*
G01*
X1170482Y-5704687D01*
X1242009Y-5627979D01*
G37*
G36*
X3068980Y-5626963D02*
G01*
X3070453Y-5704636D01*
X3141980Y-5627979D01*
G37*
G36*
X4968900Y-5626963D02*
G01*
X4970373Y-5704636D01*
X5041900Y-5627979D01*
G37*
G36*
X6428079Y-7407909D02*
G01*
X6427063Y-7480909D01*
X6504736Y-7479436D01*
G37*
G36*
X1169060Y-7526883D02*
G01*
X1170533Y-7604556D01*
X1242060Y-7527899D01*
G37*
G36*
X3068980Y-7526883D02*
G01*
X3070453Y-7604556D01*
X3141980Y-7527899D01*
G37*
G36*
X4968900Y-7526883D02*
G01*
X4970373Y-7604556D01*
X5041900Y-7527899D01*
G37*
G36*
X1169060Y-9427057D02*
G01*
X1170533Y-9504730D01*
X1242060Y-9428073D01*
G37*
G36*
X3068980Y-9427057D02*
G01*
X3070453Y-9504730D01*
X3141980Y-9428073D01*
G37*
G36*
X4968900Y-9427057D02*
G01*
X4970373Y-9504730D01*
X5041900Y-9428073D01*
G37*
G36*
X6428079Y-11208004D02*
G01*
X6427063Y-11281003D01*
X6504736Y-11279530D01*
G37*
G36*
X2119020Y-11326977D02*
G01*
X2120493Y-11404650D01*
X2192020Y-11327993D01*
G37*
G36*
X4968900Y-11326977D02*
G01*
X4970373Y-11404650D01*
X5041900Y-11327993D01*
G37*
G36*
X1169009Y-877011D02*
G01*
X1170482Y-954684D01*
X1242009Y-878027D01*
G37*
G36*
X2144979Y-2302510D02*
G01*
X2144979Y-2332990D01*
X2180234Y-2332990D01*
X2180234Y-2302510D01*
G37*
G36*
X2019757Y-2302510D02*
G01*
X2019757Y-2332990D01*
X2055012Y-2332990D01*
X2055012Y-2302510D01*
G37*
G36*
X2445004Y-2302510D02*
G01*
X2445004Y-2332990D01*
X2480259Y-2332990D01*
X2480259Y-2302510D01*
G37*
G36*
X2319782Y-2302510D02*
G01*
X2319782Y-2332990D01*
X2354986Y-2332990D01*
X2354986Y-2302510D01*
G37*
G36*
X5945022Y-2327503D02*
G01*
X5945022Y-2357983D01*
X5980226Y-2357983D01*
X5980226Y-2327503D01*
G37*
G36*
X5819749Y-2327503D02*
G01*
X5819749Y-2357983D01*
X5855004Y-2357983D01*
X5855004Y-2327503D01*
G37*
G36*
X6220002Y-2327503D02*
G01*
X6220002Y-2357983D01*
X6255258Y-2357983D01*
X6255258Y-2327503D01*
G37*
G36*
X6094780Y-2327503D02*
G01*
X6094780Y-2357983D01*
X6129985Y-2357983D01*
X6129985Y-2327503D01*
G37*
G36*
X6545021Y-5352491D02*
G01*
X6545021Y-5382971D01*
X6580225Y-5382971D01*
X6580225Y-5352491D01*
G37*
G36*
X6419748Y-5352491D02*
G01*
X6419748Y-5382971D01*
X6455003Y-5382971D01*
X6455003Y-5352491D01*
G37*
G36*
X4644999Y-5352491D02*
G01*
X4644999Y-5382971D01*
X4680254Y-5382971D01*
X4680254Y-5352491D01*
G37*
G36*
X4519777Y-5352491D02*
G01*
X4519777Y-5382971D01*
X4554982Y-5382971D01*
X4554982Y-5352491D01*
G37*
G36*
X2744978Y-5352491D02*
G01*
X2744978Y-5382971D01*
X2780233Y-5382971D01*
X2780233Y-5352491D01*
G37*
G36*
X2619756Y-5352491D02*
G01*
X2619756Y-5382971D01*
X2655011Y-5382971D01*
X2655011Y-5352491D01*
G37*
G36*
X1445006Y-5352491D02*
G01*
X1445006Y-5382971D01*
X1480261Y-5382971D01*
X1480261Y-5352491D01*
G37*
G36*
X1319733Y-5352491D02*
G01*
X1319733Y-5382971D01*
X1354988Y-5382971D01*
X1354988Y-5352491D01*
G37*
G36*
X845007Y-7252512D02*
G01*
X845007Y-7282992D01*
X880262Y-7282992D01*
X880262Y-7252512D01*
G37*
G36*
X719734Y-7252512D02*
G01*
X719734Y-7282992D01*
X754989Y-7282992D01*
X754989Y-7252512D01*
G37*
G36*
X2744978Y-7252512D02*
G01*
X2744978Y-7282992D01*
X2780233Y-7282992D01*
X2780233Y-7252512D01*
G37*
G36*
X2619756Y-7252512D02*
G01*
X2619756Y-7282992D01*
X2655011Y-7282992D01*
X2655011Y-7252512D01*
G37*
G36*
X4644999Y-7252512D02*
G01*
X4644999Y-7282992D01*
X4680254Y-7282992D01*
X4680254Y-7252512D01*
G37*
G36*
X4519777Y-7252512D02*
G01*
X4519777Y-7282992D01*
X4554982Y-7282992D01*
X4554982Y-7252512D01*
G37*
G36*
X7145020Y-8227517D02*
G01*
X7145020Y-8257997D01*
X7180224Y-8257997D01*
X7180224Y-8227517D01*
G37*
G36*
X7019747Y-8227517D02*
G01*
X7019747Y-8257997D01*
X7055002Y-8257997D01*
X7055002Y-8227517D01*
G37*
G36*
X4644999Y-9177477D02*
G01*
X4644999Y-9207957D01*
X4680254Y-9207957D01*
X4680254Y-9177477D01*
G37*
G36*
X4519777Y-9177477D02*
G01*
X4519777Y-9207957D01*
X4554982Y-9207957D01*
X4554982Y-9177477D01*
G37*
G36*
X2744978Y-9177477D02*
G01*
X2744978Y-9207957D01*
X2780233Y-9207957D01*
X2780233Y-9177477D01*
G37*
G36*
X2619756Y-9177477D02*
G01*
X2619756Y-9207957D01*
X2655011Y-9207957D01*
X2655011Y-9177477D01*
G37*
G36*
X845007Y-9177477D02*
G01*
X845007Y-9207957D01*
X880262Y-9207957D01*
X880262Y-9177477D01*
G37*
G36*
X719734Y-9177477D02*
G01*
X719734Y-9207957D01*
X754989Y-9207957D01*
X754989Y-9177477D01*
G37*
G36*
X7294981Y-12052503D02*
G01*
X7294981Y-12082983D01*
X7330236Y-12082983D01*
X7330236Y-12052503D01*
G37*
G36*
X7169759Y-12052503D02*
G01*
X7169759Y-12082983D01*
X7205014Y-12082983D01*
X7205014Y-12052503D01*
G37*
G36*
X4995011Y-11052505D02*
G01*
X4995011Y-11082985D01*
X5030266Y-11082985D01*
X5030266Y-11052505D01*
G37*
G36*
X4869738Y-11052505D02*
G01*
X4869738Y-11082985D01*
X4904994Y-11082985D01*
X4904994Y-11052505D01*
G37*
G36*
X2744978Y-11077498D02*
G01*
X2744978Y-11107978D01*
X2780233Y-11107978D01*
X2780233Y-11077498D01*
G37*
G36*
X2619756Y-11077498D02*
G01*
X2619756Y-11107978D01*
X2655011Y-11107978D01*
X2655011Y-11077498D01*
G37*
G36*
X845007Y-11077498D02*
G01*
X845007Y-11107978D01*
X880262Y-11107978D01*
X880262Y-11077498D01*
G37*
G36*
X719734Y-11077498D02*
G01*
X719734Y-11107978D01*
X754989Y-11107978D01*
X754989Y-11077498D01*
G37*
G36*
X1795018Y-12902488D02*
G01*
X1795018Y-12932968D01*
X1830222Y-12932968D01*
X1830222Y-12902488D01*
G37*
G36*
X1669745Y-12902488D02*
G01*
X1669745Y-12932968D01*
X1705000Y-12932968D01*
X1705000Y-12902488D01*
G37*
G36*
X4644999Y-12902488D02*
G01*
X4644999Y-12932968D01*
X4680254Y-12932968D01*
X4680254Y-12902488D01*
G37*
G36*
X4519777Y-12902488D02*
G01*
X4519777Y-12932968D01*
X4554982Y-12932968D01*
X4554982Y-12902488D01*
G37*
D11*
X6799999Y-9175000D02*
G01*
X7374996Y-9175000D01*
X7374996Y-8812499D01*
X7237498Y-8662499D01*
X6793748Y-8806248D01*
X6799999Y-9087502D02*
G01*
X7287498Y-9087502D01*
X7287498Y-8887503D01*
X6799999Y-8887503D01*
X7287501Y-8987502D02*
G01*
X6800004Y-8987502D01*
D10*
X8199605Y-10561896D02*
G01*
X8199605Y-10587296D01*
X8250405Y-10561896D02*
G01*
X8250405Y-10587296D01*
X8250405Y-10612696D02*
G01*
X8250405Y-10638096D01*
X8365002Y-10759998D02*
G01*
X8365002Y-10439994D01*
X8085007Y-10439994D02*
G01*
X8085007Y-10759998D01*
X8058985Y-12830101D02*
G01*
X8041025Y-12848061D01*
X8094906Y-12866022D02*
G01*
X8076945Y-12883982D01*
X8058985Y-12901942D02*
G01*
X8041025Y-12919903D01*
X8035858Y-13087134D02*
G01*
X8262137Y-12860858D01*
X8064149Y-12662870D02*
G01*
X7837873Y-12889148D01*
X5713102Y-13049605D02*
G01*
X5687702Y-13049605D01*
X5713102Y-13100405D02*
G01*
X5687702Y-13100405D01*
X5662302Y-13100405D02*
G01*
X5636902Y-13100405D01*
X5515000Y-13215002D02*
G01*
X5835004Y-13215002D01*
X5835004Y-12935008D02*
G01*
X5515000Y-12935008D01*
X2863103Y-13074604D02*
G01*
X2837703Y-13074604D01*
X2863103Y-13125404D02*
G01*
X2837703Y-13125404D01*
X2812303Y-13125404D02*
G01*
X2786903Y-13125404D01*
X2665001Y-13240001D02*
G01*
X2985005Y-13240001D01*
X2985005Y-12960007D02*
G01*
X2665001Y-12960007D01*
X519899Y-12908986D02*
G01*
X501939Y-12891025D01*
X483979Y-12944906D02*
G01*
X466018Y-12926946D01*
X448058Y-12908986D02*
G01*
X430098Y-12891025D01*
X262867Y-12885859D02*
G01*
X489143Y-13112137D01*
X687130Y-12914149D02*
G01*
X460852Y-12687874D01*
X300395Y-10638101D02*
G01*
X300395Y-10612701D01*
X249595Y-10638101D02*
G01*
X249595Y-10612701D01*
X249595Y-10587301D02*
G01*
X249595Y-10561901D01*
X134998Y-10439999D02*
G01*
X134998Y-10760003D01*
X414992Y-10760003D02*
G01*
X414992Y-10439999D01*
X300395Y-7988101D02*
G01*
X300395Y-7962701D01*
X249595Y-7988101D02*
G01*
X249595Y-7962701D01*
X249595Y-7937301D02*
G01*
X249595Y-7911901D01*
X134998Y-7789999D02*
G01*
X134998Y-8110004D01*
X414992Y-8110004D02*
G01*
X414992Y-7789999D01*
X300395Y-5338102D02*
G01*
X300395Y-5312702D01*
X249595Y-5338102D02*
G01*
X249595Y-5312702D01*
X249595Y-5287302D02*
G01*
X249595Y-5261904D01*
X134998Y-5139999D02*
G01*
X134995Y-5460004D01*
X414992Y-5460004D02*
G01*
X414992Y-5139999D01*
X300395Y-2688102D02*
G01*
X300395Y-2662702D01*
X249595Y-2688102D02*
G01*
X249595Y-2662702D01*
X249595Y-2637302D02*
G01*
X249595Y-2611902D01*
X134998Y-2490000D02*
G01*
X134998Y-2810004D01*
X414992Y-2810004D02*
G01*
X414992Y-2490000D01*
X8199605Y-7911896D02*
G01*
X8199605Y-7937296D01*
X8250405Y-7911896D02*
G01*
X8250405Y-7937296D01*
X8250405Y-7962696D02*
G01*
X8250405Y-7988096D01*
X8365002Y-8109999D02*
G01*
X8365002Y-7789994D01*
X8085007Y-7789994D02*
G01*
X8085007Y-8109999D01*
X8199605Y-5261897D02*
G01*
X8199605Y-5287297D01*
X8250405Y-5261897D02*
G01*
X8250405Y-5287297D01*
X8250405Y-5312697D02*
G01*
X8250405Y-5338094D01*
X8365002Y-5459999D02*
G01*
X8365004Y-5139994D01*
X8085007Y-5139994D02*
G01*
X8085007Y-5459999D01*
X8199605Y-2611897D02*
G01*
X8199605Y-2637297D01*
X8250405Y-2611897D02*
G01*
X8250405Y-2637297D01*
X8250405Y-2662697D02*
G01*
X8250405Y-2688097D01*
X8365002Y-2809999D02*
G01*
X8365002Y-2489995D01*
X8085007Y-2489995D02*
G01*
X8085007Y-2809999D01*
X7955099Y-616013D02*
G01*
X7973059Y-633973D01*
X7991020Y-580092D02*
G01*
X8008980Y-598053D01*
X8026941Y-616013D02*
G01*
X8044901Y-633973D01*
X8212132Y-639140D02*
G01*
X7985856Y-412861D01*
X7787868Y-610849D02*
G01*
X8014147Y-837125D01*
X5611898Y-400395D02*
G01*
X5637298Y-400395D01*
X5611898Y-349595D02*
G01*
X5637298Y-349595D01*
X5662698Y-349595D02*
G01*
X5688098Y-349595D01*
X5810001Y-234998D02*
G01*
X5489996Y-234998D01*
X5489996Y-514992D02*
G01*
X5810001Y-514992D01*
X2786898Y-400395D02*
G01*
X2812298Y-400395D01*
X2786898Y-349595D02*
G01*
X2812298Y-349595D01*
X2837698Y-349595D02*
G01*
X2863098Y-349595D01*
X2985000Y-234998D02*
G01*
X2664995Y-234998D01*
X2664995Y-514992D02*
G01*
X2985000Y-514992D01*
X441012Y-669899D02*
G01*
X458972Y-651939D01*
X405091Y-633978D02*
G01*
X423052Y-616018D01*
X441012Y-598058D02*
G01*
X458972Y-580097D01*
X464139Y-412866D02*
G01*
X237860Y-639142D01*
X435848Y-837130D02*
G01*
X662124Y-610852D01*
D44*
X2027382Y-2134875D02*
G01*
X2048004Y-2134875D01*
X2172619Y-2134875D02*
G01*
X2153000Y-2134875D01*
D45*
X2172619Y-2310119D02*
G01*
X2172619Y-2134875D01*
X2027382Y-2310119D02*
G01*
X2027382Y-2134875D01*
X2172622Y-2269675D02*
G01*
X2027379Y-2269675D01*
D44*
X2327381Y-2134875D02*
G01*
X2348003Y-2134875D01*
X2472618Y-2134875D02*
G01*
X2452999Y-2134875D01*
D45*
X2472618Y-2310119D02*
G01*
X2472618Y-2134875D01*
X2327381Y-2310119D02*
G01*
X2327381Y-2134875D01*
X2472621Y-2269675D02*
G01*
X2327379Y-2269675D01*
D44*
X5827382Y-2159876D02*
G01*
X5848004Y-2159876D01*
X5972619Y-2159876D02*
G01*
X5953000Y-2159876D01*
D45*
X5972619Y-2335121D02*
G01*
X5972619Y-2159876D01*
X5827382Y-2335121D02*
G01*
X5827382Y-2159876D01*
X5972622Y-2294676D02*
G01*
X5827379Y-2294676D01*
D44*
X6102380Y-2159876D02*
G01*
X6123002Y-2159876D01*
X6247617Y-2159876D02*
G01*
X6227998Y-2159876D01*
D45*
X6247617Y-2335121D02*
G01*
X6247617Y-2159876D01*
X6102380Y-2335121D02*
G01*
X6102380Y-2159876D01*
X6247620Y-2294676D02*
G01*
X6102377Y-2294676D01*
D44*
X6427381Y-5184876D02*
G01*
X6448003Y-5184876D01*
X6572618Y-5184876D02*
G01*
X6552999Y-5184876D01*
D45*
X6572618Y-5360121D02*
G01*
X6572618Y-5184876D01*
X6427381Y-5360121D02*
G01*
X6427381Y-5184876D01*
X6572620Y-5319676D02*
G01*
X6427378Y-5319676D01*
D44*
X4527382Y-5184876D02*
G01*
X4548004Y-5184876D01*
X4672619Y-5184876D02*
G01*
X4653000Y-5184876D01*
D45*
X4672619Y-5360121D02*
G01*
X4672619Y-5184876D01*
X4527382Y-5360121D02*
G01*
X4527382Y-5184876D01*
X4672622Y-5319676D02*
G01*
X4527379Y-5319676D01*
D44*
X2627381Y-5184876D02*
G01*
X2648003Y-5184876D01*
X2772618Y-5184876D02*
G01*
X2752999Y-5184876D01*
D45*
X2772618Y-5360121D02*
G01*
X2772618Y-5184876D01*
X2627381Y-5360121D02*
G01*
X2627381Y-5184876D01*
X2772620Y-5319676D02*
G01*
X2627378Y-5319676D01*
D44*
X1327378Y-5184876D02*
G01*
X1348000Y-5184876D01*
X1472620Y-5184876D02*
G01*
X1452999Y-5184876D01*
D45*
X1472620Y-5360121D02*
G01*
X1472620Y-5184876D01*
X1327378Y-5360121D02*
G01*
X1327378Y-5184876D01*
X1472620Y-5319676D02*
G01*
X1327378Y-5319676D01*
D44*
X727379Y-7084875D02*
G01*
X748002Y-7084875D01*
X872622Y-7084875D02*
G01*
X853000Y-7084875D01*
D45*
X872622Y-7260120D02*
G01*
X872622Y-7084875D01*
X727379Y-7260120D02*
G01*
X727379Y-7084875D01*
X872622Y-7219675D02*
G01*
X727379Y-7219675D01*
D44*
X2627381Y-7084875D02*
G01*
X2648003Y-7084875D01*
X2772618Y-7084875D02*
G01*
X2752999Y-7084875D01*
D45*
X2772618Y-7260120D02*
G01*
X2772618Y-7084875D01*
X2627381Y-7260120D02*
G01*
X2627381Y-7084875D01*
X2772620Y-7219675D02*
G01*
X2627378Y-7219675D01*
D44*
X4527382Y-7084875D02*
G01*
X4548004Y-7084875D01*
X4672619Y-7084875D02*
G01*
X4653000Y-7084875D01*
D45*
X4672619Y-7260120D02*
G01*
X4672619Y-7084875D01*
X4527382Y-7260120D02*
G01*
X4527382Y-7084875D01*
X4672622Y-7219675D02*
G01*
X4527379Y-7219675D01*
D44*
X7027379Y-8059877D02*
G01*
X7048002Y-8059877D01*
X7172622Y-8059877D02*
G01*
X7153000Y-8059877D01*
D45*
X7172622Y-8235121D02*
G01*
X7172622Y-8059877D01*
X7027379Y-8235121D02*
G01*
X7027379Y-8059877D01*
X7172622Y-8194677D02*
G01*
X7027379Y-8194677D01*
D44*
X4527382Y-9009875D02*
G01*
X4548004Y-9009875D01*
X4672619Y-9009875D02*
G01*
X4653000Y-9009875D01*
D45*
X4672619Y-9185120D02*
G01*
X4672619Y-9009875D01*
X4527382Y-9185120D02*
G01*
X4527382Y-9009875D01*
X4672622Y-9144675D02*
G01*
X4527379Y-9144675D01*
D44*
X2627381Y-9009875D02*
G01*
X2648003Y-9009875D01*
X2772618Y-9009875D02*
G01*
X2752999Y-9009875D01*
D45*
X2772618Y-9185120D02*
G01*
X2772618Y-9009875D01*
X2627381Y-9185120D02*
G01*
X2627381Y-9009875D01*
X2772620Y-9144675D02*
G01*
X2627378Y-9144675D01*
D44*
X727382Y-9009875D02*
G01*
X748004Y-9009875D01*
X872619Y-9009875D02*
G01*
X853000Y-9009875D01*
D45*
X872619Y-9185120D02*
G01*
X872619Y-9009875D01*
X727382Y-9185120D02*
G01*
X727382Y-9009875D01*
X872622Y-9144675D02*
G01*
X727379Y-9144675D01*
D44*
X7177382Y-11884875D02*
G01*
X7198004Y-11884875D01*
X7322619Y-11884875D02*
G01*
X7303000Y-11884875D01*
D45*
X7322619Y-12060120D02*
G01*
X7322619Y-11884875D01*
X7177382Y-12060120D02*
G01*
X7177382Y-11884875D01*
X7322621Y-12019676D02*
G01*
X7177379Y-12019676D01*
D44*
X4877381Y-10884875D02*
G01*
X4898003Y-10884875D01*
X5022618Y-10884875D02*
G01*
X5002999Y-10884875D01*
D45*
X5022618Y-11060120D02*
G01*
X5022618Y-10884875D01*
X4877381Y-11060120D02*
G01*
X4877381Y-10884875D01*
X5022621Y-11019675D02*
G01*
X4877379Y-11019675D01*
D44*
X2627381Y-10909876D02*
G01*
X2648003Y-10909876D01*
X2772618Y-10909876D02*
G01*
X2752999Y-10909876D01*
D45*
X2772618Y-11085121D02*
G01*
X2772618Y-10909876D01*
X2627381Y-11085121D02*
G01*
X2627381Y-10909876D01*
X2772620Y-11044676D02*
G01*
X2627378Y-11044676D01*
D44*
X727379Y-10909876D02*
G01*
X748002Y-10909876D01*
X872622Y-10909876D02*
G01*
X853000Y-10909876D01*
D45*
X872622Y-11085121D02*
G01*
X872622Y-10909876D01*
X727379Y-11085121D02*
G01*
X727379Y-10909876D01*
X872622Y-11044676D02*
G01*
X727379Y-11044676D01*
D44*
X1677380Y-12734876D02*
G01*
X1698002Y-12734876D01*
X1822617Y-12734876D02*
G01*
X1802998Y-12734876D01*
D45*
X1822617Y-12910121D02*
G01*
X1822617Y-12734876D01*
X1677380Y-12910121D02*
G01*
X1677380Y-12734876D01*
X1822620Y-12869677D02*
G01*
X1677377Y-12869677D01*
D44*
X4527382Y-12734876D02*
G01*
X4548004Y-12734876D01*
X4672619Y-12734876D02*
G01*
X4653000Y-12734876D01*
D45*
X4672619Y-12910121D02*
G01*
X4672619Y-12734876D01*
X4527382Y-12910121D02*
G01*
X4527382Y-12734876D01*
X4672622Y-12869677D02*
G01*
X4527379Y-12869677D01*
D10*
X4250110Y-3636274D02*
G01*
X3613713Y-2999877D01*
X4886510Y-2999877D02*
G01*
X4250110Y-3636274D01*
X3613713Y-2999877D02*
G01*
X4250110Y-2363477D01*
X4250110Y-2363477D02*
G01*
X4886510Y-2999877D01*
X4798115Y-3052907D02*
G01*
X4798115Y-2946844D01*
X6679001Y-2720200D02*
G01*
X6602801Y-2644000D01*
X6602801Y-2644000D02*
G01*
X6247201Y-2644000D01*
X6247201Y-2644000D02*
G01*
X6171001Y-2720200D01*
X6171001Y-2720200D02*
G01*
X6171001Y-2847200D01*
X6171001Y-2847200D02*
G01*
X6221801Y-2898000D01*
X6221801Y-2898000D02*
G01*
X6171001Y-2948800D01*
X6171001Y-2948800D02*
G01*
X6171001Y-3101200D01*
X6171001Y-3101200D02*
G01*
X6221801Y-3152000D01*
X6221801Y-3152000D02*
G01*
X6171001Y-3202800D01*
X6171001Y-3202800D02*
G01*
X6171001Y-3329800D01*
X6171001Y-3329800D02*
G01*
X6247201Y-3406000D01*
X6247201Y-3406000D02*
G01*
X6602801Y-3406000D01*
X6602801Y-3406000D02*
G01*
X6679001Y-3329800D01*
X6679001Y-3329800D02*
G01*
X6679001Y-3202800D01*
X6679001Y-3202800D02*
G01*
X6628201Y-3152000D01*
X6628201Y-3152000D02*
G01*
X6679001Y-3101200D01*
X6679001Y-3101200D02*
G01*
X6679001Y-2948800D01*
X6679001Y-2948800D02*
G01*
X6628201Y-2898000D01*
X6628201Y-2898000D02*
G01*
X6679001Y-2847200D01*
X6679001Y-2847200D02*
G01*
X6679001Y-2720200D01*
D46*
X3214979Y-2655011D02*
G01*
X3324986Y-2655011D01*
X3324986Y-2494991D01*
X3214979Y-2494991D01*
X3134995Y-2655011D02*
G01*
X3024987Y-2655011D01*
X3024987Y-2555011D01*
X3024987Y-2494991D01*
X3134995Y-2494991D01*
X3094990Y-3189980D02*
G01*
X3094990Y-3299988D01*
X3255009Y-3299988D01*
X3255009Y-3189980D01*
X3094990Y-3109996D02*
G01*
X3094990Y-2999988D01*
X3194989Y-2999988D01*
X3255009Y-2999988D01*
X3255009Y-3109996D01*
X2844990Y-3589980D02*
G01*
X2844990Y-3699987D01*
X3005010Y-3699987D01*
X3005010Y-3589980D01*
X2844990Y-3509995D02*
G01*
X2844990Y-3399988D01*
X2944990Y-3399988D01*
X3005010Y-3399988D01*
X3005010Y-3509995D01*
X5015153Y-2896694D02*
G01*
X4937366Y-2974482D01*
X5050518Y-3087634D01*
X5128305Y-3009846D01*
X5071711Y-2840136D02*
G01*
X5149499Y-2762349D01*
X5220210Y-2833060D01*
X5262651Y-2875500D01*
X5184863Y-2953288D01*
X4994991Y-3564978D02*
G01*
X4994991Y-3674986D01*
X5155011Y-3674986D01*
X5155011Y-3564978D01*
X4994991Y-3484994D02*
G01*
X4994991Y-3374986D01*
X5094991Y-3374986D01*
X5155011Y-3374986D01*
X5155011Y-3484994D01*
X4985021Y-469991D02*
G01*
X4875014Y-469991D01*
X4875014Y-630011D01*
X4985021Y-630011D01*
X5065006Y-469991D02*
G01*
X5175013Y-469991D01*
X5175013Y-569991D01*
X5175013Y-630011D01*
X5065006Y-630011D01*
X3489980Y-630008D02*
G01*
X3599987Y-630008D01*
X3599987Y-469988D01*
X3489980Y-469988D01*
X3409995Y-630008D02*
G01*
X3299988Y-630008D01*
X3299988Y-530009D01*
X3299988Y-469988D01*
X3409995Y-469988D01*
D47*
X723993Y-13011630D02*
G01*
X405747Y-12693383D01*
X405704Y-12608648D01*
X525993Y-12488359D01*
X526003Y-12488369D02*
G01*
X886627Y-12848993D01*
X886627Y-12848993D02*
G01*
X723993Y-13011627D01*
X3079998Y-12990001D02*
G01*
X2629931Y-12990001D01*
X2569984Y-12930116D01*
X2569984Y-12759999D01*
X2569999Y-12760002D02*
G01*
X3079998Y-12760002D01*
X3079998Y-12760002D02*
G01*
X3079998Y-12989999D01*
X5929998Y-12990001D02*
G01*
X5479930Y-12990001D01*
X5419984Y-12930116D01*
X5419984Y-12759999D01*
X5419999Y-12760002D02*
G01*
X5929998Y-12760002D01*
X5929998Y-12760002D02*
G01*
X5929998Y-12989999D01*
X8115000Y-10344998D02*
G01*
X8115000Y-10795068D01*
X8055114Y-10855015D01*
X7885000Y-10855015D01*
X7885000Y-10854999D02*
G01*
X7885000Y-10345000D01*
X7885000Y-10345000D02*
G01*
X8114997Y-10345000D01*
X8115000Y-7694998D02*
G01*
X8115000Y-8145068D01*
X8055114Y-8205015D01*
X7885000Y-8205015D01*
X7885000Y-8205000D02*
G01*
X7885000Y-7695001D01*
X7885000Y-7695001D02*
G01*
X8114997Y-7695001D01*
X8161629Y-12626007D02*
G01*
X7843382Y-12944254D01*
X7758648Y-12944297D01*
X7638359Y-12824007D01*
X7638369Y-12823997D02*
G01*
X7998993Y-12463373D01*
X7998993Y-12463373D02*
G01*
X8161627Y-12626007D01*
X7751005Y-513369D02*
G01*
X8069252Y-831616D01*
X8069295Y-916350D01*
X7949006Y-1036640D01*
X7948996Y-1036629D02*
G01*
X7588371Y-676005D01*
X7588371Y-676005D02*
G01*
X7751005Y-513372D01*
X8115000Y-2395001D02*
G01*
X8115000Y-2845069D01*
X8055114Y-2905015D01*
X7884998Y-2905015D01*
X7885000Y-2905000D02*
G01*
X7885000Y-2395001D01*
X7885000Y-2395001D02*
G01*
X8114997Y-2395001D01*
X8115000Y-5044998D02*
G01*
X8115000Y-5495069D01*
X8055114Y-5555015D01*
X7885000Y-5555015D01*
X7885000Y-5555000D02*
G01*
X7885000Y-5045001D01*
X7885000Y-5045001D02*
G01*
X8114997Y-5045001D01*
X5395003Y-484997D02*
G01*
X5845070Y-484997D01*
X5905017Y-544883D01*
X5905017Y-714999D01*
X5905002Y-714997D02*
G01*
X5395003Y-714997D01*
X5395003Y-714997D02*
G01*
X5395003Y-485000D01*
X2570002Y-485000D02*
G01*
X3020070Y-485000D01*
X3080016Y-544885D01*
X3080016Y-715002D01*
X3080001Y-714999D02*
G01*
X2570002Y-714999D01*
X2570002Y-714999D02*
G01*
X2570002Y-485002D01*
X338371Y-873993D02*
G01*
X656617Y-555746D01*
X741352Y-555703D01*
X861641Y-675993D01*
X861631Y-676003D02*
G01*
X501007Y-1036627D01*
X501007Y-1036627D02*
G01*
X338373Y-873993D01*
X384997Y-10854999D02*
G01*
X384997Y-10404929D01*
X444883Y-10344983D01*
X614997Y-10344983D01*
X614997Y-10344998D02*
G01*
X614997Y-10854997D01*
X614997Y-10854997D02*
G01*
X385000Y-10854997D01*
X384997Y-8205000D02*
G01*
X384997Y-7754929D01*
X444883Y-7694983D01*
X614997Y-7694983D01*
X614997Y-7694998D02*
G01*
X614997Y-8204997D01*
X614997Y-8204997D02*
G01*
X385000Y-8204997D01*
X384997Y-5555000D02*
G01*
X384997Y-5104930D01*
X444883Y-5044983D01*
X614997Y-5044983D01*
X614997Y-5044998D02*
G01*
X614997Y-5554997D01*
X614997Y-5554997D02*
G01*
X385000Y-5554997D01*
X384997Y-2905000D02*
G01*
X384997Y-2454930D01*
X444883Y-2394983D01*
X614997Y-2394983D01*
X614997Y-2394999D02*
G01*
X614997Y-2904997D01*
X614997Y-2904997D02*
G01*
X385000Y-2904997D01*
D10*
X920021Y-12601557D02*
G01*
X976591Y-12544986D01*
X819640Y-12544993D02*
G01*
X876206Y-12601562D01*
X920026Y-12444610D02*
G01*
X976591Y-12501176D01*
X778507Y-12504684D02*
G01*
X721939Y-12448115D01*
X721939Y-12404298D02*
G01*
X778504Y-12347732D01*
X878888Y-12404303D02*
G01*
X822319Y-12347735D01*
X2489977Y-12735999D02*
G01*
X2409974Y-12735999D01*
X2520962Y-12846974D02*
G01*
X2520962Y-12766977D01*
X2378997Y-12846974D02*
G01*
X2378997Y-12766977D01*
X2521544Y-12904563D02*
G01*
X2521544Y-12984563D01*
X2490561Y-13015546D02*
G01*
X2410564Y-13015546D01*
X2379583Y-12904563D02*
G01*
X2379583Y-12984563D01*
X7564978Y-12635999D02*
G01*
X7484976Y-12635999D01*
X7595963Y-12746974D02*
G01*
X7595963Y-12666977D01*
X7453998Y-12746974D02*
G01*
X7453998Y-12666977D01*
X7596545Y-12804564D02*
G01*
X7596545Y-12884564D01*
X7565562Y-12915546D02*
G01*
X7485565Y-12915546D01*
X7454585Y-12804564D02*
G01*
X7454585Y-12884564D01*
X5985022Y-12764002D02*
G01*
X6065024Y-12764002D01*
X5954036Y-12653027D02*
G01*
X5954036Y-12733025D01*
X6096002Y-12653027D02*
G01*
X6096002Y-12733025D01*
X5953455Y-12595438D02*
G01*
X5953455Y-12515438D01*
X5984438Y-12484455D02*
G01*
X6064435Y-12484455D01*
X6095415Y-12595438D02*
G01*
X6095415Y-12515438D01*
X735022Y-8064002D02*
G01*
X815025Y-8064002D01*
X704037Y-7953027D02*
G01*
X704037Y-8033024D01*
X846002Y-7953027D02*
G01*
X846002Y-8033024D01*
X703455Y-7895437D02*
G01*
X703455Y-7815437D01*
X734438Y-7784454D02*
G01*
X814435Y-7784454D01*
X845416Y-7895437D02*
G01*
X845416Y-7815437D01*
X685022Y-5414002D02*
G01*
X765025Y-5414002D01*
X654037Y-5303027D02*
G01*
X654037Y-5383024D01*
X796002Y-5303027D02*
G01*
X796002Y-5383024D01*
X653455Y-5245437D02*
G01*
X653455Y-5165437D01*
X684438Y-5134455D02*
G01*
X764435Y-5134455D01*
X795416Y-5245437D02*
G01*
X795416Y-5165437D01*
X710023Y-2689001D02*
G01*
X790026Y-2689001D01*
X679038Y-2578026D02*
G01*
X679038Y-2658023D01*
X821004Y-2578026D02*
G01*
X821004Y-2658023D01*
X678456Y-2520436D02*
G01*
X678456Y-2440437D01*
X709439Y-2409454D02*
G01*
X789437Y-2409454D01*
X820417Y-2520436D02*
G01*
X820417Y-2440437D01*
X385998Y-10135024D02*
G01*
X385998Y-10215026D01*
X496973Y-10104038D02*
G01*
X416976Y-10104038D01*
X496973Y-10246004D02*
G01*
X416976Y-10246004D01*
X554563Y-10103457D02*
G01*
X634563Y-10103457D01*
X665546Y-10134439D02*
G01*
X665546Y-10214437D01*
X554563Y-10245417D02*
G01*
X634563Y-10245417D01*
X648441Y-970020D02*
G01*
X705012Y-1026591D01*
X705004Y-869640D02*
G01*
X648436Y-926205D01*
X805388Y-970026D02*
G01*
X748822Y-1026591D01*
X745314Y-828507D02*
G01*
X801883Y-771939D01*
X845700Y-771939D02*
G01*
X902266Y-828504D01*
X845695Y-928888D02*
G01*
X902263Y-872319D01*
X7679979Y-823442D02*
G01*
X7623408Y-880013D01*
X7780360Y-880005D02*
G01*
X7723794Y-823437D01*
X7679974Y-980389D02*
G01*
X7623408Y-923823D01*
X7821493Y-920315D02*
G01*
X7878061Y-976884D01*
X7878061Y-1020701D02*
G01*
X7821495Y-1077267D01*
X7721112Y-1020696D02*
G01*
X7777680Y-1077264D01*
X7685999Y-10210022D02*
G01*
X7685999Y-10290025D01*
X7796974Y-10179037D02*
G01*
X7716977Y-10179037D01*
X7796974Y-10321002D02*
G01*
X7716977Y-10321002D01*
X7854563Y-10178455D02*
G01*
X7934563Y-10178455D01*
X7965546Y-10209438D02*
G01*
X7965546Y-10289435D01*
X7854563Y-10320416D02*
G01*
X7934563Y-10320416D01*
X7739001Y-8164977D02*
G01*
X7739001Y-8084974D01*
X7628026Y-8195962D02*
G01*
X7708023Y-8195962D01*
X7628026Y-8053997D02*
G01*
X7708023Y-8053997D01*
X7570436Y-8196544D02*
G01*
X7490437Y-8196544D01*
X7459454Y-8165561D02*
G01*
X7459454Y-8085564D01*
X7570436Y-8054583D02*
G01*
X7490437Y-8054583D01*
X7764978Y-5185999D02*
G01*
X7684975Y-5185999D01*
X7795963Y-5296974D02*
G01*
X7795963Y-5216977D01*
X7653997Y-5296974D02*
G01*
X7653997Y-5216977D01*
X7796545Y-5354563D02*
G01*
X7796545Y-5434563D01*
X7765562Y-5465546D02*
G01*
X7685565Y-5465546D01*
X7654584Y-5354563D02*
G01*
X7654584Y-5434563D01*
X7910022Y-3239000D02*
G01*
X7990024Y-3239000D01*
X7879036Y-3128025D02*
G01*
X7879036Y-3208022D01*
X8021002Y-3128025D02*
G01*
X8021002Y-3208022D01*
X7878455Y-3070435D02*
G01*
X7878455Y-2990435D01*
X7909438Y-2959453D02*
G01*
X7989435Y-2959453D01*
X8020415Y-3070435D02*
G01*
X8020415Y-2990435D01*
X2710997Y-785022D02*
G01*
X2710997Y-865024D01*
X2821973Y-754037D02*
G01*
X2741975Y-754037D01*
X2821973Y-896002D02*
G01*
X2741975Y-896002D01*
X2879562Y-753455D02*
G01*
X2959562Y-753455D01*
X2990545Y-784438D02*
G01*
X2990545Y-864435D01*
X2879562Y-895416D02*
G01*
X2959562Y-895416D01*
X5610999Y-810023D02*
G01*
X5610999Y-890026D01*
X5721974Y-779038D02*
G01*
X5641977Y-779038D01*
X5721974Y-921004D02*
G01*
X5641977Y-921004D01*
X5779564Y-778456D02*
G01*
X5859564Y-778456D01*
X5890547Y-809439D02*
G01*
X5890547Y-889436D01*
X5779564Y-920417D02*
G01*
X5859564Y-920417D01*
X4929979Y-2523441D02*
G01*
X4873409Y-2580012D01*
X5030360Y-2580004D02*
G01*
X4973794Y-2523436D01*
X4929974Y-2680388D02*
G01*
X4873409Y-2623822D01*
X5071493Y-2620314D02*
G01*
X5128061Y-2676883D01*
X5128061Y-2720700D02*
G01*
X5071496Y-2777266D01*
X4971112Y-2720695D02*
G01*
X5027681Y-2777263D01*
D48*
X3064990Y-3330008D02*
G01*
X3484989Y-3330008D01*
X3484989Y-3670007D01*
X3064990Y-3670007D01*
X3064990Y-3330008D01*
D45*
X4296788Y-2328910D02*
G01*
X4249999Y-2282121D01*
X4203209Y-2328910D01*
X3578905Y-3046793D02*
G01*
X3532116Y-3000004D01*
X3578905Y-2953214D01*
X4921092Y-2953214D02*
G01*
X4967881Y-3000004D01*
X4921092Y-3046793D01*
X4203209Y-3671097D02*
G01*
X4249999Y-3717886D01*
X4296788Y-3671097D01*
X4910632Y-3000004D02*
G01*
X4249999Y-2339370D01*
X3589365Y-3000004D01*
X4249999Y-3660637D01*
X4910632Y-3000004D01*
X8016059Y-11067620D02*
G01*
X8016059Y-11163508D01*
X7883939Y-11163508D01*
X7883939Y-11067620D01*
X8016059Y-10982378D02*
G01*
X8016059Y-10886490D01*
X7883939Y-10886490D01*
X7883939Y-10982378D01*
X769879Y-1228559D02*
G01*
X673991Y-1228559D01*
X673991Y-1096439D01*
X769879Y-1096439D01*
X855121Y-1228559D02*
G01*
X951009Y-1228559D01*
X951009Y-1096439D01*
X855121Y-1096439D01*
D10*
X1939978Y-1085997D02*
G01*
X1859975Y-1085997D01*
X1970963Y-1196972D02*
G01*
X1970963Y-1116975D01*
X1828998Y-1196972D02*
G01*
X1828998Y-1116975D01*
X1971545Y-1254561D02*
G01*
X1971545Y-1334561D01*
X1940562Y-1365544D02*
G01*
X1860565Y-1365544D01*
X1829584Y-1254561D02*
G01*
X1829584Y-1334561D01*
X3864978Y-1085997D02*
G01*
X3784975Y-1085997D01*
X3895963Y-1196972D02*
G01*
X3895963Y-1116975D01*
X3753998Y-1196972D02*
G01*
X3753998Y-1116975D01*
X3896545Y-1254561D02*
G01*
X3896545Y-1334561D01*
X3865562Y-1365544D02*
G01*
X3785565Y-1365544D01*
X3754584Y-1254561D02*
G01*
X3754584Y-1334561D01*
X5739978Y-1085997D02*
G01*
X5659975Y-1085997D01*
X5770963Y-1196972D02*
G01*
X5770963Y-1116975D01*
X5628998Y-1196972D02*
G01*
X5628998Y-1116975D01*
X5771545Y-1254561D02*
G01*
X5771545Y-1334561D01*
X5740562Y-1365544D02*
G01*
X5660565Y-1365544D01*
X5629584Y-1254561D02*
G01*
X5629584Y-1334561D01*
X7664978Y-1085997D02*
G01*
X7584975Y-1085997D01*
X7695963Y-1196972D02*
G01*
X7695963Y-1116975D01*
X7553998Y-1196972D02*
G01*
X7553998Y-1116975D01*
X7696545Y-1254561D02*
G01*
X7696545Y-1334561D01*
X7665562Y-1365544D02*
G01*
X7585565Y-1365544D01*
X7554584Y-1254561D02*
G01*
X7554584Y-1334561D01*
X1939978Y-3935999D02*
G01*
X1859975Y-3935999D01*
X1970963Y-4046974D02*
G01*
X1970963Y-3966977D01*
X1828998Y-4046974D02*
G01*
X1828998Y-3966977D01*
X1971545Y-4104563D02*
G01*
X1971545Y-4184563D01*
X1940562Y-4215546D02*
G01*
X1860565Y-4215546D01*
X1829584Y-4104563D02*
G01*
X1829584Y-4184563D01*
X1939978Y-5835997D02*
G01*
X1859975Y-5835997D01*
X1970963Y-5946973D02*
G01*
X1970963Y-5866975D01*
X1828998Y-5946973D02*
G01*
X1828998Y-5866975D01*
X1971545Y-6004562D02*
G01*
X1971545Y-6084562D01*
X1940562Y-6115545D02*
G01*
X1860565Y-6115545D01*
X1829584Y-6004562D02*
G01*
X1829584Y-6084562D01*
X1964977Y-7735999D02*
G01*
X1884974Y-7735999D01*
X1995962Y-7846974D02*
G01*
X1995962Y-7766977D01*
X1853996Y-7846974D02*
G01*
X1853996Y-7766977D01*
X1996544Y-7904563D02*
G01*
X1996544Y-7984563D01*
X1965561Y-8015546D02*
G01*
X1885563Y-8015546D01*
X1854583Y-7904563D02*
G01*
X1854583Y-7984563D01*
X1964977Y-9635997D02*
G01*
X1884974Y-9635997D01*
X1995962Y-9746973D02*
G01*
X1995962Y-9666975D01*
X1853996Y-9746973D02*
G01*
X1853996Y-9666975D01*
X1996544Y-9804562D02*
G01*
X1996544Y-9884562D01*
X1965561Y-9915545D02*
G01*
X1885563Y-9915545D01*
X1854583Y-9804562D02*
G01*
X1854583Y-9884562D01*
X2939976Y-11535999D02*
G01*
X2859973Y-11535999D01*
X2970961Y-11646974D02*
G01*
X2970961Y-11566977D01*
X2828996Y-11646974D02*
G01*
X2828996Y-11566977D01*
X2971543Y-11704563D02*
G01*
X2971543Y-11784563D01*
X2940560Y-11815546D02*
G01*
X2860563Y-11815546D01*
X2829582Y-11704563D02*
G01*
X2829582Y-11784563D01*
X3864978Y-9635997D02*
G01*
X3784975Y-9635997D01*
X3895963Y-9746973D02*
G01*
X3895963Y-9666975D01*
X3753998Y-9746973D02*
G01*
X3753998Y-9666975D01*
X3896545Y-9804562D02*
G01*
X3896545Y-9884562D01*
X3865562Y-9915545D02*
G01*
X3785565Y-9915545D01*
X3754584Y-9804562D02*
G01*
X3754584Y-9884562D01*
X3839977Y-7735999D02*
G01*
X3759974Y-7735999D01*
X3870962Y-7846974D02*
G01*
X3870962Y-7766977D01*
X3728996Y-7846974D02*
G01*
X3728996Y-7766977D01*
X3871544Y-7904563D02*
G01*
X3871544Y-7984563D01*
X3840561Y-8015546D02*
G01*
X3760563Y-8015546D01*
X3729583Y-7904563D02*
G01*
X3729583Y-7984563D01*
X3864978Y-5835997D02*
G01*
X3784975Y-5835997D01*
X3895963Y-5946973D02*
G01*
X3895963Y-5866975D01*
X3753998Y-5946973D02*
G01*
X3753998Y-5866975D01*
X3896545Y-6004562D02*
G01*
X3896545Y-6084562D01*
X3865562Y-6115545D02*
G01*
X3785565Y-6115545D01*
X3754584Y-6004562D02*
G01*
X3754584Y-6084562D01*
X3785999Y-4060022D02*
G01*
X3785999Y-4140024D01*
X3896974Y-4029036D02*
G01*
X3816977Y-4029036D01*
X3896974Y-4171002D02*
G01*
X3816977Y-4171002D01*
X3954564Y-4028455D02*
G01*
X4034563Y-4028455D01*
X4065546Y-4059438D02*
G01*
X4065546Y-4139435D01*
X3954564Y-4170415D02*
G01*
X4034563Y-4170415D01*
X5739978Y-3935999D02*
G01*
X5659975Y-3935999D01*
X5770963Y-4046974D02*
G01*
X5770963Y-3966977D01*
X5628998Y-4046974D02*
G01*
X5628998Y-3966977D01*
X5771545Y-4104563D02*
G01*
X5771545Y-4184563D01*
X5740562Y-4215546D02*
G01*
X5660565Y-4215546D01*
X5629584Y-4104563D02*
G01*
X5629584Y-4184563D01*
X5789978Y-5835997D02*
G01*
X5709975Y-5835997D01*
X5820963Y-5946973D02*
G01*
X5820963Y-5866975D01*
X5678998Y-5946973D02*
G01*
X5678998Y-5866975D01*
X5821545Y-6004562D02*
G01*
X5821545Y-6084562D01*
X5790562Y-6115545D02*
G01*
X5710565Y-6115545D01*
X5679584Y-6004562D02*
G01*
X5679584Y-6084562D01*
X5764977Y-7735999D02*
G01*
X5684974Y-7735999D01*
X5795962Y-7846974D02*
G01*
X5795962Y-7766977D01*
X5653996Y-7846974D02*
G01*
X5653996Y-7766977D01*
X5796544Y-7904563D02*
G01*
X5796544Y-7984563D01*
X5765561Y-8015546D02*
G01*
X5685563Y-8015546D01*
X5654583Y-7904563D02*
G01*
X5654583Y-7984563D01*
X5739978Y-9635997D02*
G01*
X5659975Y-9635997D01*
X5770963Y-9746973D02*
G01*
X5770963Y-9666975D01*
X5628998Y-9746973D02*
G01*
X5628998Y-9666975D01*
X5771545Y-9804562D02*
G01*
X5771545Y-9884562D01*
X5740562Y-9915545D02*
G01*
X5660565Y-9915545D01*
X5629584Y-9804562D02*
G01*
X5629584Y-9884562D01*
X5739978Y-11535999D02*
G01*
X5659975Y-11535999D01*
X5770963Y-11646974D02*
G01*
X5770963Y-11566977D01*
X5628998Y-11646974D02*
G01*
X5628998Y-11566977D01*
X5771545Y-11704563D02*
G01*
X5771545Y-11784563D01*
X5740562Y-11815546D02*
G01*
X5660565Y-11815546D01*
X5629584Y-11704563D02*
G01*
X5629584Y-11784563D01*
X6660022Y-10564002D02*
G01*
X6740024Y-10564002D01*
X6629036Y-10453027D02*
G01*
X6629036Y-10533024D01*
X6771002Y-10453027D02*
G01*
X6771002Y-10533024D01*
X6628455Y-10395437D02*
G01*
X6628455Y-10315437D01*
X6659438Y-10284454D02*
G01*
X6739435Y-10284454D01*
X6770415Y-10395437D02*
G01*
X6770415Y-10315437D01*
X6635998Y-6660022D02*
G01*
X6635998Y-6740024D01*
X6746974Y-6629036D02*
G01*
X6666976Y-6629036D01*
X6746974Y-6771002D02*
G01*
X6666976Y-6771002D01*
X6804563Y-6628455D02*
G01*
X6884563Y-6628455D01*
X6915546Y-6659438D02*
G01*
X6915546Y-6739435D01*
X6804563Y-6770415D02*
G01*
X6884563Y-6770415D01*
X7639977Y-3935999D02*
G01*
X7559974Y-3935999D01*
X7670962Y-4046974D02*
G01*
X7670962Y-3966977D01*
X7528996Y-4046974D02*
G01*
X7528996Y-3966977D01*
X7671544Y-4104563D02*
G01*
X7671544Y-4184563D01*
X7640561Y-4215546D02*
G01*
X7560563Y-4215546D01*
X7529583Y-4104563D02*
G01*
X7529583Y-4184563D01*
X2629999Y-3259998D02*
G01*
X2871873Y-3259998D01*
X2629999Y-2739999D02*
G01*
X2871873Y-2739999D01*
X2557960Y-3197959D02*
G01*
X2490000Y-3129998D01*
X2942038Y-2802039D02*
G01*
X3009999Y-2869999D01*
X3009999Y-3129998D01*
X2942038Y-3197959D01*
X2490000Y-3129998D02*
G01*
X2490000Y-2869999D01*
X2557960Y-2802039D01*
D45*
X4616061Y-1042621D02*
G01*
X4616061Y-1138509D01*
X4483940Y-1138509D01*
X4483940Y-1042621D01*
X4616061Y-957379D02*
G01*
X4616061Y-861491D01*
X4483940Y-861491D01*
X4483940Y-957379D01*
X4766061Y-1042621D02*
G01*
X4766061Y-1138509D01*
X4633940Y-1138509D01*
X4633940Y-1042621D01*
X4766061Y-957379D02*
G01*
X4766061Y-861491D01*
X4633940Y-861491D01*
X4633940Y-957379D01*
D10*
X4739977Y-3585997D02*
G01*
X4659975Y-3585997D01*
X4770963Y-3696972D02*
G01*
X4770963Y-3616975D01*
X4628997Y-3696972D02*
G01*
X4628997Y-3616975D01*
X4771544Y-3754561D02*
G01*
X4771544Y-3834561D01*
X4740562Y-3865544D02*
G01*
X4660564Y-3865544D01*
X4629584Y-3754561D02*
G01*
X4629584Y-3834561D01*
X4064002Y-3914978D02*
G01*
X4064002Y-3834975D01*
X3953027Y-3945963D02*
G01*
X4033024Y-3945963D01*
X3953027Y-3803997D02*
G01*
X4033024Y-3803997D01*
X3895437Y-3946545D02*
G01*
X3815438Y-3946545D01*
X3784455Y-3915562D02*
G01*
X3784455Y-3835565D01*
X3895437Y-3804584D02*
G01*
X3815438Y-3804584D01*
X3439977Y-2661000D02*
G01*
X3359975Y-2661000D01*
X3470963Y-2771975D02*
G01*
X3470963Y-2691978D01*
X3328997Y-2771975D02*
G01*
X3328997Y-2691978D01*
X3471545Y-2829565D02*
G01*
X3471545Y-2909564D01*
X3440562Y-2940547D02*
G01*
X3360564Y-2940547D01*
X3329584Y-2829565D02*
G01*
X3329584Y-2909564D01*
G75*
G01*
X721934Y-12404296D02*
G03*
X721934Y-12448113I21908J-21909D01*
G75*
G01*
X822320Y-12347727D02*
G03*
X778502Y-12347730I-21908J-21909D01*
G75*
G01*
X876203Y-12601557D02*
G03*
X920021Y-12601557I21909J21907D01*
G75*
G01*
X976589Y-12544989D02*
G03*
X976589Y-12501174I-21909J21908D01*
G75*
G01*
X2490561Y-13015552D02*
G03*
X2521547Y-12984569I3J30983D01*
G75*
G01*
X2379579Y-12984569D02*
G03*
X2410564Y-13015552I30983J0D01*
G75*
G01*
X2520963Y-12766982D02*
G03*
X2489977Y-12735999I-30983J0D01*
G75*
G01*
X2409980Y-12735999D02*
G03*
X2378997Y-12766980I0J-30983D01*
G75*
G01*
X7565563Y-12915552D02*
G03*
X7596548Y-12884569I2J30983D01*
G75*
G01*
X7454580Y-12884569D02*
G03*
X7485565Y-12915552I30983J0D01*
G75*
G01*
X7595964Y-12666983D02*
G03*
X7564979Y-12636000I-30983J0D01*
G75*
G01*
X7484981Y-12636000D02*
G03*
X7453998Y-12666980I0J-30983D01*
G75*
G01*
X5984438Y-12484451D02*
G03*
X5953455Y-12515433I0J-30982D01*
G75*
G01*
X6095421Y-12515433D02*
G03*
X6064435Y-12484451I-30983J0D01*
G75*
G01*
X5954037Y-12733020D02*
G03*
X5985022Y-12764003I30983J0D01*
G75*
G01*
X6065020Y-12764003D02*
G03*
X6096003Y-12733020I0J30983D01*
G75*
G01*
X734438Y-7784450D02*
G03*
X703453Y-7815433I-2J-30983D01*
G75*
G01*
X845421Y-7815433D02*
G03*
X814436Y-7784450I-30983J0D01*
G75*
G01*
X704037Y-8033019D02*
G03*
X735023Y-8064002I30983J0D01*
G75*
G01*
X815020Y-8064002D02*
G03*
X846003Y-8033022I0J30983D01*
G75*
G01*
X684439Y-5134450D02*
G03*
X653453Y-5165433I-3J-30983D01*
G75*
G01*
X795421Y-5165433D02*
G03*
X764436Y-5134450I-30983J0D01*
G75*
G01*
X654037Y-5383019D02*
G03*
X685023Y-5414002I30983J0D01*
G75*
G01*
X765020Y-5414002D02*
G03*
X796003Y-5383022I0J30983D01*
G75*
G01*
X709440Y-2409449D02*
G03*
X678457Y-2440432I0J-30983D01*
G75*
G01*
X820423Y-2440432D02*
G03*
X789437Y-2409449I-30983J0D01*
G75*
G01*
X679039Y-2658019D02*
G03*
X710024Y-2689001I30982J0D01*
G75*
G01*
X790021Y-2689001D02*
G03*
X821004Y-2658019I0J30982D01*
G75*
G01*
X665551Y-10134440D02*
G03*
X634568Y-10103455I-30983J3D01*
G75*
G01*
X634568Y-10245423D02*
G03*
X665551Y-10214437I0J30983D01*
G75*
G01*
X416982Y-10104039D02*
G03*
X385999Y-10135024I0J-30983D01*
G75*
G01*
X385999Y-10215021D02*
G03*
X416979Y-10246004I30983J0D01*
G75*
G01*
X845703Y-771934D02*
G03*
X801886Y-771934I-21909J-21908D01*
G75*
G01*
X902272Y-872320D02*
G03*
X902269Y-828502I-21909J21908D01*
G75*
G01*
X648442Y-926203D02*
G03*
X648442Y-970021I21907J-21909D01*
G75*
G01*
X705010Y-1026589D02*
G03*
X748825Y-1026589I21908J21909D01*
G75*
G01*
X7878067Y-1020704D02*
G03*
X7878067Y-976887I-21908J21909D01*
G75*
G01*
X7777681Y-1077272D02*
G03*
X7821498Y-1077270I21907J21909D01*
G75*
G01*
X7723797Y-823443D02*
G03*
X7679980Y-823443I-21909J-21907D01*
G75*
G01*
X7623411Y-880011D02*
G03*
X7623411Y-923826I21909J-21907D01*
G75*
G01*
X7965552Y-10209439D02*
G03*
X7934569Y-10178453I-30983J3D01*
G75*
G01*
X7934569Y-10320421D02*
G03*
X7965552Y-10289436I0J30983D01*
G75*
G01*
X7716982Y-10179037D02*
G03*
X7685999Y-10210023I0J-30983D01*
G75*
G01*
X7685999Y-10290020D02*
G03*
X7716980Y-10321003I30983J0D01*
G75*
G01*
X7459449Y-8165562D02*
G03*
X7490432Y-8196547I30983J-2D01*
G75*
G01*
X7490432Y-8054579D02*
G03*
X7459449Y-8085564I0J-30983D01*
G75*
G01*
X7708019Y-8195963D02*
G03*
X7739002Y-8164977I0J30983D01*
G75*
G01*
X7739002Y-8084980D02*
G03*
X7708021Y-8053997I-30983J0D01*
G75*
G01*
X7765562Y-5465552D02*
G03*
X7796548Y-5434569I3J30983D01*
G75*
G01*
X7654580Y-5434569D02*
G03*
X7685565Y-5465552I30982J0D01*
G75*
G01*
X7795964Y-5216982D02*
G03*
X7764978Y-5185999I-30983J0D01*
G75*
G01*
X7684981Y-5185999D02*
G03*
X7653998Y-5216980I0J-30983D01*
G75*
G01*
X7909438Y-2959448D02*
G03*
X7878453Y-2990431I-2J-30983D01*
G75*
G01*
X8020421Y-2990431D02*
G03*
X7989435Y-2959448I-30983J0D01*
G75*
G01*
X7879037Y-3208017D02*
G03*
X7910022Y-3239000I30983J0D01*
G75*
G01*
X7990020Y-3239000D02*
G03*
X8021003Y-3208020I0J30983D01*
G75*
G01*
X2990550Y-784438D02*
G03*
X2959567Y-753453I-30983J2D01*
G75*
G01*
X2959567Y-895421D02*
G03*
X2990550Y-864436I0J30983D01*
G75*
G01*
X2741981Y-754037D02*
G03*
X2710998Y-785023I0J-30983D01*
G75*
G01*
X2710998Y-865020D02*
G03*
X2741978Y-896003I30983J0D01*
G75*
G01*
X5890552Y-809440D02*
G03*
X5859569Y-778457I-30983J0D01*
G75*
G01*
X5859569Y-920422D02*
G03*
X5890552Y-889437I0J30983D01*
G75*
G01*
X5641983Y-779038D02*
G03*
X5611000Y-810024I0J-30983D01*
G75*
G01*
X5611000Y-890021D02*
G03*
X5641983Y-921004I30983J0D01*
G75*
G01*
X5128067Y-2720703D02*
G03*
X5128067Y-2676886I-21908J21909D01*
G75*
G01*
X5027681Y-2777272D02*
G03*
X5071499Y-2777269I21908J21909D01*
G75*
G01*
X4973798Y-2523442D02*
G03*
X4929980Y-2523442I-21909J-21907D01*
G75*
G01*
X4873412Y-2580010D02*
G03*
X4873412Y-2623825I21909J-21908D01*
D22*
G75*
G01*
X3084998Y-3295030D02*
G02*
X3085252Y-3295030I127J15000D01*
D10*
G75*
G01*
X1940563Y-1365550D02*
G03*
X1971548Y-1334567I2J30983D01*
G75*
G01*
X1829580Y-1334567D02*
G03*
X1860565Y-1365550I30983J0D01*
G75*
G01*
X1970964Y-1116980D02*
G03*
X1939978Y-1085997I-30983J0D01*
G75*
G01*
X1859981Y-1085997D02*
G03*
X1828998Y-1116978I0J-30983D01*
G75*
G01*
X3865563Y-1365550D02*
G03*
X3896545Y-1334567I-1J30983D01*
G75*
G01*
X3754580Y-1334567D02*
G03*
X3785565Y-1365550I30983J0D01*
G75*
G01*
X3895964Y-1116980D02*
G03*
X3864978Y-1085997I-30983J0D01*
G75*
G01*
X3784981Y-1085997D02*
G03*
X3753998Y-1116980I0J-30983D01*
G75*
G01*
X5740563Y-1365550D02*
G03*
X5771545Y-1334567I0J30983D01*
G75*
G01*
X5629580Y-1334567D02*
G03*
X5660565Y-1365550I30983J0D01*
G75*
G01*
X5770964Y-1116980D02*
G03*
X5739978Y-1085997I-30983J0D01*
G75*
G01*
X5659981Y-1085997D02*
G03*
X5628998Y-1116980I0J-30983D01*
G75*
G01*
X7665563Y-1365550D02*
G03*
X7696545Y-1334567I0J30983D01*
G75*
G01*
X7554580Y-1334567D02*
G03*
X7585565Y-1365550I30983J0D01*
G75*
G01*
X7695964Y-1116980D02*
G03*
X7664978Y-1085997I-30983J0D01*
G75*
G01*
X7584981Y-1085997D02*
G03*
X7553998Y-1116980I0J-30983D01*
G75*
G01*
X1940563Y-4215552D02*
G03*
X1971545Y-4184569I0J30983D01*
G75*
G01*
X1829580Y-4184569D02*
G03*
X1860565Y-4215552I30983J0D01*
G75*
G01*
X1970964Y-3966982D02*
G03*
X1939978Y-3935999I-30983J0D01*
G75*
G01*
X1859981Y-3935999D02*
G03*
X1828998Y-3966982I0J-30983D01*
G75*
G01*
X1940563Y-6115550D02*
G03*
X1971545Y-6084567I0J30983D01*
G75*
G01*
X1829580Y-6084567D02*
G03*
X1860565Y-6115550I30983J0D01*
G75*
G01*
X1970964Y-5866981D02*
G03*
X1939978Y-5835998I-30983J0D01*
G75*
G01*
X1859981Y-5835998D02*
G03*
X1828998Y-5866981I0J-30983D01*
G75*
G01*
X1965561Y-8015552D02*
G03*
X1996544Y-7984569I0J30983D01*
G75*
G01*
X1854578Y-7984569D02*
G03*
X1885564Y-8015552I30983J0D01*
G75*
G01*
X1995962Y-7766982D02*
G03*
X1964977Y-7735999I-30982J0D01*
G75*
G01*
X1884980Y-7735999D02*
G03*
X1853997Y-7766982I0J-30983D01*
G75*
G01*
X1965561Y-9915550D02*
G03*
X1996544Y-9884567I0J30983D01*
G75*
G01*
X1854578Y-9884567D02*
G03*
X1885564Y-9915550I30983J0D01*
G75*
G01*
X1995962Y-9666981D02*
G03*
X1964977Y-9635998I-30982J0D01*
G75*
G01*
X1884980Y-9635998D02*
G03*
X1853997Y-9666981I0J-30983D01*
G75*
G01*
X2940561Y-11815552D02*
G03*
X2971543Y-11784569I0J30983D01*
G75*
G01*
X2829578Y-11784569D02*
G03*
X2860563Y-11815552I30983J0D01*
G75*
G01*
X2970962Y-11566982D02*
G03*
X2939976Y-11535999I-30983J0D01*
G75*
G01*
X2859979Y-11535999D02*
G03*
X2828996Y-11566982I0J-30983D01*
G75*
G01*
X3865563Y-9915550D02*
G03*
X3896545Y-9884567I-1J30983D01*
G75*
G01*
X3754580Y-9884567D02*
G03*
X3785565Y-9915550I30983J0D01*
G75*
G01*
X3895964Y-9666981D02*
G03*
X3864978Y-9635998I-30983J0D01*
G75*
G01*
X3784981Y-9635998D02*
G03*
X3753998Y-9666981I0J-30983D01*
G75*
G01*
X3840561Y-8015552D02*
G03*
X3871544Y-7984569I0J30983D01*
G75*
G01*
X3729579Y-7984569D02*
G03*
X3760564Y-8015552I30982J0D01*
G75*
G01*
X3870963Y-7766982D02*
G03*
X3839977Y-7735999I-30983J0D01*
G75*
G01*
X3759980Y-7735999D02*
G03*
X3728997Y-7766982I0J-30983D01*
G75*
G01*
X3865563Y-6115550D02*
G03*
X3896545Y-6084567I-1J30983D01*
G75*
G01*
X3754580Y-6084567D02*
G03*
X3785565Y-6115550I30983J0D01*
G75*
G01*
X3895964Y-5866981D02*
G03*
X3864978Y-5835998I-30983J0D01*
G75*
G01*
X3784981Y-5835998D02*
G03*
X3753998Y-5866981I0J-30983D01*
G75*
G01*
X4065552Y-4059438D02*
G03*
X4034569Y-4028455I-30983J0D01*
G75*
G01*
X4034569Y-4170421D02*
G03*
X4065552Y-4139435I0J30983D01*
G75*
G01*
X3816982Y-4029037D02*
G03*
X3786000Y-4060022I0J-30983D01*
G75*
G01*
X3786000Y-4140020D02*
G03*
X3816982Y-4171003I30982J0D01*
G75*
G01*
X5740563Y-4215552D02*
G03*
X5771545Y-4184569I0J30983D01*
G75*
G01*
X5629580Y-4184569D02*
G03*
X5660565Y-4215552I30983J0D01*
G75*
G01*
X5770964Y-3966982D02*
G03*
X5739978Y-3935999I-30983J0D01*
G75*
G01*
X5659981Y-3935999D02*
G03*
X5628998Y-3966982I0J-30983D01*
G75*
G01*
X5790562Y-6115550D02*
G03*
X5821545Y-6084567I0J30983D01*
G75*
G01*
X5679580Y-6084567D02*
G03*
X5710565Y-6115550I30983J0D01*
G75*
G01*
X5820964Y-5866981D02*
G03*
X5789978Y-5835998I-30983J0D01*
G75*
G01*
X5709981Y-5835998D02*
G03*
X5678998Y-5866981I0J-30983D01*
G75*
G01*
X5765561Y-8015552D02*
G03*
X5796544Y-7984569I0J30983D01*
G75*
G01*
X5654578Y-7984569D02*
G03*
X5685564Y-8015552I30983J0D01*
G75*
G01*
X5795963Y-7766982D02*
G03*
X5764977Y-7735999I-30983J0D01*
G75*
G01*
X5684980Y-7735999D02*
G03*
X5653997Y-7766982I0J-30983D01*
G75*
G01*
X5740563Y-9915550D02*
G03*
X5771548Y-9884567I2J30983D01*
G75*
G01*
X5629580Y-9884567D02*
G03*
X5660565Y-9915550I30983J0D01*
G75*
G01*
X5770964Y-9666981D02*
G03*
X5739978Y-9635998I-30983J0D01*
G75*
G01*
X5659981Y-9635998D02*
G03*
X5628998Y-9666978I0J-30983D01*
G75*
G01*
X5740563Y-11815552D02*
G03*
X5771545Y-11784569I0J30983D01*
G75*
G01*
X5629580Y-11784569D02*
G03*
X5660565Y-11815552I30983J0D01*
G75*
G01*
X5770964Y-11566982D02*
G03*
X5739978Y-11535999I-30983J0D01*
G75*
G01*
X5659981Y-11535999D02*
G03*
X5628998Y-11566982I0J-30983D01*
G75*
G01*
X6659438Y-10284450D02*
G03*
X6628453Y-10315433I-3J-30983D01*
G75*
G01*
X6770421Y-10315433D02*
G03*
X6739435Y-10284450I-30983J0D01*
G75*
G01*
X6629037Y-10533019D02*
G03*
X6660022Y-10564002I30983J0D01*
G75*
G01*
X6740020Y-10564002D02*
G03*
X6771002Y-10533022I0J30983D01*
G75*
G01*
X6915551Y-6659438D02*
G03*
X6884568Y-6628453I-30983J3D01*
G75*
G01*
X6884568Y-6770421D02*
G03*
X6915551Y-6739435I0J30983D01*
G75*
G01*
X6666982Y-6629037D02*
G03*
X6635999Y-6660022I0J-30983D01*
G75*
G01*
X6635999Y-6740020D02*
G03*
X6666979Y-6771002I30983J0D01*
G75*
G01*
X7640561Y-4215552D02*
G03*
X7671544Y-4184569I0J30983D01*
G75*
G01*
X7529579Y-4184569D02*
G03*
X7560564Y-4215552I30982J0D01*
G75*
G01*
X7670963Y-3966982D02*
G03*
X7639977Y-3935999I-30983J0D01*
G75*
G01*
X7559980Y-3935999D02*
G03*
X7528997Y-3966982I0J-30983D01*
G75*
G01*
X4740562Y-3865550D02*
G03*
X4771547Y-3834567I3J30983D01*
G75*
G01*
X4629579Y-3834567D02*
G03*
X4660565Y-3865550I30983J0D01*
G75*
G01*
X4770963Y-3616980D02*
G03*
X4739978Y-3585997I-30983J0D01*
G75*
G01*
X4659981Y-3585997D02*
G03*
X4628998Y-3616978I0J-30983D01*
G75*
G01*
X3784450Y-3915562D02*
G03*
X3815433Y-3946545I30983J0D01*
G75*
G01*
X3815433Y-3804580D02*
G03*
X3784450Y-3835565I0J-30983D01*
G75*
G01*
X4033020Y-3945964D02*
G03*
X4064003Y-3914978I0J30983D01*
G75*
G01*
X4064003Y-3834981D02*
G03*
X4033020Y-3803998I-30983J0D01*
G75*
G01*
X3440562Y-2940553D02*
G03*
X3471548Y-2909570I3J30983D01*
G75*
G01*
X3329579Y-2909570D02*
G03*
X3360565Y-2940553I30983J0D01*
G75*
G01*
X3470963Y-2691983D02*
G03*
X3439978Y-2661001I-30983J0D01*
G75*
G01*
X3359981Y-2661001D02*
G03*
X3328998Y-2691981I0J-30982D01*
D11*
G75*
G01
X6735356Y-2625001D02*
G03X6735356Y-2625001I-35357J0D01*
D10*
G75*
G01
X8084998Y-10389972D02*
G03X8084998Y-10389972I-10008J0D01*
G75*
G01
X8301203Y-10599979D02*
G03X8301203Y-10599979I-76200J0D01*
G75*
G01
X8102448Y-12620422D02*
G03X8102448Y-12620422I-10008J0D01*
G75*
G01
X8126222Y-12874981D02*
G03X8126222Y-12874981I-76200J0D01*
G75*
G01
X5895035Y-12924993D02*
G03X5895035Y-12924993I-10008J0D01*
G75*
G01
X5751220Y-13075006D02*
G03X5751220Y-13075006I-76200J0D01*
G75*
G01
X3045028Y-12949987D02*
G03X3045028Y-12949987I-10008J0D01*
G75*
G01
X2901213Y-13099999D02*
G03X2901213Y-13099999I-76200J0D01*
G75*
G01
X739597Y-12942443D02*
G03X739597Y-12942443I-10008J0D01*
G75*
G01
X551205Y-12900000D02*
G03X551205Y-12900000I-76200J0D01*
G75*
G01
X435026Y-10810011D02*
G03X435026Y-10810011I-10008J0D01*
G75*
G01
X351206Y-10600004D02*
G03X351206Y-10600004I-76200J0D01*
G75*
G01
X435026Y-8160029D02*
G03X435026Y-8160029I-10008J0D01*
G75*
G01
X351206Y-7950022D02*
G03X351206Y-7950022I-76200J0D01*
G75*
G01
X435026Y-5510022D02*
G03X435026Y-5510022I-10008J0D01*
G75*
G01
X351206Y-5300015D02*
G03X351206Y-5300015I-76200J0D01*
G75*
G01
X435026Y-2860015D02*
G03X435026Y-2860015I-10008J0D01*
G75*
G01
X351206Y-2650007D02*
G03X351206Y-2650007I-76200J0D01*
G75*
G01
X8084998Y-7739990D02*
G03X8084998Y-7739990I-10008J0D01*
G75*
G01
X8301203Y-7949997D02*
G03X8301203Y-7949997I-76200J0D01*
G75*
G01
X8084998Y-5089982D02*
G03X8084998Y-5089982I-10008J0D01*
G75*
G01
X8301203Y-5299989D02*
G03X8301203Y-5299989I-76200J0D01*
G75*
G01
X8084998Y-2439975D02*
G03X8084998Y-2439975I-10008J0D01*
G75*
G01
X8301203Y-2649982D02*
G03X8301203Y-2649982I-76200J0D01*
G75*
G01
X7755433Y-582574D02*
G03X7755433Y-582574I-10008J0D01*
G75*
G01
X8076184Y-624992D02*
G03X8076184Y-624992I-76200J0D01*
G75*
G01
X5450002Y-525018D02*
G03X5450002Y-525018I-10008J0D01*
G75*
G01
X5726201Y-375006D02*
G03X5726201Y-375006I-76200J0D01*
G75*
G01
X2624988Y-525018D02*
G03X2624988Y-525018I-10008J0D01*
G75*
G01
X2901188Y-375006D02*
G03X2901188Y-375006I-76200J0D01*
G75*
G01
X417576Y-879577D02*
G03X417576Y-879577I-10008J0D01*
G75*
G01
X526186Y-625018D02*
G03X526186Y-625018I-76200J0D01*
G75*
G01
X4890160Y-3061767D02*
G03X4890160Y-3061767I-12497J0D01*
D46*
G75*
G01
X5029606Y-3203931D02*
G03X5029606Y-3203931I-10008J0D01*
D22*
G75*
G01
X4854956Y-2999994D02*
G03X4854956Y-2999994I-15011J0D01*
D10*
G75*
G01
X2953207Y-2999994D02*
G03X2953207Y-2999994I-203200J0D01*
G75*
G01
X2889707Y-2999994D02*
G03X2889707Y-2999994I-139700J0D01*
M02*
