M48
METRIC,LZ,000.000
;FILE_FORMAT=3:3
;TYPE=NON_PLATED
;Layer: Drill NPTH
;EasyEDA v6.4.25, 2022-01-12T17:41:50+11:00
;b283f75f143d4e94901ecfe3ecf6c149,bd1e99ad82f14e1cb325c08acf502db4,10
;Gerber Generator version 0.2
;Holesize 1 = 1.905 mm
T01C1.905
;Holesize 2 = 3.000 mm
T02C3.000
;Holesize 3 = 3.901 mm
T03C3.901
;Holesize 4 = 4.000 mm
T04C4.000
;Holesize 5 = 4.090 mm
T05C4.090
%
G05
G90
T01
X038080Y-015499
X027920Y-015499
X057079Y-015499
X046919Y-015499
X076081Y-015499
X065921Y-015499
X019080Y-044000
X008920Y-044000
X038080Y-044000
X027920Y-044000
X057080Y-044000
X046920Y-044000
X076081Y-044000
X065921Y-044000
X019080Y-063000
X008920Y-063000
X038080Y-063000
X027920Y-063000
X057079Y-063000
X046919Y-063000
X071001Y-067419
X071001Y-077579
X019080Y-081999
X008920Y-081999
X038080Y-081999
X027920Y-081999
X057079Y-081999
X046919Y-081999
X019080Y-101001
X008920Y-101001
X038080Y-101001
X027920Y-101001
X057079Y-101001
X046919Y-101001
X071001Y-105420
X071001Y-115580
X028580Y-120000
X018420Y-120000
X057079Y-120000
X046919Y-120000
X019080Y-015500
X008920Y-015500
T02
X035250Y-113000
X011500Y-113000
X064000Y-098500
X064000Y-122500
X064000Y-060500
X064000Y-084500
T03
X033000Y-015499
X051999Y-015499
X071001Y-015499
X014000Y-044000
X033000Y-044000
X052000Y-044000
X071001Y-044000
X014000Y-063000
X033000Y-063000
X051999Y-063000
X071001Y-072499
X014000Y-081999
X033000Y-081999
X051999Y-081999
X014000Y-101001
X033000Y-101001
X051999Y-101001
X071001Y-110500
X023500Y-120000
X051999Y-120000
X014000Y-015500
T04
X035500Y-128750
X011500Y-128750
X079250Y-098500
X079250Y-122500
X079250Y-060500
X079250Y-084500
T05
X033000Y-015499
X051999Y-015499
X071001Y-015499
X014000Y-044000
X033000Y-044000
X052000Y-044000
X071001Y-044000
X014000Y-063000
X033000Y-063000
X051999Y-063000
X071001Y-072499
X014000Y-081999
X033000Y-081999
X051999Y-081999
X014000Y-101001
X033000Y-101001
X051999Y-101001
X071001Y-110500
X023500Y-120000
X051999Y-120000
X014000Y-015500
M30
